SplineFontDB: 3.0
FontName: Scheherazade-Regular
FullName: Scheherazade
FamilyName: Scheherazade
Weight: Book
Copyright: Copyright (c) 1994 - 2015 by SIL International. All rights reserved.
Version: 2.100 (build 932/914)
ItalicAngle: 0
UnderlinePosition: -64
UnderlineWidth: 9
Ascent: 1638
Descent: 410
InvalidEm: 0
sfntRevision: 0x00021999
LayerCount: 2
Layer: 0 1 "Back" 1
Layer: 1 1 "Fore" 0
XUID: [1021 99 -2098900051 12979963]
StyleMap: 0x0040
FSType: 0
OS2Version: 3
OS2_WeightWidthSlopeOnly: 0
OS2_UseTypoMetrics: 0
CreationTime: 1440087096
ModificationTime: 1533936473
PfmFamily: 81
TTFWeight: 400
TTFWidth: 5
LineGap: 0
VLineGap: 0
Panose: 1 0 6 0 2 0 0 2 0 3
OS2TypoAscent: 1556
OS2TypoAOffset: 0
OS2TypoDescent: -492
OS2TypoDOffset: 0
OS2TypoLinegap: 0
OS2WinAscent: 1901
OS2WinAOffset: 0
OS2WinDescent: 483
OS2WinDOffset: 0
HheadAscent: 1901
HheadAOffset: 0
HheadDescent: -492
HheadDOffset: 0
OS2SubXSize: 856
OS2SubYSize: 856
OS2SubXOff: 0
OS2SubYOff: 1200
OS2SupXSize: 856
OS2SupYSize: 856
OS2SupXOff: 0
OS2SupYOff: 1200
OS2StrikeYSize: 209
OS2StrikeYPos: 1049
OS2CapHeight: 1034
OS2XHeight: 684
OS2Vendor: 'SIL '
OS2CodePages: 00000041.00000000
OS2UnicodeRanges: 80002003.00000000.00000000.00000000
Lookup: 1 1 0 "'ccmp' Glyph Composition/Decomposition lookup 0" { "'ccmp' Glyph Composition/Decomposition lookup 0 subtable"  } ['ccmp' ('arab' <'KUR ' 'SND ' 'URD ' 'dflt' > 'latn' <'dflt' > ) ]
Lookup: 2 1 0 "'ccmp' Glyph Composition/Decomposition in Arabic lookup 1" { "'ccmp' Glyph Composition/Decomposition in Arabic lookup 1 subtable"  } ['ccmp' ('arab' <'KUR ' 'SND ' 'URD ' 'dflt' > ) ]
Lookup: 6 8 0 "'ccmp' Glyph Composition/Decomposition lookup 2" { "'ccmp' Glyph Composition/Decomposition lookup 2 subtable"  } ['ccmp' ('arab' <'KUR ' 'SND ' 'URD ' 'dflt' > 'latn' <'dflt' > ) ]

StartChar: .notdef
Encoding: 65536 -1 0
Width: 1135
GlyphClass: 2
Flags: W
LayerCount: 2
Fore
SplineSet
803 785 m 0,0,1
 803 782 803 782 797.5 772 c 128,-1,2
 792 762 792 762 784.5 750.5 c 128,-1,3
 777 739 777 739 770 730 c 128,-1,4
 763 721 763 721 761 721 c 256,5,6
 759 721 759 721 749.5 727 c 128,-1,7
 740 733 740 733 729.5 740.5 c 128,-1,8
 719 748 719 748 710.5 755 c 128,-1,9
 702 762 702 762 702 765 c 256,10,11
 702 768 702 768 708 778 c 128,-1,12
 714 788 714 788 721.5 799.5 c 128,-1,13
 729 811 729 811 736 820 c 128,-1,14
 743 829 743 829 745 829 c 0,15,16
 748 829 748 829 757 822.5 c 128,-1,17
 766 816 766 816 776.5 808.5 c 128,-1,18
 787 801 787 801 795 793.5 c 128,-1,19
 803 786 803 786 803 785 c 0,0,1
870 670 m 0,20,21
 870 667 870 667 864.5 657 c 128,-1,22
 859 647 859 647 851.5 635.5 c 128,-1,23
 844 624 844 624 837 615 c 128,-1,24
 830 606 830 606 827 606 c 0,25,26
 825 606 825 606 817 612 c 128,-1,27
 809 618 809 618 799 626 c 2,28,-1
 773 646 l 2,29,30
 771 648 771 648 767 648 c 0,31,32
 766 648 766 648 762 646 c 2,33,-1
 744 620 l 2,34,35
 737 610 737 610 731 602.5 c 128,-1,36
 725 595 725 595 723 595 c 256,37,38
 721 595 721 595 711.5 601 c 128,-1,39
 702 607 702 607 691.5 615 c 128,-1,40
 681 623 681 623 672.5 630 c 128,-1,41
 664 637 664 637 664 639 c 0,42,43
 664 642 664 642 670 652 c 128,-1,44
 676 662 676 662 684 673.5 c 128,-1,45
 692 685 692 685 698.5 694 c 128,-1,46
 705 703 705 703 707 703 c 0,47,48
 710 703 710 703 718.5 697 c 128,-1,49
 727 691 727 691 737 683 c 2,50,-1
 761 663 l 2,51,52
 765 660 765 660 767 660 c 256,53,54
 769 660 769 660 773 665 c 0,55,56
 782 678 782 678 790 689 c 0,57,58
 797 698 797 698 803 706 c 128,-1,59
 809 714 809 714 811 714 c 256,60,61
 813 714 813 714 822.5 707.5 c 128,-1,62
 832 701 832 701 842.5 693.5 c 128,-1,63
 853 686 853 686 861.5 678.5 c 128,-1,64
 870 671 870 671 870 670 c 0,20,21
968 448 m 0,65,66
 968 428 968 428 963 403 c 128,-1,67
 958 378 958 378 947.5 356 c 128,-1,68
 937 334 937 334 921.5 318.5 c 128,-1,69
 906 303 906 303 884 303 c 0,70,71
 865 303 865 303 851 309.5 c 128,-1,72
 837 316 837 316 826 324.5 c 128,-1,73
 815 333 815 333 807.5 342 c 128,-1,74
 800 351 800 351 794 356 c 1,75,76
 786 343 786 343 774 326 c 128,-1,77
 762 309 762 309 746.5 294 c 128,-1,78
 731 279 731 279 712.5 268.5 c 128,-1,79
 694 258 694 258 672 258 c 2,80,-1
 670 258 l 1,81,82
 670 152 670 152 640 87 c 128,-1,83
 610 22 610 22 563 -13.5 c 128,-1,84
 516 -49 516 -49 458 -61 c 128,-1,85
 400 -73 400 -73 344 -73 c 0,86,87
 306 -73 306 -73 275.5 -60 c 128,-1,88
 245 -47 245 -47 224 -25 c 128,-1,89
 203 -3 203 -3 191.5 26.5 c 128,-1,90
 180 56 180 56 180 88 c 0,91,92
 180 119 180 119 190.5 151 c 128,-1,93
 201 183 201 183 214 209 c 128,-1,94
 227 235 227 235 239 251 c 128,-1,95
 251 267 251 267 254 267 c 0,96,97
 263 267 263 267 263 260 c 0,98,99
 263 256 263 256 256 244 c 128,-1,100
 249 232 249 232 240 214.5 c 128,-1,101
 231 197 231 197 224 174 c 128,-1,102
 217 151 217 151 217 124 c 0,103,104
 217 92 217 92 233.5 70 c 128,-1,105
 250 48 250 48 273.5 34.5 c 128,-1,106
 297 21 297 21 324 15.5 c 128,-1,107
 351 10 351 10 372 10 c 0,108,109
 400 10 400 10 429.5 13 c 128,-1,110
 459 16 459 16 486.5 21.5 c 128,-1,111
 514 27 514 27 537.5 35 c 128,-1,112
 561 43 561 43 576 54 c 0,113,114
 611 77 611 77 623 109 c 128,-1,115
 635 141 635 141 635 189 c 0,116,117
 635 220 635 220 629.5 241.5 c 128,-1,118
 624 263 624 263 618 277.5 c 128,-1,119
 612 292 612 292 606.5 301 c 128,-1,120
 601 310 601 310 601 315 c 0,121,122
 601 318 601 318 605.5 329.5 c 128,-1,123
 610 341 610 341 616 353 c 128,-1,124
 622 365 622 365 627.5 374.5 c 128,-1,125
 633 384 633 384 635 384 c 0,126,127
 651 361 651 361 659 333 c 1,128,129
 683 333 683 333 708 343.5 c 128,-1,130
 733 354 733 354 754 371.5 c 128,-1,131
 775 389 775 389 789 412 c 128,-1,132
 803 435 803 435 806 461 c 0,133,134
 808 474 808 474 816 474 c 0,135,136
 817 473 817 473 819 470 c 0,137,138
 821 468 821 468 821.5 465 c 128,-1,139
 822 462 822 462 824 458 c 0,140,141
 827 437 827 437 838.5 424 c 128,-1,142
 850 411 850 411 864 403.5 c 128,-1,143
 878 396 878 396 891.5 393 c 128,-1,144
 905 390 905 390 914 390 c 0,145,146
 918 390 918 390 927.5 395 c 128,-1,147
 937 400 937 400 937 405 c 0,148,149
 937 409 937 409 932.5 414 c 128,-1,150
 928 419 928 419 922.5 424 c 128,-1,151
 917 429 917 429 912.5 432.5 c 128,-1,152
 908 436 908 436 908 438 c 256,153,154
 908 440 908 440 911 452 c 128,-1,155
 914 464 914 464 918.5 478 c 128,-1,156
 923 492 923 492 927 503.5 c 128,-1,157
 931 515 931 515 934 515 c 0,158,159
 940 515 940 515 946 507.5 c 128,-1,160
 952 500 952 500 957 489 c 128,-1,161
 962 478 962 478 965 466.5 c 128,-1,162
 968 455 968 455 968 448 c 0,65,66
85 996 m 1,163,-1
 85 -228 l 1,164,-1
 1050 -228 l 1,165,-1
 1050 996 l 1,166,-1
 85 996 l 1,163,-1
60 1021 m 1,167,-1
 1075 1021 l 1,168,-1
 1075 -253 l 1,169,-1
 60 -253 l 1,170,-1
 60 1021 l 1,167,-1
EndSplineSet
Validated: 1
EndChar

StartChar: exclam
Encoding: 33 33 5
Width: 555
GlyphClass: 2
Flags: W
LayerCount: 2
Fore
SplineSet
362 838 m 0,0,1
 362 772 362 772 352.5 705 c 128,-1,2
 343 638 343 638 328 555 c 0,3,4
 322 521 322 521 317.5 498.5 c 128,-1,5
 313 476 313 476 309.5 456.5 c 128,-1,6
 306 437 306 437 304 416 c 128,-1,7
 302 395 302 395 301 364.5 c 128,-1,8
 300 334 300 334 299.5 288.5 c 128,-1,9
 299 243 299 243 299 174 c 0,10,11
 299 169 299 169 292 166 c 128,-1,12
 285 163 285 163 277 163 c 256,13,14
 269 163 269 163 262.5 166 c 128,-1,15
 256 169 256 169 256 174 c 0,16,17
 256 243 256 243 255.5 288.5 c 128,-1,18
 255 334 255 334 254 364.5 c 128,-1,19
 253 395 253 395 251 416 c 128,-1,20
 249 437 249 437 245.5 456.5 c 128,-1,21
 242 476 242 476 237.5 498.5 c 128,-1,22
 233 521 233 521 227 555 c 0,23,24
 212 638 212 638 202.5 705 c 128,-1,25
 193 772 193 772 193 838 c 0,26,27
 193 909 193 909 217 945 c 128,-1,28
 241 981 241 981 276 981 c 0,29,30
 314 981 314 981 338 945 c 128,-1,31
 362 909 362 909 362 838 c 0,0,1
365 14 m 0,32,33
 365 -4 365 -4 358 -19.5 c 128,-1,34
 351 -35 351 -35 339 -46.5 c 128,-1,35
 327 -58 327 -58 311 -65 c 128,-1,36
 295 -72 295 -72 276 -72 c 0,37,38
 258 -72 258 -72 242.5 -65 c 128,-1,39
 227 -58 227 -58 215.5 -46.5 c 128,-1,40
 204 -35 204 -35 197 -19.5 c 128,-1,41
 190 -4 190 -4 190 14 c 256,42,43
 190 32 190 32 197 48 c 128,-1,44
 204 64 204 64 215.5 76 c 128,-1,45
 227 88 227 88 242.5 95 c 128,-1,46
 258 102 258 102 276 102 c 0,47,48
 314 102 314 102 339.5 76.5 c 128,-1,49
 365 51 365 51 365 14 c 0,32,33
EndSplineSet
Validated: 1
EndChar

StartChar: quotedbl
Encoding: 34 34 6
Width: 629
GlyphClass: 2
Flags: W
LayerCount: 2
Fore
SplineSet
528 965 m 0,0,1
 528 921 528 921 522 875.5 c 128,-1,2
 516 830 516 830 507.5 784 c 128,-1,3
 499 738 499 738 489 693 c 128,-1,4
 479 648 479 648 471 606 c 1,5,-1
 434 606 l 1,6,7
 428 640 428 640 418 684.5 c 128,-1,8
 408 729 408 729 398.5 776.5 c 128,-1,9
 389 824 389 824 382 870 c 128,-1,10
 375 916 375 916 375 954 c 0,11,12
 375 995 375 995 392 1019.5 c 128,-1,13
 409 1044 409 1044 453 1044 c 0,14,15
 488 1044 488 1044 508 1021.5 c 128,-1,16
 528 999 528 999 528 965 c 0,0,1
252 965 m 256,17,18
 252 931 252 931 244 880.5 c 128,-1,19
 236 830 236 830 225.5 777.5 c 128,-1,20
 215 725 215 725 205 678.5 c 128,-1,21
 195 632 195 632 190 606 c 1,22,-1
 160 606 l 1,23,24
 152 645 152 645 141.5 688.5 c 128,-1,25
 131 732 131 732 122 777.5 c 128,-1,26
 113 823 113 823 106.5 868 c 128,-1,27
 100 913 100 913 100 954 c 0,28,29
 100 993 100 993 116.5 1018.5 c 128,-1,30
 133 1044 133 1044 176 1044 c 0,31,32
 211 1044 211 1044 231.5 1021.5 c 128,-1,33
 252 999 252 999 252 965 c 256,17,18
EndSplineSet
Validated: 1
EndChar

StartChar: numbersign
Encoding: 35 35 7
Width: 772
GlyphClass: 2
Flags: W
LayerCount: 2
Fore
SplineSet
539 322 m 1,0,-1
 469 -23 l 1,1,-1
 408 -23 l 1,2,-1
 477 322 l 1,3,-1
 221 322 l 1,4,-1
 150 -23 l 1,5,-1
 86 -23 l 1,6,-1
 156 322 l 1,7,-1
 27 322 l 1,8,-1
 27 385 l 1,9,-1
 168 385 l 1,10,-1
 221 643 l 1,11,-1
 27 643 l 1,12,-1
 27 702 l 1,13,-1
 236 702 l 1,14,-1
 305 1044 l 1,15,-1
 365 1044 l 1,16,-1
 299 702 l 1,17,-1
 553 702 l 1,18,-1
 625 1044 l 1,19,-1
 688 1044 l 1,20,-1
 616 702 l 1,21,-1
 745 702 l 1,22,-1
 745 643 l 1,23,-1
 606 643 l 1,24,-1
 553 385 l 1,25,-1
 745 385 l 1,26,-1
 745 322 l 1,27,-1
 539 322 l 1,0,-1
285 643 m 1,28,-1
 231 385 l 1,29,-1
 489 385 l 1,30,-1
 543 643 l 1,31,-1
 285 643 l 1,28,-1
EndSplineSet
Validated: 1
EndChar

StartChar: dollar
Encoding: 36 36 8
Width: 772
GlyphClass: 2
Flags: W
LayerCount: 2
Fore
SplineSet
694 254 m 0,0,1
 694 192 694 192 669 142.5 c 128,-1,2
 644 93 644 93 603 57.5 c 128,-1,3
 562 22 562 22 508.5 1.5 c 128,-1,4
 455 -19 455 -19 397 -23 c 1,5,-1
 397 -117 l 1,6,-1
 348 -117 l 1,7,-1
 348 -23 l 1,8,9
 280 -19 280 -19 212.5 -4 c 128,-1,10
 145 11 145 11 82 39 c 1,11,-1
 82 252 l 1,12,-1
 115 252 l 1,13,14
 123 146 123 146 184 92 c 128,-1,15
 245 38 245 38 348 29 c 1,16,-1
 348 467 l 1,17,18
 299 498 299 498 251.5 531 c 128,-1,19
 204 564 204 564 166.5 602.5 c 128,-1,20
 129 641 129 641 105.5 688 c 128,-1,21
 82 735 82 735 82 795 c 0,22,23
 82 851 82 851 104.5 895 c 128,-1,24
 127 939 127 939 164 970 c 128,-1,25
 201 1001 201 1001 249 1018.5 c 128,-1,26
 297 1036 297 1036 348 1040 c 1,27,-1
 348 1110 l 1,28,-1
 397 1110 l 1,29,-1
 397 1040 l 1,30,31
 431 1038 431 1038 462 1032 c 128,-1,32
 493 1026 493 1026 523 1016.5 c 128,-1,33
 553 1007 553 1007 583 996 c 128,-1,34
 613 985 613 985 645 973 c 1,35,-1
 645 748 l 1,36,-1
 616 748 l 1,37,38
 607 851 607 851 555.5 914.5 c 128,-1,39
 504 978 504 978 397 989 c 1,40,-1
 397 606 l 1,41,42
 442 574 442 574 494 538.5 c 128,-1,43
 546 503 546 503 590.5 461 c 128,-1,44
 635 419 635 419 664.5 368 c 128,-1,45
 694 317 694 317 694 254 c 0,0,1
348 989 m 1,46,47
 316 984 316 984 289 974 c 128,-1,48
 262 964 262 964 242 946.5 c 128,-1,49
 222 929 222 929 210.5 903 c 128,-1,50
 199 877 199 877 199 842 c 256,51,52
 199 807 199 807 212.5 777.5 c 128,-1,53
 226 748 226 748 247.5 722.5 c 128,-1,54
 269 697 269 697 295.5 676 c 128,-1,55
 322 655 322 655 348 639 c 1,56,-1
 348 989 l 1,46,47
575 217 m 0,57,58
 575 253 575 253 558.5 284 c 128,-1,59
 542 315 542 315 516 341.5 c 128,-1,60
 490 368 490 368 458.5 391 c 128,-1,61
 427 414 427 414 397 434 c 1,62,-1
 397 29 l 1,63,64
 435 31 435 31 467.5 46.5 c 128,-1,65
 500 62 500 62 524 87.5 c 128,-1,66
 548 113 548 113 561.5 146 c 128,-1,67
 575 179 575 179 575 217 c 0,57,58
EndSplineSet
Validated: 1
EndChar

StartChar: percent
Encoding: 37 37 9
Width: 1335
GlyphClass: 2
Flags: W
LayerCount: 2
Fore
SplineSet
1219 383 m 0,0,1
 1219 341 1219 341 1210 295 c 128,-1,2
 1201 249 1201 249 1183 204 c 128,-1,3
 1165 159 1165 159 1139 118 c 128,-1,4
 1113 77 1113 77 1079.5 45.5 c 128,-1,5
 1046 14 1046 14 1004.5 -4.5 c 128,-1,6
 963 -23 963 -23 915 -23 c 0,7,8
 811 -23 811 -23 765 33.5 c 128,-1,9
 719 90 719 90 719 190 c 0,10,11
 719 232 719 232 731.5 275.5 c 128,-1,12
 744 319 744 319 767 359.5 c 128,-1,13
 790 400 790 400 821 435 c 128,-1,14
 852 470 852 470 889.5 496.5 c 128,-1,15
 927 523 927 523 969 538 c 128,-1,16
 1011 553 1011 553 1055 553 c 0,17,18
 1090 553 1090 553 1120 539.5 c 128,-1,19
 1150 526 1150 526 1172 503 c 128,-1,20
 1194 480 1194 480 1206.5 449 c 128,-1,21
 1219 418 1219 418 1219 383 c 0,0,1
408 -23 m 1,22,-1
 334 -23 l 1,23,-1
 874 948 l 1,24,25
 828 928 828 928 781 917.5 c 128,-1,26
 734 907 734 907 684 907 c 0,27,28
 664 907 664 907 644.5 909.5 c 128,-1,29
 625 912 625 912 606 920 c 1,30,31
 606 898 606 898 612 877.5 c 128,-1,32
 618 857 618 857 618 836 c 0,33,34
 618 796 618 796 607 751 c 128,-1,35
 596 706 596 706 576 663 c 128,-1,36
 556 620 556 620 527 580.5 c 128,-1,37
 498 541 498 541 463 511 c 128,-1,38
 428 481 428 481 387 463.5 c 128,-1,39
 346 446 346 446 301 446 c 0,40,41
 250 446 250 446 215 462 c 128,-1,42
 180 478 180 478 158.5 506 c 128,-1,43
 137 534 137 534 127 573 c 128,-1,44
 117 612 117 612 117 659 c 0,45,46
 117 722 117 722 144.5 787 c 128,-1,47
 172 852 172 852 218.5 905.5 c 128,-1,48
 265 959 265 959 325 992.5 c 128,-1,49
 385 1026 385 1026 451 1026 c 0,50,51
 491 1026 491 1026 517.5 1013 c 128,-1,52
 544 1000 544 1000 569 984 c 128,-1,53
 594 968 594 968 623 955 c 128,-1,54
 652 942 652 942 698 942 c 0,55,56
 768 942 768 942 828 967 c 128,-1,57
 888 992 888 992 932 1049 c 1,58,-1
 1006 1049 l 1,59,-1
 408 -23 l 1,22,-1
1180 375 m 0,60,61
 1180 399 1180 399 1173 422 c 128,-1,62
 1166 445 1166 445 1152.5 463 c 128,-1,63
 1139 481 1139 481 1118.5 492.5 c 128,-1,64
 1098 504 1098 504 1071 504 c 0,65,66
 1036 504 1036 504 1005 485 c 128,-1,67
 974 466 974 466 947.5 434.5 c 128,-1,68
 921 403 921 403 900.5 363 c 128,-1,69
 880 323 880 323 865.5 282 c 128,-1,70
 851 241 851 241 843.5 202 c 128,-1,71
 836 163 836 163 836 133 c 0,72,73
 836 84 836 84 858.5 54.5 c 128,-1,74
 881 25 881 25 932 25 c 0,75,76
 969 25 969 25 1002 42 c 128,-1,77
 1035 59 1035 59 1062.5 87.5 c 128,-1,78
 1090 116 1090 116 1112 152.5 c 128,-1,79
 1134 189 1134 189 1149 228 c 128,-1,80
 1164 267 1164 267 1172 305 c 128,-1,81
 1180 343 1180 343 1180 375 c 0,60,61
578 858 m 0,82,83
 578 874 578 874 572.5 894 c 128,-1,84
 567 914 567 914 565 930 c 1,85,86
 554 933 554 933 538.5 941.5 c 128,-1,87
 523 950 523 950 507.5 958.5 c 128,-1,88
 492 967 492 967 478 974 c 128,-1,89
 464 981 464 981 457 981 c 0,90,91
 438 981 438 981 418.5 970 c 128,-1,92
 399 959 399 959 382 942.5 c 128,-1,93
 365 926 365 926 350 908 c 128,-1,94
 335 890 335 890 325 877 c 0,95,96
 282 820 282 820 259 753.5 c 128,-1,97
 236 687 236 687 236 614 c 0,98,99
 236 565 236 565 257 532.5 c 128,-1,100
 278 500 278 500 332 500 c 0,101,102
 370 500 370 500 403 517.5 c 128,-1,103
 436 535 436 535 463.5 564 c 128,-1,104
 491 593 491 593 512.5 630 c 128,-1,105
 534 667 534 667 548.5 707 c 128,-1,106
 563 747 563 747 570.5 786 c 128,-1,107
 578 825 578 825 578 858 c 0,82,83
EndSplineSet
Validated: 1
EndChar

StartChar: ampersand
Encoding: 38 38 10
Width: 1202
GlyphClass: 2
Flags: W
LayerCount: 2
Fore
SplineSet
1153 184 m 1,0,1
 1144 140 1144 140 1124 101.5 c 128,-1,2
 1104 63 1104 63 1075 35 c 128,-1,3
 1046 7 1046 7 1007.5 -9 c 128,-1,4
 969 -25 969 -25 922 -25 c 0,5,6
 882 -25 882 -25 845 -12.5 c 128,-1,7
 808 0 808 0 774.5 21 c 128,-1,8
 741 42 741 42 711 68.5 c 128,-1,9
 681 95 681 95 655 123 c 1,10,11
 618 91 618 91 581.5 63.5 c 128,-1,12
 545 36 545 36 506 16.5 c 128,-1,13
 467 -3 467 -3 423 -14 c 128,-1,14
 379 -25 379 -25 328 -25 c 256,15,16
 277 -25 277 -25 228.5 -10.5 c 128,-1,17
 180 4 180 4 142 32.5 c 128,-1,18
 104 61 104 61 80.5 104 c 128,-1,19
 57 147 57 147 57 203 c 0,20,21
 57 268 57 268 86.5 323.5 c 128,-1,22
 116 379 116 379 161.5 425 c 128,-1,23
 207 471 207 471 262.5 507.5 c 128,-1,24
 318 544 318 544 371 571 c 1,25,26
 346 622 346 622 326.5 681 c 128,-1,27
 307 740 307 740 307 797 c 256,28,29
 307 854 307 854 327 900 c 128,-1,30
 347 946 347 946 382 978 c 128,-1,31
 417 1010 417 1010 465 1027 c 128,-1,32
 513 1044 513 1044 569 1044 c 0,33,34
 611 1044 611 1044 648 1032 c 128,-1,35
 685 1020 685 1020 713 997 c 128,-1,36
 741 974 741 974 757.5 940 c 128,-1,37
 774 906 774 906 774 862 c 0,38,39
 774 809 774 809 750.5 767.5 c 128,-1,40
 727 726 727 726 690.5 693.5 c 128,-1,41
 654 661 654 661 610 636 c 128,-1,42
 566 611 566 611 526 590 c 1,43,44
 571 508 571 508 620.5 430.5 c 128,-1,45
 670 353 670 353 727 279 c 1,46,47
 748 305 748 305 771.5 336.5 c 128,-1,48
 795 368 795 368 814 402.5 c 128,-1,49
 833 437 833 437 845.5 473.5 c 128,-1,50
 858 510 858 510 858 545 c 0,51,52
 858 560 858 560 853.5 575 c 128,-1,53
 849 590 849 590 840 602 c 128,-1,54
 831 614 831 614 817.5 621.5 c 128,-1,55
 804 629 804 629 786 629 c 1,56,-1
 786 657 l 1,57,-1
 1104 657 l 1,58,-1
 1104 629 l 1,59,60
 1095 629 1095 629 1083 627 c 128,-1,61
 1071 625 1071 625 1058 622 c 128,-1,62
 1045 619 1045 619 1032.5 613.5 c 128,-1,63
 1020 608 1020 608 1010 600 c 0,64,65
 998 590 998 590 984 572 c 128,-1,66
 970 554 970 554 957 533.5 c 128,-1,67
 944 513 944 513 932.5 493 c 128,-1,68
 921 473 921 473 913 459 c 0,69,70
 880 399 880 399 842.5 343 c 128,-1,71
 805 287 805 287 762 233 c 1,72,73
 783 210 783 210 808 185 c 128,-1,74
 833 160 833 160 862 139.5 c 128,-1,75
 891 119 891 119 922.5 105.5 c 128,-1,76
 954 92 954 92 987 92 c 0,77,78
 1044 92 1044 92 1078 120.5 c 128,-1,79
 1112 149 1112 149 1126 203 c 1,80,-1
 1153 184 l 1,0,1
686 864 m 0,81,82
 686 889 686 889 678 912.5 c 128,-1,83
 670 936 670 936 654.5 953 c 128,-1,84
 639 970 639 970 617.5 980.5 c 128,-1,85
 596 991 596 991 569 991 c 0,86,87
 541 991 541 991 516.5 980.5 c 128,-1,88
 492 970 492 970 474 952 c 128,-1,89
 456 934 456 934 446 909 c 128,-1,90
 436 884 436 884 436 856 c 0,91,92
 436 830 436 830 442 801.5 c 128,-1,93
 448 773 448 773 457 745 c 128,-1,94
 466 717 466 717 477.5 690 c 128,-1,95
 489 663 489 663 500 639 c 1,96,97
 535 655 535 655 568.5 676.5 c 128,-1,98
 602 698 602 698 628 725.5 c 128,-1,99
 654 753 654 753 670 787.5 c 128,-1,100
 686 822 686 822 686 864 c 0,81,82
616 166 m 1,101,102
 551 254 551 254 497.5 339 c 128,-1,103
 444 424 444 424 393 520 c 1,104,105
 357 500 357 500 324.5 475 c 128,-1,106
 292 450 292 450 267 419 c 128,-1,107
 242 388 242 388 227.5 351 c 128,-1,108
 213 314 213 314 213 270 c 0,109,110
 213 229 213 229 226.5 192 c 128,-1,111
 240 155 240 155 265 127.5 c 128,-1,112
 290 100 290 100 325 84 c 128,-1,113
 360 68 360 68 403 68 c 0,114,115
 433 68 433 68 461.5 76.5 c 128,-1,116
 490 85 490 85 517 99 c 128,-1,117
 544 113 544 113 569 130.5 c 128,-1,118
 594 148 594 148 616 166 c 1,101,102
EndSplineSet
Validated: 1
EndChar

StartChar: quotesingle
Encoding: 39 39 11
Width: 279
GlyphClass: 2
Flags: W
LayerCount: 2
Fore
SplineSet
211 954 m 0,0,1
 211 937 211 937 207 906.5 c 128,-1,2
 203 876 203 876 195 829 c 2,3,-1
 154 606 l 1,4,-1
 121 606 l 1,5,-1
 80 829 l 2,6,7
 72 874 72 874 67.5 905.5 c 128,-1,8
 63 937 63 937 63 954 c 0,9,10
 63 1001 63 1001 82.5 1022.5 c 128,-1,11
 102 1044 102 1044 137 1044 c 256,12,13
 172 1044 172 1044 191.5 1022.5 c 128,-1,14
 211 1001 211 1001 211 954 c 0,0,1
EndSplineSet
Validated: 1
EndChar

StartChar: parenleft
Encoding: 40 40 12
Width: 547
GlyphClass: 2
Flags: W
LayerCount: 2
Fore
SplineSet
489 -375 m 1,0,1
 470 -366 470 -366 443 -349 c 128,-1,2
 416 -332 416 -332 385 -309 c 128,-1,3
 354 -286 354 -286 322.5 -258 c 128,-1,4
 291 -230 291 -230 263 -200 c 0,5,6
 225 -160 225 -160 191 -114 c 128,-1,7
 157 -68 157 -68 131.5 -13.5 c 128,-1,8
 106 41 106 41 91 105 c 128,-1,9
 76 169 76 169 76 246 c 256,10,11
 76 323 76 323 91 386.5 c 128,-1,12
 106 450 106 450 131.5 504 c 128,-1,13
 157 558 157 558 191 603.5 c 128,-1,14
 225 649 225 649 263 689 c 0,15,16
 291 719 291 719 322.5 747 c 128,-1,17
 354 775 354 775 385 798.5 c 128,-1,18
 416 822 416 822 443 839 c 128,-1,19
 470 856 470 856 489 864 c 1,20,-1
 502 852 l 1,21,22
 437 789 437 789 387.5 729.5 c 128,-1,23
 338 670 338 670 303 602 c 0,24,25
 285 568 285 568 267.5 529.5 c 128,-1,26
 250 491 250 491 236 447 c 128,-1,27
 222 403 222 403 213.5 353 c 128,-1,28
 205 303 205 303 205 246 c 0,29,30
 205 188 205 188 213.5 137.5 c 128,-1,31
 222 87 222 87 236 42.5 c 128,-1,32
 250 -2 250 -2 267.5 -40.5 c 128,-1,33
 285 -79 285 -79 303 -113 c 0,34,35
 338 -181 338 -181 387.5 -239 c 128,-1,36
 437 -297 437 -297 502 -362 c 1,37,-1
 489 -375 l 1,0,1
EndSplineSet
Validated: 1
EndChar

StartChar: parenright
Encoding: 41 41 13
Width: 547
GlyphClass: 2
Flags: W
LayerCount: 2
Fore
SplineSet
469 246 m 256,0,1
 469 169 469 169 454.5 105 c 128,-1,2
 440 41 440 41 414.5 -13.5 c 128,-1,3
 389 -68 389 -68 355 -114 c 128,-1,4
 321 -160 321 -160 283 -201 c 0,5,6
 254 -231 254 -231 222 -258.5 c 128,-1,7
 190 -286 190 -286 159.5 -309 c 128,-1,8
 129 -332 129 -332 101.5 -349 c 128,-1,9
 74 -366 74 -366 55 -375 c 1,10,-1
 43 -362 l 1,11,12
 108 -297 108 -297 157.5 -239 c 128,-1,13
 207 -181 207 -181 243 -113 c 0,14,15
 261 -79 261 -79 278.5 -40.5 c 128,-1,16
 296 -2 296 -2 309.5 42.5 c 128,-1,17
 323 87 323 87 331.5 137.5 c 128,-1,18
 340 188 340 188 340 246 c 0,19,20
 340 303 340 303 331.5 353 c 128,-1,21
 323 403 323 403 309.5 447 c 128,-1,22
 296 491 296 491 278.5 529.5 c 128,-1,23
 261 568 261 568 243 602 c 0,24,25
 207 670 207 670 157.5 729.5 c 128,-1,26
 108 789 108 789 43 852 c 1,27,-1
 55 864 l 1,28,29
 74 856 74 856 101.5 839 c 128,-1,30
 129 822 129 822 159.5 799 c 128,-1,31
 190 776 190 776 222 748 c 128,-1,32
 254 720 254 720 283 690 c 0,33,34
 321 649 321 649 355 603.5 c 128,-1,35
 389 558 389 558 414.5 504 c 128,-1,36
 440 450 440 450 454.5 386.5 c 128,-1,37
 469 323 469 323 469 246 c 256,0,1
EndSplineSet
Validated: 1
EndChar

StartChar: asterisk
Encoding: 42 42 14
Width: 688
GlyphClass: 2
Flags: W
LayerCount: 2
Fore
SplineSet
554 480 m 256,0,1
 567 480 567 480 577 472 c 128,-1,2
 587 464 587 464 587 449 c 0,3,4
 587 436 587 436 579 419.5 c 128,-1,5
 571 403 571 403 551 383 c 0,6,7
 537 369 537 369 513 352 c 128,-1,8
 489 335 489 335 464.5 320 c 128,-1,9
 440 305 440 305 419.5 294.5 c 128,-1,10
 399 284 399 284 393 284 c 0,11,12
 390 284 390 284 390 287 c 0,13,14
 390 293 390 293 400.5 313 c 128,-1,15
 411 333 411 333 426 358 c 128,-1,16
 441 383 441 383 458 406.5 c 128,-1,17
 475 430 475 430 489 444 c 0,18,19
 508 464 508 464 524.5 472 c 128,-1,20
 541 480 541 480 554 480 c 256,0,1
387 487 m 0,21,22
 387 466 387 466 381.5 435 c 128,-1,23
 376 404 376 404 368.5 374.5 c 128,-1,24
 361 345 361 345 354 324 c 128,-1,25
 347 303 347 303 344 303 c 0,26,27
 340 303 340 303 332.5 324 c 128,-1,28
 325 345 325 345 317.5 374.5 c 128,-1,29
 310 404 310 404 304.5 435 c 128,-1,30
 299 466 299 466 299 487 c 0,31,32
 299 531 299 531 313 550 c 128,-1,33
 327 569 327 569 344 569 c 256,34,35
 361 569 361 569 374 550 c 128,-1,36
 387 531 387 531 387 487 c 0,21,22
676 238 m 256,37,38
 676 221 676 221 656 208 c 128,-1,39
 636 195 636 195 594 195 c 0,40,41
 573 195 573 195 541.5 200 c 128,-1,42
 510 205 510 205 480.5 212 c 128,-1,43
 451 219 451 219 430.5 226.5 c 128,-1,44
 410 234 410 234 410 238 c 256,45,46
 410 242 410 242 430.5 249 c 128,-1,47
 451 256 451 256 480.5 263 c 128,-1,48
 510 270 510 270 541.5 275.5 c 128,-1,49
 573 281 573 281 594 281 c 0,50,51
 636 281 636 281 656 268 c 128,-1,52
 676 255 676 255 676 238 c 256,37,38
297 287 m 0,53,54
 297 284 297 284 295 284 c 0,55,56
 289 284 289 284 268.5 294.5 c 128,-1,57
 248 305 248 305 223.5 320 c 128,-1,58
 199 335 199 335 174.5 352.5 c 128,-1,59
 150 370 150 370 136 384 c 0,60,61
 116 403 116 403 108 419.5 c 128,-1,62
 100 436 100 436 100 449 c 256,63,64
 100 462 100 462 109.5 471 c 128,-1,65
 119 480 119 480 133 480 c 0,66,67
 146 480 146 480 162.5 472 c 128,-1,68
 179 464 179 464 199 444 c 0,69,70
 213 430 213 430 230 406 c 128,-1,71
 247 382 247 382 262 357 c 128,-1,72
 277 332 277 332 287 312 c 128,-1,73
 297 292 297 292 297 287 c 0,53,54
587 27 m 0,74,75
 587 13 587 13 578 4 c 128,-1,76
 569 -5 569 -5 554 -5 c 0,77,78
 541 -5 541 -5 524.5 3 c 128,-1,79
 508 11 508 11 489 31 c 0,80,81
 475 45 475 45 458 69 c 128,-1,82
 441 93 441 93 426 117.5 c 128,-1,83
 411 142 411 142 400.5 162 c 128,-1,84
 390 182 390 182 390 188 c 0,85,86
 390 191 390 191 393 191 c 0,87,88
 399 191 399 191 419.5 180.5 c 128,-1,89
 440 170 440 170 464.5 155 c 128,-1,90
 489 140 489 140 513 123 c 128,-1,91
 537 106 537 106 551 92 c 0,92,93
 571 72 571 72 579 56 c 128,-1,94
 587 40 587 40 587 27 c 0,74,75
279 238 m 256,95,96
 279 234 279 234 258 226.5 c 128,-1,97
 237 219 237 219 207.5 212 c 128,-1,98
 178 205 178 205 146.5 200 c 128,-1,99
 115 195 115 195 94 195 c 0,100,101
 51 195 51 195 31.5 208 c 128,-1,102
 12 221 12 221 12 238 c 256,103,104
 12 255 12 255 31.5 268 c 128,-1,105
 51 281 51 281 94 281 c 0,106,107
 115 281 115 281 146.5 275.5 c 128,-1,108
 178 270 178 270 207.5 263 c 128,-1,109
 237 256 237 256 258 249 c 128,-1,110
 279 242 279 242 279 238 c 256,95,96
387 -12 m 0,111,112
 387 -56 387 -56 374 -75 c 128,-1,113
 361 -94 361 -94 344 -94 c 256,114,115
 327 -94 327 -94 313 -75 c 128,-1,116
 299 -56 299 -56 299 -12 c 0,117,118
 299 9 299 9 304.5 40 c 128,-1,119
 310 71 310 71 317.5 100.5 c 128,-1,120
 325 130 325 130 332.5 151 c 128,-1,121
 340 172 340 172 344 172 c 0,122,123
 347 172 347 172 354 151 c 128,-1,124
 361 130 361 130 368.5 100.5 c 128,-1,125
 376 71 376 71 381.5 40 c 128,-1,126
 387 9 387 9 387 -12 c 0,111,112
295 191 m 0,127,128
 297 191 297 191 297 188 c 0,129,130
 297 183 297 183 287 163 c 128,-1,131
 277 143 277 143 262 118 c 128,-1,132
 247 93 247 93 230 69 c 128,-1,133
 213 45 213 45 199 31 c 0,134,135
 179 11 179 11 162.5 3 c 128,-1,136
 146 -5 146 -5 133 -5 c 256,137,138
 120 -5 120 -5 110 3.5 c 128,-1,139
 100 12 100 12 100 26 c 0,140,141
 100 39 100 39 108 55 c 128,-1,142
 116 71 116 71 136 91 c 0,143,144
 150 105 150 105 174.5 122.5 c 128,-1,145
 199 140 199 140 223.5 155 c 128,-1,146
 248 170 248 170 268.5 180.5 c 128,-1,147
 289 191 289 191 295 191 c 0,127,128
EndSplineSet
Validated: 1
EndChar

StartChar: plus
Encoding: 43 43 15
Width: 915
GlyphClass: 2
Flags: W
LayerCount: 2
Fore
SplineSet
485 389 m 1,0,-1
 485 4 l 1,1,-1
 424 4 l 1,2,-1
 424 389 l 1,3,-1
 37 389 l 1,4,-1
 37 453 l 1,5,-1
 424 453 l 1,6,-1
 424 840 l 1,7,-1
 485 840 l 1,8,-1
 485 453 l 1,9,-1
 872 453 l 1,10,-1
 872 389 l 1,11,-1
 485 389 l 1,0,-1
EndSplineSet
Validated: 1
EndChar

StartChar: comma
Encoding: 44 44 16
Width: 387
GlyphClass: 2
Flags: W
LayerCount: 2
Fore
SplineSet
307 -8 m 0,0,1
 307 -182 307 -182 84 -258 c 1,2,-1
 84 -223 l 1,3,4
 115 -215 115 -215 144.5 -196.5 c 128,-1,5
 174 -178 174 -178 196.5 -152 c 128,-1,6
 219 -126 219 -126 232.5 -95 c 128,-1,7
 246 -64 246 -64 246 -31 c 0,8,9
 246 0 246 0 229 0 c 0,10,11
 223 0 223 0 216.5 -3.5 c 128,-1,12
 210 -7 210 -7 202 -11.5 c 128,-1,13
 194 -16 194 -16 184.5 -19.5 c 128,-1,14
 175 -23 175 -23 164 -23 c 0,15,16
 128 -23 128 -23 106 -2 c 128,-1,17
 84 19 84 19 84 61 c 0,18,19
 84 100 84 100 112.5 125 c 128,-1,20
 141 150 141 150 180 150 c 0,21,22
 211 150 211 150 234.5 136.5 c 128,-1,23
 258 123 258 123 274 100.5 c 128,-1,24
 290 78 290 78 298.5 50 c 128,-1,25
 307 22 307 22 307 -8 c 0,0,1
EndSplineSet
Validated: 1
EndChar

StartChar: hyphen
Encoding: 45 45 17
Width: 514
GlyphClass: 2
Flags: W
LayerCount: 2
Fore
SplineSet
61 238 m 1,0,-1
 61 352 l 1,1,-1
 451 352 l 1,2,-1
 451 238 l 1,3,-1
 61 238 l 1,0,-1
EndSplineSet
Validated: 1
EndChar

StartChar: period
Encoding: 46 46 18
Width: 641
GlyphClass: 2
Flags: W
LayerCount: 2
Fore
SplineSet
425 66 m 0,0,1
 425 28 425 28 399.5 2.5 c 128,-1,2
 374 -23 374 -23 336 -23 c 0,3,4
 318 -23 318 -23 302.5 -16 c 128,-1,5
 287 -9 287 -9 275.5 3 c 128,-1,6
 264 15 264 15 257 31 c 128,-1,7
 250 47 250 47 250 66 c 0,8,9
 250 84 250 84 257 99.5 c 128,-1,10
 264 115 264 115 275.5 126.5 c 128,-1,11
 287 138 287 138 302.5 145 c 128,-1,12
 318 152 318 152 336 152 c 0,13,14
 355 152 355 152 371 145 c 128,-1,15
 387 138 387 138 399 126.5 c 128,-1,16
 411 115 411 115 418 99.5 c 128,-1,17
 425 84 425 84 425 66 c 0,0,1
EndSplineSet
Validated: 1
EndChar

StartChar: period.test
Encoding: 65540 -1 19
Width: 641
GlyphClass: 2
Flags: W
LayerCount: 2
Fore
SplineSet
425 66 m 0,0,1
 425 84 425 84 418 99.5 c 128,-1,2
 411 115 411 115 399 126.5 c 128,-1,3
 387 138 387 138 371 145 c 128,-1,4
 355 152 355 152 336 152 c 0,5,6
 318 152 318 152 302.5 145 c 128,-1,7
 287 138 287 138 275.5 126.5 c 128,-1,8
 264 115 264 115 257 99.5 c 128,-1,9
 250 84 250 84 250 66 c 0,10,11
 250 47 250 47 257 31 c 128,-1,12
 264 15 264 15 275.5 3 c 128,-1,13
 287 -9 287 -9 302.5 -16 c 128,-1,14
 318 -23 318 -23 336 -23 c 0,15,16
 374 -23 374 -23 399.5 2.5 c 128,-1,17
 425 28 425 28 425 66 c 0,0,1
31 968 m 1,18,-1
 611 968 l 1,19,-1
 611 -350 l 1,20,-1
 27 -362 l 1,21,-1
 31 968 l 1,18,-1
EndSplineSet
Validated: 1
EndChar

StartChar: slash
Encoding: 47 47 20
Width: 543
GlyphClass: 2
Flags: W
LayerCount: 2
Fore
SplineSet
127 -260 m 1,0,-1
 66 -260 l 1,1,-1
 416 1245 l 1,2,-1
 479 1245 l 1,3,-1
 127 -260 l 1,0,-1
EndSplineSet
Validated: 1
EndChar

StartChar: zero
Encoding: 48 48 21
Width: 772
GlyphClass: 2
Flags: W
LayerCount: 2
Fore
SplineSet
717 520 m 0,0,1
 717 469 717 469 710 409.5 c 128,-1,2
 703 350 703 350 687 290.5 c 128,-1,3
 671 231 671 231 645.5 175 c 128,-1,4
 620 119 620 119 582.5 76.5 c 128,-1,5
 545 34 545 34 495 8 c 128,-1,6
 445 -18 445 -18 381 -18 c 0,7,8
 321 -18 321 -18 273 7.5 c 128,-1,9
 225 33 225 33 189 75 c 128,-1,10
 153 117 153 117 127.5 171.5 c 128,-1,11
 102 226 102 226 86 284.5 c 128,-1,12
 70 343 70 343 62.5 400.5 c 128,-1,13
 55 458 55 458 55 506 c 0,14,15
 55 555 55 555 62.5 614 c 128,-1,16
 70 673 70 673 86 732.5 c 128,-1,17
 102 792 102 792 128 848.5 c 128,-1,18
 154 905 154 905 191 948.5 c 128,-1,19
 228 992 228 992 277 1018 c 128,-1,20
 326 1044 326 1044 389 1044 c 0,21,22
 451 1044 451 1044 499.5 1018.5 c 128,-1,23
 548 993 548 993 584.5 951.5 c 128,-1,24
 621 910 621 910 646 855.5 c 128,-1,25
 671 801 671 801 687 742.5 c 128,-1,26
 703 684 703 684 710 626.5 c 128,-1,27
 717 569 717 569 717 520 c 0,0,1
569 545 m 0,28,29
 569 574 569 574 567.5 619 c 128,-1,30
 566 664 566 664 560 714 c 128,-1,31
 554 764 554 764 542.5 814 c 128,-1,32
 531 864 531 864 511 904.5 c 128,-1,33
 491 945 491 945 460.5 970 c 128,-1,34
 430 995 430 995 387 995 c 0,35,36
 343 995 343 995 312.5 965.5 c 128,-1,37
 282 936 282 936 261.5 889 c 128,-1,38
 241 842 241 842 229 784 c 128,-1,39
 217 726 217 726 211.5 669.5 c 128,-1,40
 206 613 206 613 204.5 564.5 c 128,-1,41
 203 516 203 516 203 487 c 256,42,43
 203 458 203 458 204.5 413 c 128,-1,44
 206 368 206 368 212 317.5 c 128,-1,45
 218 267 218 267 229.5 215.5 c 128,-1,46
 241 164 241 164 261.5 123 c 128,-1,47
 282 82 282 82 312 56.5 c 128,-1,48
 342 31 342 31 385 31 c 0,49,50
 430 31 430 31 461.5 60.5 c 128,-1,51
 493 90 493 90 513.5 136.5 c 128,-1,52
 534 183 534 183 545 241 c 128,-1,53
 556 299 556 299 561.5 356 c 128,-1,54
 567 413 567 413 568 463 c 128,-1,55
 569 513 569 513 569 545 c 0,28,29
EndSplineSet
Validated: 1
Substitution2: "Single Substitution lookup 47 subtable" zero.Small
Substitution2: "Single Substitution lookup 46 subtable" zero.Medium
EndChar

StartChar: one
Encoding: 49 49 22
Width: 772
GlyphClass: 2
Flags: W
LayerCount: 2
Fore
SplineSet
199 0 m 1,0,-1
 199 29 l 1,1,2
 248 29 248 29 275 35.5 c 128,-1,3
 302 42 302 42 314.5 59 c 128,-1,4
 327 76 327 76 329.5 105.5 c 128,-1,5
 332 135 332 135 332 180 c 2,6,-1
 332 756 l 2,7,8
 332 791 332 791 330.5 821 c 128,-1,9
 329 851 329 851 323 873.5 c 128,-1,10
 317 896 317 896 304.5 909 c 128,-1,11
 292 922 292 922 270 922 c 0,12,13
 250 922 250 922 230 914.5 c 128,-1,14
 210 907 210 907 193 899 c 1,15,-1
 180 922 l 1,16,-1
 430 1044 l 1,17,-1
 457 1044 l 1,18,-1
 457 180 l 2,19,20
 457 136 457 136 459 107 c 128,-1,21
 461 78 461 78 473 60.5 c 128,-1,22
 485 43 485 43 510.5 36 c 128,-1,23
 536 29 536 29 584 29 c 1,24,-1
 584 0 l 1,25,-1
 199 0 l 1,0,-1
EndSplineSet
Validated: 1
Substitution2: "Single Substitution lookup 47 subtable" one.Small
Substitution2: "Single Substitution lookup 46 subtable" one.Medium
EndChar

StartChar: two
Encoding: 50 50 23
Width: 772
GlyphClass: 2
Flags: W
LayerCount: 2
Fore
SplineSet
635 0 m 1,0,-1
 35 0 l 1,1,-1
 35 29 l 1,2,3
 82 72 82 72 136 123 c 128,-1,4
 190 174 190 174 243.5 229.5 c 128,-1,5
 297 285 297 285 346.5 344.5 c 128,-1,6
 396 404 396 404 433.5 464.5 c 128,-1,7
 471 525 471 525 493.5 585.5 c 128,-1,8
 516 646 516 646 516 705 c 0,9,10
 516 749 516 749 502 789.5 c 128,-1,11
 488 830 488 830 462 860.5 c 128,-1,12
 436 891 436 891 399 909.5 c 128,-1,13
 362 928 362 928 315 928 c 0,14,15
 227 928 227 928 172.5 882 c 128,-1,16
 118 836 118 836 90 756 c 1,17,-1
 63 756 l 1,18,19
 71 817 71 817 92.5 870 c 128,-1,20
 114 923 114 923 150 961.5 c 128,-1,21
 186 1000 186 1000 237 1022 c 128,-1,22
 288 1044 288 1044 354 1044 c 0,23,24
 412 1044 412 1044 464.5 1024.5 c 128,-1,25
 517 1005 517 1005 557 969.5 c 128,-1,26
 597 934 597 934 621 884.5 c 128,-1,27
 645 835 645 835 645 774 c 0,28,29
 645 717 645 717 625 660.5 c 128,-1,30
 605 604 605 604 573.5 550.5 c 128,-1,31
 542 497 542 497 503 449 c 128,-1,32
 464 401 464 401 427 361 c 0,33,34
 370 299 370 299 313 235.5 c 128,-1,35
 256 172 256 172 195 115 c 1,36,-1
 461 115 l 2,37,38
 504 115 504 115 536 117 c 128,-1,39
 568 119 568 119 593 127 c 128,-1,40
 618 135 618 135 639 151.5 c 128,-1,41
 660 168 660 168 680 197 c 1,42,-1
 709 197 l 1,43,-1
 635 0 l 1,0,-1
EndSplineSet
Validated: 1
Substitution2: "Single Substitution lookup 47 subtable" two.Small
Substitution2: "Single Substitution lookup 46 subtable" two.Medium
EndChar

StartChar: three
Encoding: 51 51 24
Width: 772
GlyphClass: 2
Flags: W
LayerCount: 2
Fore
SplineSet
645 338 m 0,0,1
 645 249 645 249 613 182.5 c 128,-1,2
 581 116 581 116 525.5 71.5 c 128,-1,3
 470 27 470 27 396.5 4.5 c 128,-1,4
 323 -18 323 -18 240 -18 c 0,5,6
 220 -18 220 -18 189.5 -16 c 128,-1,7
 159 -14 159 -14 131 -6 c 128,-1,8
 103 2 103 2 83 18 c 128,-1,9
 63 34 63 34 63 63 c 0,10,11
 63 86 63 86 82 101.5 c 128,-1,12
 101 117 101 117 123 117 c 0,13,14
 147 117 147 117 171.5 106 c 128,-1,15
 196 95 196 95 222.5 82 c 128,-1,16
 249 69 249 69 278 58 c 128,-1,17
 307 47 307 47 342 47 c 0,18,19
 382 47 382 47 417 63.5 c 128,-1,20
 452 80 452 80 477.5 107.5 c 128,-1,21
 503 135 503 135 517.5 171 c 128,-1,22
 532 207 532 207 532 246 c 0,23,24
 532 313 532 313 509 362 c 128,-1,25
 486 411 486 411 446 442.5 c 128,-1,26
 406 474 406 474 352 489.5 c 128,-1,27
 298 505 298 505 236 506 c 1,28,-1
 236 530 l 1,29,30
 282 536 282 536 323.5 555.5 c 128,-1,31
 365 575 365 575 397 606 c 128,-1,32
 429 637 429 637 448 678.5 c 128,-1,33
 467 720 467 720 467 768 c 0,34,35
 467 805 467 805 455 836.5 c 128,-1,36
 443 868 443 868 421 891 c 128,-1,37
 399 914 399 914 368 927 c 128,-1,38
 337 940 337 940 299 940 c 0,39,40
 234 940 234 940 186.5 904.5 c 128,-1,41
 139 869 139 869 104 815 c 1,42,-1
 78 827 l 1,43,44
 100 873 100 873 125 912.5 c 128,-1,45
 150 952 150 952 182 981.5 c 128,-1,46
 214 1011 214 1011 256 1027.5 c 128,-1,47
 298 1044 298 1044 354 1044 c 0,48,49
 400 1044 400 1044 443 1030.5 c 128,-1,50
 486 1017 486 1017 519 990.5 c 128,-1,51
 552 964 552 964 572 925.5 c 128,-1,52
 592 887 592 887 592 836 c 0,53,54
 592 801 592 801 579.5 769 c 128,-1,55
 567 737 567 737 547.5 708 c 128,-1,56
 528 679 528 679 503.5 653.5 c 128,-1,57
 479 628 479 628 455 606 c 1,58,59
 548 572 548 572 596.5 505 c 128,-1,60
 645 438 645 438 645 338 c 0,0,1
EndSplineSet
Validated: 1
Substitution2: "Single Substitution lookup 47 subtable" three.Small
Substitution2: "Single Substitution lookup 46 subtable" three.Medium
EndChar

StartChar: four
Encoding: 52 52 25
Width: 772
GlyphClass: 2
Flags: W
LayerCount: 2
Fore
SplineSet
582 270 m 1,0,-1
 582 0 l 1,1,-1
 457 0 l 1,2,-1
 457 270 l 1,3,-1
 25 270 l 1,4,-1
 25 365 l 1,5,-1
 500 1044 l 1,6,-1
 582 1044 l 1,7,-1
 582 377 l 1,8,-1
 717 377 l 1,9,-1
 717 270 l 1,10,-1
 582 270 l 1,0,-1
457 885 m 1,11,-1
 98 377 l 1,12,-1
 457 377 l 1,13,-1
 457 885 l 1,11,-1
EndSplineSet
Validated: 1
Substitution2: "Single Substitution lookup 47 subtable" four.Small
Substitution2: "Single Substitution lookup 46 subtable" four.Medium
EndChar

StartChar: five
Encoding: 53 53 26
Width: 772
GlyphClass: 2
Flags: W
LayerCount: 2
Fore
SplineSet
612 893 m 1,0,-1
 305 893 l 1,1,-1
 236 758 l 1,2,3
 313 750 313 750 388 719.5 c 128,-1,4
 463 689 463 689 522 639 c 128,-1,5
 581 589 581 589 617 521 c 128,-1,6
 653 453 653 453 653 369 c 0,7,8
 653 287 653 287 620 216 c 128,-1,9
 587 145 587 145 531.5 93 c 128,-1,10
 476 41 476 41 403 11.5 c 128,-1,11
 330 -18 330 -18 250 -18 c 0,12,13
 227 -18 227 -18 196.5 -14 c 128,-1,14
 166 -10 166 -10 139 0.5 c 128,-1,15
 112 11 112 11 93 30.5 c 128,-1,16
 74 50 74 50 74 82 c 0,17,18
 74 111 74 111 89.5 124 c 128,-1,19
 105 137 105 137 133 137 c 0,20,21
 156 137 156 137 178 125 c 128,-1,22
 200 113 200 113 223.5 98 c 128,-1,23
 247 83 247 83 274 71 c 128,-1,24
 301 59 301 59 334 59 c 0,25,26
 381 59 381 59 421.5 77.5 c 128,-1,27
 462 96 462 96 491.5 127.5 c 128,-1,28
 521 159 521 159 538 200.5 c 128,-1,29
 555 242 555 242 555 289 c 0,30,31
 555 378 555 378 513.5 440.5 c 128,-1,32
 472 503 472 503 407 543 c 128,-1,33
 342 583 342 583 263 602.5 c 128,-1,34
 184 622 184 622 109 625 c 1,35,-1
 305 1022 l 1,36,-1
 670 1022 l 1,37,-1
 612 893 l 1,0,-1
EndSplineSet
Validated: 1
Substitution2: "Single Substitution lookup 47 subtable" five.Small
Substitution2: "Single Substitution lookup 46 subtable" five.Medium
EndChar

StartChar: six
Encoding: 54 54 27
Width: 772
GlyphClass: 2
Flags: W
LayerCount: 2
Fore
SplineSet
713 344 m 0,0,1
 713 275 713 275 690 210 c 128,-1,2
 667 145 667 145 624 94 c 128,-1,3
 581 43 581 43 521 12.5 c 128,-1,4
 461 -18 461 -18 387 -18 c 0,5,6
 306 -18 306 -18 246 21 c 128,-1,7
 186 60 186 60 146.5 121 c 128,-1,8
 107 182 107 182 87.5 256 c 128,-1,9
 68 330 68 330 68 401 c 0,10,11
 68 479 68 479 88 557 c 128,-1,12
 108 635 108 635 145 706.5 c 128,-1,13
 182 778 182 778 234.5 839.5 c 128,-1,14
 287 901 287 901 351.5 946.5 c 128,-1,15
 416 992 416 992 491 1018 c 128,-1,16
 566 1044 566 1044 649 1044 c 2,17,-1
 692 1044 l 1,18,-1
 692 1016 l 1,19,20
 599 1010 599 1010 523.5 971.5 c 128,-1,21
 448 933 448 933 391 871.5 c 128,-1,22
 334 810 334 810 295 732 c 128,-1,23
 256 654 256 654 236 569 c 1,24,25
 285 603 285 603 340 624 c 128,-1,26
 395 645 395 645 455 645 c 0,27,28
 517 645 517 645 565 619.5 c 128,-1,29
 613 594 613 594 646 551.5 c 128,-1,30
 679 509 679 509 696 455 c 128,-1,31
 713 401 713 401 713 344 c 0,0,1
578 262 m 0,32,33
 578 308 578 308 569.5 363.5 c 128,-1,34
 561 419 561 419 539 467 c 128,-1,35
 517 515 517 515 478.5 547.5 c 128,-1,36
 440 580 440 580 381 580 c 0,37,38
 363 580 363 580 341.5 573.5 c 128,-1,39
 320 567 320 567 299 557.5 c 128,-1,40
 278 548 278 548 258 536.5 c 128,-1,41
 238 525 238 525 223 516 c 1,42,43
 218 474 218 474 213.5 433.5 c 128,-1,44
 209 393 209 393 209 352 c 0,45,46
 209 323 209 323 214 287.5 c 128,-1,47
 219 252 219 252 229 215.5 c 128,-1,48
 239 179 239 179 255 145 c 128,-1,49
 271 111 271 111 293 84 c 128,-1,50
 315 57 315 57 344 41 c 128,-1,51
 373 25 373 25 410 25 c 0,52,53
 456 25 456 25 488 48 c 128,-1,54
 520 71 520 71 540 106 c 128,-1,55
 560 141 560 141 569 182.5 c 128,-1,56
 578 224 578 224 578 262 c 0,32,33
EndSplineSet
Validated: 1
Substitution2: "Single Substitution lookup 47 subtable" six.Small
Substitution2: "Single Substitution lookup 46 subtable" six.Medium
EndChar

StartChar: seven
Encoding: 55 55 28
Width: 772
GlyphClass: 2
Flags: W
LayerCount: 2
Fore
SplineSet
360 -23 m 1,0,-1
 279 -23 l 1,1,-1
 584 899 l 1,2,-1
 303 899 l 2,3,4
 258 899 258 899 225.5 894 c 128,-1,5
 193 889 193 889 167.5 875 c 128,-1,6
 142 861 142 861 121 837 c 128,-1,7
 100 813 100 813 78 774 c 1,8,-1
 57 780 l 1,9,-1
 156 1022 l 1,10,-1
 700 1022 l 1,11,-1
 700 995 l 1,12,-1
 360 -23 l 1,0,-1
EndSplineSet
Validated: 1
Substitution2: "Single Substitution lookup 47 subtable" seven.Small
Substitution2: "Single Substitution lookup 46 subtable" seven.Medium
EndChar

StartChar: eight
Encoding: 56 56 29
Width: 772
GlyphClass: 2
Flags: W
LayerCount: 2
Fore
SplineSet
684 242 m 0,0,1
 684 177 684 177 660 128.5 c 128,-1,2
 636 80 636 80 595 47.5 c 128,-1,3
 554 15 554 15 500 -1.5 c 128,-1,4
 446 -18 446 -18 387 -18 c 0,5,6
 333 -18 333 -18 280 -1 c 128,-1,7
 227 16 227 16 185 48.5 c 128,-1,8
 143 81 143 81 117.5 127.5 c 128,-1,9
 92 174 92 174 92 233 c 0,10,11
 92 278 92 278 111.5 319 c 128,-1,12
 131 360 131 360 161 395.5 c 128,-1,13
 191 431 191 431 227 460.5 c 128,-1,14
 263 490 263 490 297 514 c 1,15,16
 254 550 254 550 218.5 582.5 c 128,-1,17
 183 615 183 615 157.5 648 c 128,-1,18
 132 681 132 681 118 718 c 128,-1,19
 104 755 104 755 104 801 c 0,20,21
 104 859 104 859 128 904.5 c 128,-1,22
 152 950 152 950 191.5 981 c 128,-1,23
 231 1012 231 1012 282 1028 c 128,-1,24
 333 1044 333 1044 387 1044 c 0,25,26
 435 1044 435 1044 484 1030.5 c 128,-1,27
 533 1017 533 1017 572.5 989 c 128,-1,28
 612 961 612 961 637 919.5 c 128,-1,29
 662 878 662 878 662 823 c 0,30,31
 662 778 662 778 641.5 740 c 128,-1,32
 621 702 621 702 590 670.5 c 128,-1,33
 559 639 559 639 522 613.5 c 128,-1,34
 485 588 485 588 451 567 c 1,35,36
 496 532 496 532 538 496 c 128,-1,37
 580 460 580 460 612.5 421 c 128,-1,38
 645 382 645 382 664.5 337.5 c 128,-1,39
 684 293 684 293 684 242 c 0,0,1
553 831 m 0,40,41
 553 999 553 999 387 999 c 0,42,43
 353 999 353 999 322 989.5 c 128,-1,44
 291 980 291 980 267 961 c 128,-1,45
 243 942 243 942 229 914.5 c 128,-1,46
 215 887 215 887 215 850 c 0,47,48
 215 811 215 811 232.5 777 c 128,-1,49
 250 743 250 743 278.5 712 c 128,-1,50
 307 681 307 681 343 652 c 128,-1,51
 379 623 379 623 416 596 c 1,52,53
 447 625 447 625 472.5 651 c 128,-1,54
 498 677 498 677 516 704 c 128,-1,55
 534 731 534 731 543.5 762 c 128,-1,56
 553 793 553 793 553 831 c 0,40,41
575 180 m 0,57,58
 575 222 575 222 557 259.5 c 128,-1,59
 539 297 539 297 506.5 334 c 128,-1,60
 474 371 474 371 429.5 408.5 c 128,-1,61
 385 446 385 446 332 487 c 1,62,63
 275 438 275 438 242 375.5 c 128,-1,64
 209 313 209 313 209 236 c 0,65,66
 209 193 209 193 221 154.5 c 128,-1,67
 233 116 233 116 256.5 87.5 c 128,-1,68
 280 59 280 59 315 42 c 128,-1,69
 350 25 350 25 397 25 c 0,70,71
 433 25 433 25 465 35 c 128,-1,72
 497 45 497 45 521.5 64.5 c 128,-1,73
 546 84 546 84 560.5 113 c 128,-1,74
 575 142 575 142 575 180 c 0,57,58
EndSplineSet
Validated: 1
Substitution2: "Single Substitution lookup 47 subtable" eight.Small
Substitution2: "Single Substitution lookup 46 subtable" eight.Medium
EndChar

StartChar: nine
Encoding: 57 57 30
Width: 772
GlyphClass: 2
Flags: W
LayerCount: 2
Fore
SplineSet
705 623 m 0,0,1
 705 545 705 545 685 467 c 128,-1,2
 665 389 665 389 628 317 c 128,-1,3
 591 245 591 245 538.5 183 c 128,-1,4
 486 121 486 121 422 75 c 128,-1,5
 358 29 358 29 282.5 3 c 128,-1,6
 207 -23 207 -23 125 -23 c 2,7,-1
 82 -23 l 1,8,-1
 82 6 l 1,9,10
 174 8 174 8 249 46.5 c 128,-1,11
 324 85 324 85 381 147.5 c 128,-1,12
 438 210 438 210 477 289 c 128,-1,13
 516 368 516 368 537 451 c 1,14,15
 489 419 489 419 434.5 396 c 128,-1,16
 380 373 380 373 322 373 c 0,17,18
 259 373 259 373 210.5 398.5 c 128,-1,19
 162 424 162 424 128.5 467 c 128,-1,20
 95 510 95 510 78 564.5 c 128,-1,21
 61 619 61 619 61 678 c 0,22,23
 61 745 61 745 83 811 c 128,-1,24
 105 877 105 877 146.5 928.5 c 128,-1,25
 188 980 188 980 247 1012 c 128,-1,26
 306 1044 306 1044 381 1044 c 0,27,28
 462 1044 462 1044 522.5 1004.5 c 128,-1,29
 583 965 583 965 623.5 904 c 128,-1,30
 664 843 664 843 684.5 768 c 128,-1,31
 705 693 705 693 705 623 c 0,0,1
563 662 m 0,32,33
 563 691 563 691 558.5 727 c 128,-1,34
 554 763 554 763 544.5 800 c 128,-1,35
 535 837 535 837 519.5 872 c 128,-1,36
 504 907 504 907 481.5 934.5 c 128,-1,37
 459 962 459 962 429.5 978.5 c 128,-1,38
 400 995 400 995 362 995 c 0,39,40
 315 995 315 995 283.5 971.5 c 128,-1,41
 252 948 252 948 233 913 c 128,-1,42
 214 878 214 878 205.5 835.5 c 128,-1,43
 197 793 197 793 197 756 c 0,44,45
 197 713 197 713 205 658 c 128,-1,46
 213 603 213 603 234 554.5 c 128,-1,47
 255 506 255 506 291 473 c 128,-1,48
 327 440 327 440 383 440 c 0,49,50
 399 440 399 440 423 445 c 128,-1,51
 447 450 447 450 472 459 c 128,-1,52
 497 468 497 468 518 480 c 128,-1,53
 539 492 539 492 549 506 c 1,54,55
 554 544 554 544 558.5 582.5 c 128,-1,56
 563 621 563 621 563 662 c 0,32,33
EndSplineSet
Validated: 1
Substitution2: "Single Substitution lookup 47 subtable" nine.Small
Substitution2: "Single Substitution lookup 46 subtable" nine.Medium
EndChar

StartChar: colon
Encoding: 58 58 31
Width: 641
GlyphClass: 2
Flags: W
LayerCount: 2
Fore
SplineSet
389 487 m 0,0,1
 389 469 389 469 382 453 c 128,-1,2
 375 437 375 437 363.5 425 c 128,-1,3
 352 413 352 413 336.5 406 c 128,-1,4
 321 399 321 399 303 399 c 0,5,6
 266 399 266 399 240.5 424.5 c 128,-1,7
 215 450 215 450 215 487 c 0,8,9
 215 525 215 525 240.5 550 c 128,-1,10
 266 575 266 575 303 575 c 0,11,12
 321 575 321 575 336.5 568.5 c 128,-1,13
 352 562 352 562 363.5 550 c 128,-1,14
 375 538 375 538 382 522 c 128,-1,15
 389 506 389 506 389 487 c 0,0,1
389 14 m 256,16,17
 389 -4 389 -4 382 -19.5 c 128,-1,18
 375 -35 375 -35 363.5 -46.5 c 128,-1,19
 352 -58 352 -58 336.5 -65 c 128,-1,20
 321 -72 321 -72 303 -72 c 256,21,22
 285 -72 285 -72 269 -65 c 128,-1,23
 253 -58 253 -58 241 -46.5 c 128,-1,24
 229 -35 229 -35 222 -19.5 c 128,-1,25
 215 -4 215 -4 215 14 c 0,26,27
 215 51 215 51 240.5 76.5 c 128,-1,28
 266 102 266 102 303 102 c 0,29,30
 321 102 321 102 336.5 95 c 128,-1,31
 352 88 352 88 363.5 76 c 128,-1,32
 375 64 375 64 382 48 c 128,-1,33
 389 32 389 32 389 14 c 256,16,17
EndSplineSet
Validated: 1
EndChar

StartChar: semicolon
Encoding: 59 59 32
Width: 430
GlyphClass: 2
Flags: W
LayerCount: 2
Fore
SplineSet
319 631 m 0,0,1
 319 613 319 613 312.5 598 c 128,-1,2
 306 583 306 583 295 571.5 c 128,-1,3
 284 560 284 560 269 553.5 c 128,-1,4
 254 547 254 547 237 547 c 0,5,6
 202 547 202 547 177.5 571.5 c 128,-1,7
 153 596 153 596 153 631 c 0,8,9
 153 667 153 667 177.5 691 c 128,-1,10
 202 715 202 715 237 715 c 0,11,12
 271 715 271 715 295 691 c 128,-1,13
 319 667 319 667 319 631 c 0,0,1
352 -8 m 0,14,15
 352 -182 352 -182 129 -258 c 1,16,-1
 129 -223 l 1,17,18
 160 -215 160 -215 189.5 -196.5 c 128,-1,19
 219 -178 219 -178 241.5 -152 c 128,-1,20
 264 -126 264 -126 277.5 -95 c 128,-1,21
 291 -64 291 -64 291 -31 c 0,22,23
 291 0 291 0 274 0 c 0,24,25
 268 0 268 0 261.5 -3.5 c 128,-1,26
 255 -7 255 -7 247 -11.5 c 128,-1,27
 239 -16 239 -16 229.5 -19.5 c 128,-1,28
 220 -23 220 -23 209 -23 c 0,29,30
 173 -23 173 -23 151 -2 c 128,-1,31
 129 19 129 19 129 61 c 0,32,33
 129 100 129 100 157.5 125 c 128,-1,34
 186 150 186 150 225 150 c 0,35,36
 256 150 256 150 279.5 136.5 c 128,-1,37
 303 123 303 123 319 100.5 c 128,-1,38
 335 78 335 78 343.5 50 c 128,-1,39
 352 22 352 22 352 -8 c 0,14,15
EndSplineSet
Validated: 1
EndChar

StartChar: less
Encoding: 60 60 33
Width: 1485
GlyphClass: 2
Flags: W
LayerCount: 2
Fore
SplineSet
297 399 m 1,0,-1
 297 492 l 1,1,-1
 1188 834 l 1,2,-1
 1188 741 l 1,3,-1
 391 446 l 1,4,-1
 1188 150 l 1,5,-1
 1188 57 l 1,6,-1
 297 399 l 1,0,-1
EndSplineSet
Validated: 1
EndChar

StartChar: equal
Encoding: 61 61 34
Width: 915
GlyphClass: 2
Flags: W
LayerCount: 2
Fore
SplineSet
37 502 m 1,0,-1
 37 565 l 1,1,-1
 872 565 l 1,2,-1
 872 502 l 1,3,-1
 37 502 l 1,0,-1
37 276 m 1,4,-1
 37 340 l 1,5,-1
 872 340 l 1,6,-1
 872 276 l 1,7,-1
 37 276 l 1,4,-1
EndSplineSet
Validated: 1
EndChar

StartChar: greater
Encoding: 62 62 35
Width: 1485
GlyphClass: 2
Flags: W
LayerCount: 2
Fore
SplineSet
297 57 m 1,0,-1
 297 150 l 1,1,-1
 1094 446 l 1,2,-1
 297 741 l 1,3,-1
 297 834 l 1,4,-1
 1188 492 l 1,5,-1
 1188 399 l 1,6,-1
 297 57 l 1,0,-1
EndSplineSet
Validated: 1
EndChar

StartChar: question
Encoding: 63 63 36
Width: 686
GlyphClass: 2
Flags: W
LayerCount: 2
Fore
SplineSet
625 807 m 0,0,1
 625 750 625 750 605 704.5 c 128,-1,2
 585 659 585 659 554.5 618 c 128,-1,3
 524 577 524 577 488 538 c 128,-1,4
 452 499 452 499 420.5 455 c 128,-1,5
 389 411 389 411 367 358.5 c 128,-1,6
 345 306 345 306 342 240 c 1,7,-1
 311 240 l 1,8,9
 314 331 314 331 340.5 412.5 c 128,-1,10
 367 494 367 494 413 572 c 0,11,12
 443 623 443 623 463 679 c 128,-1,13
 483 735 483 735 483 797 c 0,14,15
 483 837 483 837 472.5 874 c 128,-1,16
 462 911 462 911 440.5 940 c 128,-1,17
 419 969 419 969 386.5 986.5 c 128,-1,18
 354 1004 354 1004 309 1004 c 0,19,20
 288 1004 288 1004 263 998.5 c 128,-1,21
 238 993 238 993 216.5 981 c 128,-1,22
 195 969 195 969 180.5 950 c 128,-1,23
 166 931 166 931 166 905 c 0,24,25
 166 890 166 890 173.5 872 c 128,-1,26
 181 854 181 854 189.5 836.5 c 128,-1,27
 198 819 198 819 205.5 802.5 c 128,-1,28
 213 786 213 786 213 774 c 0,29,30
 213 749 213 749 196.5 730 c 128,-1,31
 180 711 180 711 154 711 c 0,32,33
 131 711 131 711 115.5 722.5 c 128,-1,34
 100 734 100 734 89.5 751.5 c 128,-1,35
 79 769 79 769 74.5 790 c 128,-1,36
 70 811 70 811 70 829 c 0,37,38
 70 885 70 885 94 925.5 c 128,-1,39
 118 966 118 966 156.5 992.5 c 128,-1,40
 195 1019 195 1019 243.5 1031.5 c 128,-1,41
 292 1044 292 1044 342 1044 c 0,42,43
 397 1044 397 1044 448 1030 c 128,-1,44
 499 1016 499 1016 538.5 987 c 128,-1,45
 578 958 578 958 601.5 913 c 128,-1,46
 625 868 625 868 625 807 c 0,0,1
416 63 m 0,47,48
 416 28 416 28 391.5 4 c 128,-1,49
 367 -20 367 -20 332 -20 c 256,50,51
 297 -20 297 -20 271.5 3 c 128,-1,52
 246 26 246 26 246 63 c 0,53,54
 246 81 246 81 253 97 c 128,-1,55
 260 113 260 113 272 124.5 c 128,-1,56
 284 136 284 136 299.5 143 c 128,-1,57
 315 150 315 150 332 150 c 0,58,59
 367 150 367 150 391.5 124.5 c 128,-1,60
 416 99 416 99 416 63 c 0,47,48
EndSplineSet
Validated: 1
EndChar

StartChar: at
Encoding: 64 64 37
Width: 1423
GlyphClass: 2
Flags: W
LayerCount: 2
Fore
SplineSet
1384 129 m 1,0,1
 1355 22 1355 22 1289 -63.5 c 128,-1,2
 1223 -149 1223 -149 1134.5 -209 c 128,-1,3
 1046 -269 1046 -269 941.5 -301.5 c 128,-1,4
 837 -334 837 -334 731 -334 c 0,5,6
 587 -334 587 -334 466.5 -282.5 c 128,-1,7
 346 -231 346 -231 259 -141 c 128,-1,8
 172 -51 172 -51 123 71.5 c 128,-1,9
 74 194 74 194 74 336 c 0,10,11
 74 489 74 489 127 622.5 c 128,-1,12
 180 756 180 756 274.5 856 c 128,-1,13
 369 956 369 956 499.5 1013.5 c 128,-1,14
 630 1071 630 1071 786 1071 c 0,15,16
 904 1071 904 1071 1003 1035.5 c 128,-1,17
 1102 1000 1102 1000 1173.5 933.5 c 128,-1,18
 1245 867 1245 867 1285 771.5 c 128,-1,19
 1325 676 1325 676 1325 555 c 0,20,21
 1325 494 1325 494 1313.5 431.5 c 128,-1,22
 1302 369 1302 369 1279 310 c 128,-1,23
 1256 251 1256 251 1221 199 c 128,-1,24
 1186 147 1186 147 1140 108.5 c 128,-1,25
 1094 70 1094 70 1036 47.5 c 128,-1,26
 978 25 978 25 909 25 c 0,27,28
 854 25 854 25 824.5 51 c 128,-1,29
 795 77 795 77 795 133 c 0,30,31
 795 159 795 159 798.5 185.5 c 128,-1,32
 802 212 802 212 807 238 c 1,33,34
 783 209 783 209 749 172.5 c 128,-1,35
 715 136 715 136 675 103 c 128,-1,36
 635 70 635 70 592.5 47.5 c 128,-1,37
 550 25 550 25 510 25 c 0,38,39
 475 25 475 25 449.5 40.5 c 128,-1,40
 424 56 424 56 407.5 81 c 128,-1,41
 391 106 391 106 383 136.5 c 128,-1,42
 375 167 375 167 375 197 c 0,43,44
 375 246 375 246 390.5 304.5 c 128,-1,45
 406 363 406 363 434 421.5 c 128,-1,46
 462 480 462 480 500.5 535.5 c 128,-1,47
 539 591 539 591 584.5 633.5 c 128,-1,48
 630 676 630 676 682 701.5 c 128,-1,49
 734 727 734 727 788 727 c 0,50,51
 897 727 897 727 920 623 c 1,52,-1
 942 705 l 1,53,-1
 1061 723 l 1,54,55
 1057 711 1057 711 1044 667.5 c 128,-1,56
 1031 624 1031 624 1013.5 564.5 c 128,-1,57
 996 505 996 505 976.5 437 c 128,-1,58
 957 369 957 369 940.5 307.5 c 128,-1,59
 924 246 924 246 913.5 198.5 c 128,-1,60
 903 151 903 151 903 133 c 0,61,62
 903 110 903 110 920.5 94 c 128,-1,63
 938 78 938 78 961 78 c 0,64,65
 993 78 993 78 1022 89 c 128,-1,66
 1051 100 1051 100 1076.5 118.5 c 128,-1,67
 1102 137 1102 137 1124 160.5 c 128,-1,68
 1146 184 1146 184 1165 208 c 0,69,70
 1225 286 1225 286 1251.5 379 c 128,-1,71
 1278 472 1278 472 1278 569 c 0,72,73
 1278 676 1278 676 1240.5 762 c 128,-1,74
 1203 848 1203 848 1137.5 908.5 c 128,-1,75
 1072 969 1072 969 983 1001.5 c 128,-1,76
 894 1034 894 1034 791 1034 c 0,77,78
 692 1034 692 1034 605 1006.5 c 128,-1,79
 518 979 518 979 446 930.5 c 128,-1,80
 374 882 374 882 317.5 814.5 c 128,-1,81
 261 747 261 747 222.5 667 c 128,-1,82
 184 587 184 587 163.5 497.5 c 128,-1,83
 143 408 143 408 143 315 c 0,84,85
 143 182 143 182 185.5 71.5 c 128,-1,86
 228 -39 228 -39 305.5 -118.5 c 128,-1,87
 383 -198 383 -198 492 -242.5 c 128,-1,88
 601 -287 601 -287 735 -287 c 0,89,90
 841 -287 841 -287 933.5 -257.5 c 128,-1,91
 1026 -228 1026 -228 1102.5 -174 c 128,-1,92
 1179 -120 1179 -120 1239 -43 c 128,-1,93
 1299 34 1299 34 1341 129 c 1,94,-1
 1384 129 l 1,0,1
891 569 m 0,95,96
 891 593 891 593 887 615 c 128,-1,97
 883 637 883 637 872.5 654.5 c 128,-1,98
 862 672 862 672 843.5 682 c 128,-1,99
 825 692 825 692 797 692 c 0,100,101
 760 692 760 692 722.5 666.5 c 128,-1,102
 685 641 685 641 651.5 599.5 c 128,-1,103
 618 558 618 558 589 506.5 c 128,-1,104
 560 455 560 455 539 402.5 c 128,-1,105
 518 350 518 350 506 302 c 128,-1,106
 494 254 494 254 494 221 c 0,107,108
 494 203 494 203 499.5 184 c 128,-1,109
 505 165 505 165 516 149.5 c 128,-1,110
 527 134 527 134 543 124.5 c 128,-1,111
 559 115 559 115 580 115 c 0,112,113
 622 115 622 115 661.5 138.5 c 128,-1,114
 701 162 701 162 735.5 200.5 c 128,-1,115
 770 239 770 239 798.5 288 c 128,-1,116
 827 337 827 337 847.5 387.5 c 128,-1,117
 868 438 868 438 879.5 485.5 c 128,-1,118
 891 533 891 533 891 569 c 0,95,96
EndSplineSet
Validated: 1
EndChar

StartChar: A
Encoding: 65 65 38
Width: 1110
GlyphClass: 2
Flags: W
LayerCount: 2
Fore
SplineSet
694 0 m 1,0,-1
 694 29 l 1,1,2
 711 29 711 29 729 31.5 c 128,-1,3
 747 34 747 34 762 41 c 128,-1,4
 777 48 777 48 787 60.5 c 128,-1,5
 797 73 797 73 797 94 c 0,6,7
 797 114 797 114 785 150 c 128,-1,8
 773 186 773 186 758 224 c 128,-1,9
 743 262 743 262 728 295 c 128,-1,10
 713 328 713 328 707 342 c 1,11,-1
 311 342 l 1,12,13
 307 334 307 334 298.5 315.5 c 128,-1,14
 290 297 290 297 279 273.5 c 128,-1,15
 268 250 268 250 257 224 c 128,-1,16
 246 198 246 198 236.5 173 c 128,-1,17
 227 148 227 148 221 127 c 128,-1,18
 215 106 215 106 215 94 c 0,19,20
 215 74 215 74 228 61.5 c 128,-1,21
 241 49 241 49 260 42 c 128,-1,22
 279 35 279 35 299 32.5 c 128,-1,23
 319 30 319 30 334 29 c 1,24,-1
 334 0 l 1,25,-1
 12 0 l 1,26,-1
 12 29 l 1,27,28
 48 31 48 31 73 45.5 c 128,-1,29
 98 60 98 60 117 83.5 c 128,-1,30
 136 107 136 107 150.5 137.5 c 128,-1,31
 165 168 165 168 180 203 c 2,32,-1
 541 1044 l 1,33,-1
 567 1044 l 1,34,-1
 922 197 l 2,35,36
 937 162 937 162 950.5 132.5 c 128,-1,37
 964 103 964 103 983 80.5 c 128,-1,38
 1002 58 1002 58 1029 44.5 c 128,-1,39
 1056 31 1056 31 1098 29 c 1,40,-1
 1098 0 l 1,41,-1
 694 0 l 1,0,-1
512 813 m 1,42,-1
 334 397 l 1,43,-1
 686 397 l 1,44,-1
 512 813 l 1,42,-1
EndSplineSet
Validated: 1
EndChar

StartChar: B
Encoding: 66 66 39
Width: 1004
GlyphClass: 2
Flags: W
LayerCount: 2
Fore
SplineSet
944 279 m 0,0,1
 944 219 944 219 925 174.5 c 128,-1,2
 906 130 906 130 873 99 c 128,-1,3
 840 68 840 68 796.5 48.5 c 128,-1,4
 753 29 753 29 704.5 18.5 c 128,-1,5
 656 8 656 8 605.5 4 c 128,-1,6
 555 0 555 0 508 0 c 2,7,-1
 27 0 l 1,8,-1
 27 29 l 1,9,10
 75 29 75 29 103.5 35.5 c 128,-1,11
 132 42 132 42 147 58.5 c 128,-1,12
 162 75 162 75 167 104.5 c 128,-1,13
 172 134 172 134 172 180 c 2,14,-1
 172 842 l 2,15,16
 172 890 172 890 168 919.5 c 128,-1,17
 164 949 164 949 149 966 c 128,-1,18
 134 983 134 983 105 989 c 128,-1,19
 76 995 76 995 27 995 c 1,20,-1
 27 1022 l 1,21,-1
 467 1022 l 2,22,23
 513 1022 513 1022 563.5 1018 c 128,-1,24
 614 1014 614 1014 662 1003.5 c 128,-1,25
 710 993 710 993 753 974 c 128,-1,26
 796 955 796 955 828.5 924.5 c 128,-1,27
 861 894 861 894 880 850.5 c 128,-1,28
 899 807 899 807 899 748 c 0,29,30
 899 705 899 705 884.5 669 c 128,-1,31
 870 633 870 633 845 604.5 c 128,-1,32
 820 576 820 576 786 555 c 128,-1,33
 752 534 752 534 713 522 c 1,34,35
 764 513 764 513 806 494.5 c 128,-1,36
 848 476 848 476 879 446.5 c 128,-1,37
 910 417 910 417 927 375.5 c 128,-1,38
 944 334 944 334 944 279 c 0,0,1
739 756 m 0,39,40
 739 816 739 816 713.5 857 c 128,-1,41
 688 898 688 898 647.5 923.5 c 128,-1,42
 607 949 607 949 556.5 960 c 128,-1,43
 506 971 506 971 455 971 c 0,44,45
 420 971 420 971 385.5 967.5 c 128,-1,46
 351 964 351 964 317 956 c 1,47,-1
 317 563 l 1,48,49
 353 555 353 555 389.5 554 c 128,-1,50
 426 553 426 553 461 553 c 0,51,52
 514 553 514 553 564 561.5 c 128,-1,53
 614 570 614 570 653 593 c 128,-1,54
 692 616 692 616 715.5 655 c 128,-1,55
 739 694 739 694 739 756 c 0,39,40
770 268 m 0,56,57
 770 334 770 334 741 378.5 c 128,-1,58
 712 423 712 423 666.5 450 c 128,-1,59
 621 477 621 477 564 488.5 c 128,-1,60
 507 500 507 500 451 500 c 0,61,62
 419 500 419 500 384.5 499.5 c 128,-1,63
 350 499 350 499 317 494 c 1,64,-1
 317 74 l 1,65,66
 361 64 361 64 404 58.5 c 128,-1,67
 447 53 447 53 492 53 c 0,68,69
 543 53 543 53 592.5 64.5 c 128,-1,70
 642 76 642 76 681.5 101.5 c 128,-1,71
 721 127 721 127 745.5 168 c 128,-1,72
 770 209 770 209 770 268 c 0,56,57
EndSplineSet
Validated: 1
EndChar

StartChar: C
Encoding: 67 67 40
Width: 1030
GlyphClass: 2
Flags: W
LayerCount: 2
Fore
SplineSet
975 240 m 1,0,1
 906 115 906 115 801.5 45 c 128,-1,2
 697 -25 697 -25 553 -25 c 0,3,4
 439 -25 439 -25 347 15 c 128,-1,5
 255 55 255 55 190 125 c 128,-1,6
 125 195 125 195 90 290 c 128,-1,7
 55 385 55 385 55 496 c 0,8,9
 55 610 55 610 92.5 709.5 c 128,-1,10
 130 809 130 809 198.5 883.5 c 128,-1,11
 267 958 267 958 362.5 1001 c 128,-1,12
 458 1044 458 1044 575 1044 c 0,13,14
 614 1044 614 1044 647.5 1038.5 c 128,-1,15
 681 1033 681 1033 712.5 1024 c 128,-1,16
 744 1015 744 1015 774.5 1002.5 c 128,-1,17
 805 990 805 990 840 975 c 1,18,19
 855 975 855 975 866 982 c 128,-1,20
 877 989 877 989 884 999 c 128,-1,21
 891 1009 891 1009 895.5 1021 c 128,-1,22
 900 1033 900 1033 903 1044 c 1,23,-1
 930 1044 l 1,24,-1
 952 698 l 1,25,-1
 930 698 l 1,26,27
 911 762 911 762 881.5 815.5 c 128,-1,28
 852 869 852 869 810.5 908 c 128,-1,29
 769 947 769 947 713.5 969 c 128,-1,30
 658 991 658 991 588 991 c 256,31,32
 518 991 518 991 464.5 970.5 c 128,-1,33
 411 950 411 950 370.5 914 c 128,-1,34
 330 878 330 878 302.5 830 c 128,-1,35
 275 782 275 782 258.5 726.5 c 128,-1,36
 242 671 242 671 234.5 611.5 c 128,-1,37
 227 552 227 552 227 494 c 0,38,39
 227 402 227 402 249 320.5 c 128,-1,40
 271 239 271 239 317.5 177 c 128,-1,41
 364 115 364 115 436.5 79 c 128,-1,42
 509 43 509 43 610 43 c 0,43,44
 674 43 674 43 722.5 58 c 128,-1,45
 771 73 771 73 810.5 100.5 c 128,-1,46
 850 128 850 128 883.5 167.5 c 128,-1,47
 917 207 917 207 952 256 c 1,48,-1
 975 240 l 1,0,1
EndSplineSet
Validated: 1
EndChar

StartChar: D
Encoding: 68 68 41
Width: 1114
GlyphClass: 2
Flags: W
LayerCount: 2
Fore
SplineSet
1055 516 m 0,0,1
 1055 386 1055 386 1011.5 289.5 c 128,-1,2
 968 193 968 193 891.5 128.5 c 128,-1,3
 815 64 815 64 710.5 32 c 128,-1,4
 606 0 606 0 483 0 c 2,5,-1
 27 0 l 1,6,-1
 27 29 l 1,7,8
 75 29 75 29 103.5 35 c 128,-1,9
 132 41 132 41 147 57.5 c 128,-1,10
 162 74 162 74 167 103.5 c 128,-1,11
 172 133 172 133 172 180 c 2,12,-1
 172 842 l 2,13,14
 172 890 172 890 168 920 c 128,-1,15
 164 950 164 950 149 966.5 c 128,-1,16
 134 983 134 983 105 989 c 128,-1,17
 76 995 76 995 27 995 c 1,18,-1
 27 1022 l 1,19,-1
 442 1022 l 2,20,21
 571 1022 571 1022 683 998 c 128,-1,22
 795 974 795 974 877.5 915.5 c 128,-1,23
 960 857 960 857 1007.5 760 c 128,-1,24
 1055 663 1055 663 1055 516 c 0,0,1
885 510 m 256,25,26
 885 604 885 604 858.5 687 c 128,-1,27
 832 770 832 770 779.5 832 c 128,-1,28
 727 894 727 894 650 929.5 c 128,-1,29
 573 965 573 965 473 965 c 0,30,31
 433 965 433 965 394.5 959 c 128,-1,32
 356 953 356 953 317 942 c 1,33,-1
 317 74 l 1,34,35
 356 64 356 64 396.5 57.5 c 128,-1,36
 437 51 437 51 477 51 c 0,37,38
 577 51 577 51 653 87.5 c 128,-1,39
 729 124 729 124 780.5 186.5 c 128,-1,40
 832 249 832 249 858.5 332.5 c 128,-1,41
 885 416 885 416 885 510 c 256,25,26
EndSplineSet
Validated: 1
EndChar

StartChar: E
Encoding: 69 69 42
Width: 942
GlyphClass: 2
Flags: W
LayerCount: 2
Fore
SplineSet
819 0 m 1,0,-1
 33 0 l 1,1,-1
 33 29 l 1,2,3
 81 29 81 29 109.5 35 c 128,-1,4
 138 41 138 41 153 57.5 c 128,-1,5
 168 74 168 74 173 103.5 c 128,-1,6
 178 133 178 133 178 180 c 2,7,-1
 178 846 l 2,8,9
 178 894 178 894 174 923 c 128,-1,10
 170 952 170 952 155 968 c 128,-1,11
 140 984 140 984 111 989.5 c 128,-1,12
 82 995 82 995 33 995 c 1,13,-1
 33 1022 l 1,14,-1
 819 1022 l 1,15,-1
 831 799 l 1,16,-1
 803 799 l 1,17,18
 790 848 790 848 778.5 880.5 c 128,-1,19
 767 913 767 913 747.5 932 c 128,-1,20
 728 951 728 951 694.5 959 c 128,-1,21
 661 967 661 967 604 967 c 2,22,-1
 322 967 l 1,23,-1
 322 563 l 1,24,-1
 547 563 l 2,25,26
 594 563 594 563 622.5 569.5 c 128,-1,27
 651 576 651 576 668.5 592.5 c 128,-1,28
 686 609 686 609 694.5 637.5 c 128,-1,29
 703 666 703 666 709 711 c 1,30,-1
 737 711 l 1,31,-1
 737 354 l 1,32,-1
 709 354 l 1,33,34
 703 399 703 399 694.5 428 c 128,-1,35
 686 457 686 457 669 474.5 c 128,-1,36
 652 492 652 492 623.5 499 c 128,-1,37
 595 506 595 506 547 506 c 2,38,-1
 322 506 l 1,39,-1
 322 170 l 2,40,41
 322 140 322 140 323.5 118.5 c 128,-1,42
 325 97 325 97 333.5 83 c 128,-1,43
 342 69 342 69 359 62 c 128,-1,44
 376 55 376 55 408 55 c 2,45,-1
 580 55 l 2,46,47
 647 55 647 55 690 66 c 128,-1,48
 733 77 733 77 764.5 101 c 128,-1,49
 796 125 796 125 821 163.5 c 128,-1,50
 846 202 846 202 877 256 c 1,51,-1
 909 256 l 1,52,-1
 819 0 l 1,0,-1
EndSplineSet
Validated: 1
EndChar

StartChar: F
Encoding: 70 70 43
Width: 858
GlyphClass: 2
Flags: W
LayerCount: 2
Fore
SplineSet
770 799 m 1,0,1
 755 849 755 849 737 881.5 c 128,-1,2
 719 914 719 914 693 933 c 128,-1,3
 667 952 667 952 630.5 959.5 c 128,-1,4
 594 967 594 967 543 967 c 2,5,-1
 315 967 l 1,6,-1
 315 565 l 1,7,-1
 502 565 l 2,8,9
 539 565 539 565 563 574 c 128,-1,10
 587 583 587 583 601.5 601 c 128,-1,11
 616 619 616 619 623 645 c 128,-1,12
 630 671 630 671 635 705 c 1,13,-1
 664 705 l 1,14,-1
 664 358 l 1,15,-1
 635 358 l 1,16,17
 635 431 635 431 606.5 466.5 c 128,-1,18
 578 502 578 502 502 502 c 2,19,-1
 315 502 l 1,20,-1
 315 180 l 2,21,22
 315 133 315 133 319.5 103.5 c 128,-1,23
 324 74 324 74 339.5 57.5 c 128,-1,24
 355 41 355 41 384.5 35 c 128,-1,25
 414 29 414 29 463 29 c 1,26,-1
 463 0 l 1,27,-1
 25 0 l 1,28,-1
 25 29 l 1,29,30
 74 29 74 29 103 35.5 c 128,-1,31
 132 42 132 42 147 58.5 c 128,-1,32
 162 75 162 75 166 104.5 c 128,-1,33
 170 134 170 134 170 180 c 2,34,-1
 170 842 l 2,35,36
 170 888 170 888 165.5 917.5 c 128,-1,37
 161 947 161 947 146 964.5 c 128,-1,38
 131 982 131 982 102 988.5 c 128,-1,39
 73 995 73 995 25 995 c 1,40,-1
 25 1022 l 1,41,-1
 786 1022 l 1,42,-1
 797 799 l 1,43,-1
 770 799 l 1,0,1
EndSplineSet
Validated: 1
EndChar

StartChar: G
Encoding: 71 71 44
Width: 1114
GlyphClass: 2
Flags: W
LayerCount: 2
Fore
SplineSet
1094 530 m 1,0,1
 1052 530 1052 530 1029 520 c 128,-1,2
 1006 510 1006 510 995 491 c 128,-1,3
 984 472 984 472 981.5 444 c 128,-1,4
 979 416 979 416 979 381 c 2,5,-1
 979 68 l 1,6,7
 897 20 897 20 805.5 -2.5 c 128,-1,8
 714 -25 714 -25 618 -25 c 0,9,10
 501 -25 501 -25 398 10 c 128,-1,11
 295 45 295 45 218.5 111.5 c 128,-1,12
 142 178 142 178 97.5 275 c 128,-1,13
 53 372 53 372 53 496 c 0,14,15
 53 610 53 610 94.5 710 c 128,-1,16
 136 810 136 810 209 884.5 c 128,-1,17
 282 959 282 959 381.5 1001.5 c 128,-1,18
 481 1044 481 1044 596 1044 c 0,19,20
 654 1044 654 1044 703.5 1034 c 128,-1,21
 753 1024 753 1024 790.5 1012.5 c 128,-1,22
 828 1001 828 1001 851.5 991 c 128,-1,23
 875 981 875 981 883 981 c 0,24,25
 893 981 893 981 900.5 988.5 c 128,-1,26
 908 996 908 996 912.5 1006 c 128,-1,27
 917 1016 917 1016 919 1026.5 c 128,-1,28
 921 1037 921 1037 922 1044 c 1,29,-1
 948 1044 l 1,30,-1
 975 723 l 1,31,-1
 948 723 l 1,32,33
 928 784 928 784 898 834 c 128,-1,34
 868 884 868 884 827 919.5 c 128,-1,35
 786 955 786 955 732 974 c 128,-1,36
 678 993 678 993 610 993 c 0,37,38
 510 993 510 993 438 954 c 128,-1,39
 366 915 366 915 319 850 c 128,-1,40
 272 785 272 785 249.5 701 c 128,-1,41
 227 617 227 617 227 528 c 256,42,43
 227 439 227 439 250.5 350 c 128,-1,44
 274 261 274 261 322.5 189.5 c 128,-1,45
 371 118 371 118 445 73.5 c 128,-1,46
 519 29 519 29 621 29 c 0,47,48
 676 29 676 29 729.5 42.5 c 128,-1,49
 783 56 783 56 831 84 c 1,50,-1
 831 381 l 2,51,52
 831 423 831 423 827 451 c 128,-1,53
 823 479 823 479 809 496 c 128,-1,54
 795 513 795 513 769 520.5 c 128,-1,55
 743 528 743 528 698 530 c 1,56,-1
 698 557 l 1,57,-1
 1094 557 l 1,58,-1
 1094 530 l 1,0,1
EndSplineSet
Validated: 1
EndChar

StartChar: H
Encoding: 72 72 45
Width: 1114
GlyphClass: 2
Flags: W
LayerCount: 2
Fore
SplineSet
645 0 m 1,0,-1
 645 29 l 1,1,2
 693 29 693 29 722.5 35.5 c 128,-1,3
 752 42 752 42 767.5 58.5 c 128,-1,4
 783 75 783 75 788 104.5 c 128,-1,5
 793 134 793 134 793 180 c 2,6,-1
 793 494 l 1,7,-1
 315 494 l 1,8,-1
 315 180 l 2,9,10
 315 133 315 133 320 103.5 c 128,-1,11
 325 74 325 74 341 57.5 c 128,-1,12
 357 41 357 41 386.5 35 c 128,-1,13
 416 29 416 29 465 29 c 1,14,-1
 465 0 l 1,15,-1
 27 0 l 1,16,-1
 27 29 l 1,17,18
 76 29 76 29 105 35 c 128,-1,19
 134 41 134 41 149 57.5 c 128,-1,20
 164 74 164 74 168 103.5 c 128,-1,21
 172 133 172 133 172 180 c 2,22,-1
 172 842 l 2,23,24
 172 889 172 889 167.5 918.5 c 128,-1,25
 163 948 163 948 148 965 c 128,-1,26
 133 982 133 982 104 988.5 c 128,-1,27
 75 995 75 995 27 995 c 1,28,-1
 27 1022 l 1,29,-1
 465 1022 l 1,30,-1
 465 995 l 1,31,32
 417 995 417 995 388 988.5 c 128,-1,33
 359 982 359 982 342.5 965 c 128,-1,34
 326 948 326 948 320.5 918.5 c 128,-1,35
 315 889 315 889 315 842 c 2,36,-1
 315 549 l 1,37,-1
 793 549 l 1,38,-1
 793 842 l 2,39,40
 793 889 793 889 788 918.5 c 128,-1,41
 783 948 783 948 767.5 965 c 128,-1,42
 752 982 752 982 722.5 988.5 c 128,-1,43
 693 995 693 995 645 995 c 1,44,-1
 645 1022 l 1,45,-1
 1083 1022 l 1,46,-1
 1083 995 l 1,47,48
 1038 995 1038 995 1010 989.5 c 128,-1,49
 982 984 982 984 966 969 c 128,-1,50
 950 954 950 954 944.5 926.5 c 128,-1,51
 939 899 939 899 939 854 c 2,52,-1
 939 170 l 2,53,54
 939 124 939 124 944.5 96 c 128,-1,55
 950 68 950 68 966 53 c 128,-1,56
 982 38 982 38 1010 33.5 c 128,-1,57
 1038 29 1038 29 1083 29 c 1,58,-1
 1083 0 l 1,59,-1
 645 0 l 1,0,-1
EndSplineSet
Validated: 1
EndChar

StartChar: I
Encoding: 73 73 46
Width: 514
GlyphClass: 2
Flags: W
LayerCount: 2
Fore
SplineSet
39 0 m 1,0,-1
 39 29 l 1,1,2
 88 29 88 29 117 35.5 c 128,-1,3
 146 42 146 42 161 58.5 c 128,-1,4
 176 75 176 75 180 104.5 c 128,-1,5
 184 134 184 134 184 180 c 2,6,-1
 184 842 l 2,7,8
 184 889 184 889 180 918.5 c 128,-1,9
 176 948 176 948 161 965 c 128,-1,10
 146 982 146 982 117 988.5 c 128,-1,11
 88 995 88 995 39 995 c 1,12,-1
 39 1022 l 1,13,-1
 477 1022 l 1,14,-1
 477 995 l 1,15,16
 429 995 429 995 400 988.5 c 128,-1,17
 371 982 371 982 355.5 965 c 128,-1,18
 340 948 340 948 335 918.5 c 128,-1,19
 330 889 330 889 330 842 c 2,20,-1
 330 180 l 2,21,22
 330 134 330 134 334.5 104.5 c 128,-1,23
 339 75 339 75 354 58.5 c 128,-1,24
 369 42 369 42 398 35.5 c 128,-1,25
 427 29 427 29 477 29 c 1,26,-1
 477 0 l 1,27,-1
 39 0 l 1,0,-1
EndSplineSet
Validated: 1
EndChar

StartChar: J
Encoding: 74 74 47
Width: 602
GlyphClass: 2
Flags: W
LayerCount: 2
Fore
SplineSet
592 995 m 1,0,1
 543 995 543 995 514 988.5 c 128,-1,2
 485 982 485 982 470 965 c 128,-1,3
 455 948 455 948 450.5 918.5 c 128,-1,4
 446 889 446 889 446 842 c 2,5,-1
 446 342 l 2,6,7
 446 278 446 278 434 213 c 128,-1,8
 422 148 422 148 392 95 c 128,-1,9
 362 42 362 42 311.5 8.5 c 128,-1,10
 261 -25 261 -25 184 -25 c 0,11,12
 158 -25 158 -25 131 -18.5 c 128,-1,13
 104 -12 104 -12 82.5 2.5 c 128,-1,14
 61 17 61 17 47 39 c 128,-1,15
 33 61 33 61 33 92 c 0,16,17
 33 170 33 170 109 170 c 0,18,19
 140 170 140 170 158 148.5 c 128,-1,20
 176 127 176 127 189 100.5 c 128,-1,21
 202 74 202 74 214 52.5 c 128,-1,22
 226 31 226 31 246 31 c 256,23,24
 266 31 266 31 277 43.5 c 128,-1,25
 288 56 288 56 293.5 73.5 c 128,-1,26
 299 91 299 91 300 110 c 128,-1,27
 301 129 301 129 301 143 c 2,28,-1
 301 842 l 2,29,30
 301 888 301 888 296.5 917.5 c 128,-1,31
 292 947 292 947 277 964.5 c 128,-1,32
 262 982 262 982 233 988.5 c 128,-1,33
 204 995 204 995 154 995 c 1,34,-1
 154 1022 l 1,35,-1
 592 1022 l 1,36,-1
 592 995 l 1,0,1
EndSplineSet
Validated: 1
EndChar

StartChar: K
Encoding: 75 75 48
Width: 1114
GlyphClass: 2
Flags: W
LayerCount: 2
Fore
SplineSet
641 0 m 1,0,-1
 641 29 l 1,1,2
 654 29 654 29 669 31 c 128,-1,3
 684 33 684 33 696.5 38.5 c 128,-1,4
 709 44 709 44 717 54 c 128,-1,5
 725 64 725 64 725 80 c 0,6,7
 725 88 725 88 718.5 99.5 c 128,-1,8
 712 111 712 111 702.5 122.5 c 128,-1,9
 693 134 693 134 683.5 144 c 128,-1,10
 674 154 674 154 668 160 c 2,11,-1
 360 467 l 1,12,-1
 315 422 l 1,13,-1
 315 180 l 2,14,15
 315 133 315 133 319.5 103.5 c 128,-1,16
 324 74 324 74 339.5 57.5 c 128,-1,17
 355 41 355 41 384 35 c 128,-1,18
 413 29 413 29 461 29 c 1,19,-1
 461 0 l 1,20,-1
 27 0 l 1,21,-1
 27 29 l 1,22,23
 76 29 76 29 104.5 35 c 128,-1,24
 133 41 133 41 147.5 57.5 c 128,-1,25
 162 74 162 74 166 103.5 c 128,-1,26
 170 133 170 133 170 180 c 2,27,-1
 170 842 l 2,28,29
 170 888 170 888 166 917.5 c 128,-1,30
 162 947 162 947 147.5 964.5 c 128,-1,31
 133 982 133 982 104.5 988.5 c 128,-1,32
 76 995 76 995 27 995 c 1,33,-1
 27 1022 l 1,34,-1
 461 1022 l 1,35,-1
 461 995 l 1,36,37
 414 995 414 995 385.5 988.5 c 128,-1,38
 357 982 357 982 341 965 c 128,-1,39
 325 948 325 948 320 918.5 c 128,-1,40
 315 889 315 889 315 842 c 2,41,-1
 315 520 l 1,42,43
 413 612 413 612 487.5 682.5 c 128,-1,44
 562 753 562 753 611.5 805 c 128,-1,45
 661 857 661 857 686 893 c 128,-1,46
 711 929 711 929 711 952 c 0,47,48
 711 967 711 967 703.5 975.5 c 128,-1,49
 696 984 696 984 683.5 988.5 c 128,-1,50
 671 993 671 993 654 994 c 128,-1,51
 637 995 637 995 618 995 c 1,52,-1
 618 1022 l 1,53,-1
 995 1022 l 1,54,-1
 995 995 l 1,55,56
 955 995 955 995 918.5 980 c 128,-1,57
 882 965 882 965 839.5 932.5 c 128,-1,58
 797 900 797 900 744 848.5 c 128,-1,59
 691 797 691 797 618 724 c 2,60,-1
 461 567 l 1,61,-1
 840 193 l 2,62,63
 873 160 873 160 904.5 132 c 128,-1,64
 936 104 936 104 969.5 82.5 c 128,-1,65
 1003 61 1003 61 1041.5 47 c 128,-1,66
 1080 33 1080 33 1128 29 c 1,67,-1
 1128 0 l 1,68,-1
 641 0 l 1,0,-1
EndSplineSet
Validated: 1
EndChar

StartChar: L
Encoding: 76 76 49
Width: 942
GlyphClass: 2
Flags: W
LayerCount: 2
Fore
SplineSet
823 0 m 1,0,-1
 29 0 l 1,1,-1
 29 29 l 1,2,3
 65 29 65 29 93 33.5 c 128,-1,4
 121 38 121 38 139.5 51.5 c 128,-1,5
 158 65 158 65 168 90 c 128,-1,6
 178 115 178 115 178 156 c 2,7,-1
 178 866 l 2,8,9
 178 906 178 906 168 931 c 128,-1,10
 158 956 158 956 139.5 969.5 c 128,-1,11
 121 983 121 983 93 988 c 128,-1,12
 65 993 65 993 29 993 c 1,13,-1
 29 1022 l 1,14,-1
 473 1022 l 1,15,-1
 473 993 l 1,16,17
 436 993 436 993 408 988 c 128,-1,18
 380 983 380 983 361 969.5 c 128,-1,19
 342 956 342 956 332 931 c 128,-1,20
 322 906 322 906 322 866 c 2,21,-1
 322 193 l 2,22,23
 322 155 322 155 328 130.5 c 128,-1,24
 334 106 334 106 348.5 91.5 c 128,-1,25
 363 77 363 77 388 71.5 c 128,-1,26
 413 66 413 66 451 66 c 2,27,-1
 553 66 l 2,28,29
 627 66 627 66 677 74.5 c 128,-1,30
 727 83 727 83 763.5 106.5 c 128,-1,31
 800 130 800 130 828 172.5 c 128,-1,32
 856 215 856 215 885 283 c 1,33,-1
 911 279 l 1,34,-1
 823 0 l 1,0,-1
EndSplineSet
Validated: 1
EndChar

StartChar: M
Encoding: 77 77 50
Width: 1374
GlyphClass: 2
Flags: W
LayerCount: 2
Fore
SplineSet
905 0 m 1,0,-1
 905 29 l 1,1,2
 953 29 953 29 981.5 35 c 128,-1,3
 1010 41 1010 41 1025.5 57.5 c 128,-1,4
 1041 74 1041 74 1046 103 c 128,-1,5
 1051 132 1051 132 1051 178 c 2,6,-1
 1051 860 l 1,7,-1
 655 0 l 1,8,-1
 631 0 l 1,9,-1
 236 860 l 1,10,-1
 236 178 l 2,11,12
 236 131 236 131 241 102 c 128,-1,13
 246 73 246 73 261 56.5 c 128,-1,14
 276 40 276 40 304.5 34.5 c 128,-1,15
 333 29 333 29 381 29 c 1,16,-1
 381 0 l 1,17,-1
 27 0 l 1,18,-1
 27 29 l 1,19,20
 75 29 75 29 103 35 c 128,-1,21
 131 41 131 41 146 57.5 c 128,-1,22
 161 74 161 74 165.5 103 c 128,-1,23
 170 132 170 132 170 178 c 2,24,-1
 170 846 l 2,25,26
 170 887 170 887 163.5 915.5 c 128,-1,27
 157 944 157 944 141 961.5 c 128,-1,28
 125 979 125 979 97.5 987 c 128,-1,29
 70 995 70 995 27 995 c 1,30,-1
 27 1022 l 1,31,-1
 315 1022 l 1,32,-1
 686 223 l 1,33,-1
 1051 1022 l 1,34,-1
 1341 1022 l 1,35,-1
 1341 995 l 1,36,37
 1293 995 1293 995 1264 989 c 128,-1,38
 1235 983 1235 983 1220 966.5 c 128,-1,39
 1205 950 1205 950 1200.5 921 c 128,-1,40
 1196 892 1196 892 1196 846 c 2,41,-1
 1196 178 l 2,42,43
 1196 131 1196 131 1201 102 c 128,-1,44
 1206 73 1206 73 1221 56.5 c 128,-1,45
 1236 40 1236 40 1264.5 34.5 c 128,-1,46
 1293 29 1293 29 1341 29 c 1,47,-1
 1341 0 l 1,48,-1
 905 0 l 1,0,-1
EndSplineSet
Validated: 1
EndChar

StartChar: N
Encoding: 78 78 51
Width: 1114
GlyphClass: 2
Flags: W
LayerCount: 2
Fore
SplineSet
1094 995 m 1,0,1
 1046 995 1046 995 1017 989 c 128,-1,2
 988 983 988 983 972.5 966.5 c 128,-1,3
 957 950 957 950 952.5 921 c 128,-1,4
 948 892 948 892 948 846 c 2,5,-1
 948 -16 l 1,6,-1
 922 -16 l 1,7,-1
 246 807 l 1,8,-1
 246 178 l 2,9,10
 246 130 246 130 250.5 101 c 128,-1,11
 255 72 255 72 270 56 c 128,-1,12
 285 40 285 40 314 34.5 c 128,-1,13
 343 29 343 29 391 29 c 1,14,-1
 391 0 l 1,15,-1
 35 0 l 1,16,-1
 35 29 l 1,17,18
 83 29 83 29 111.5 35 c 128,-1,19
 140 41 140 41 155 57.5 c 128,-1,20
 170 74 170 74 175 103 c 128,-1,21
 180 132 180 132 180 178 c 2,22,-1
 180 889 l 1,23,24
 161 915 161 915 144.5 934.5 c 128,-1,25
 128 954 128 954 109.5 967.5 c 128,-1,26
 91 981 91 981 66.5 988 c 128,-1,27
 42 995 42 995 8 995 c 1,28,-1
 8 1022 l 1,29,-1
 258 1022 l 1,30,-1
 883 256 l 1,31,-1
 883 846 l 2,32,33
 883 892 883 892 878 921 c 128,-1,34
 873 950 873 950 857.5 966.5 c 128,-1,35
 842 983 842 983 813.5 989 c 128,-1,36
 785 995 785 995 737 995 c 1,37,-1
 737 1022 l 1,38,-1
 1094 1022 l 1,39,-1
 1094 995 l 1,0,1
EndSplineSet
Validated: 1
EndChar

StartChar: O
Encoding: 79 79 52
Width: 1114
GlyphClass: 2
Flags: W
LayerCount: 2
Fore
SplineSet
1055 516 m 0,0,1
 1055 407 1055 407 1019 309 c 128,-1,2
 983 211 983 211 917.5 136.5 c 128,-1,3
 852 62 852 62 759.5 18.5 c 128,-1,4
 667 -25 667 -25 553 -25 c 256,5,6
 439 -25 439 -25 346.5 18 c 128,-1,7
 254 61 254 61 188.5 134.5 c 128,-1,8
 123 208 123 208 88 306 c 128,-1,9
 53 404 53 404 53 514 c 0,10,11
 53 625 53 625 90.5 721.5 c 128,-1,12
 128 818 128 818 196 889.5 c 128,-1,13
 264 961 264 961 358 1002.5 c 128,-1,14
 452 1044 452 1044 565 1044 c 0,15,16
 676 1044 676 1044 766 1001.5 c 128,-1,17
 856 959 856 959 920.5 886.5 c 128,-1,18
 985 814 985 814 1020 718 c 128,-1,19
 1055 622 1055 622 1055 516 c 0,0,1
883 506 m 0,20,21
 883 562 883 562 877.5 620 c 128,-1,22
 872 678 872 678 858 732 c 128,-1,23
 844 786 844 786 820 833 c 128,-1,24
 796 880 796 880 759 915 c 128,-1,25
 722 950 722 950 670 970.5 c 128,-1,26
 618 991 618 991 549 991 c 0,27,28
 485 991 485 991 436.5 970.5 c 128,-1,29
 388 950 388 950 352 915 c 128,-1,30
 316 880 316 880 292 833 c 128,-1,31
 268 786 268 786 253.5 733.5 c 128,-1,32
 239 681 239 681 233 625.5 c 128,-1,33
 227 570 227 570 227 518 c 0,34,35
 227 467 227 467 233 411 c 128,-1,36
 239 355 239 355 254 301 c 128,-1,37
 269 247 269 247 293 198 c 128,-1,38
 317 149 317 149 353 112 c 128,-1,39
 389 75 389 75 438 53 c 128,-1,40
 487 31 487 31 551 31 c 0,41,42
 618 31 618 31 668.5 51 c 128,-1,43
 719 71 719 71 756 105.5 c 128,-1,44
 793 140 793 140 817.5 186.5 c 128,-1,45
 842 233 842 233 856.5 285.5 c 128,-1,46
 871 338 871 338 877 394.5 c 128,-1,47
 883 451 883 451 883 506 c 0,20,21
EndSplineSet
Validated: 1
MultipleSubs2: "Multiple Substitution lookup 39 subtable" O p e n T y p e
Ligature2: "Ligature Substitution lookup 38 subtable" U n k n o w n
EndChar

StartChar: P
Encoding: 80 80 53
Width: 860
GlyphClass: 2
Flags: W
LayerCount: 2
Fore
SplineSet
805 739 m 0,0,1
 805 656 805 656 776.5 601.5 c 128,-1,2
 748 547 748 547 699 515 c 128,-1,3
 650 483 650 483 584.5 470 c 128,-1,4
 519 457 519 457 446 457 c 0,5,6
 414 457 414 457 381.5 459 c 128,-1,7
 349 461 349 461 315 465 c 1,8,-1
 315 180 l 2,9,10
 315 133 315 133 320.5 103.5 c 128,-1,11
 326 74 326 74 341.5 57.5 c 128,-1,12
 357 41 357 41 386 35 c 128,-1,13
 415 29 415 29 463 29 c 1,14,-1
 463 0 l 1,15,-1
 27 0 l 1,16,-1
 27 29 l 1,17,18
 75 29 75 29 103.5 35 c 128,-1,19
 132 41 132 41 147 57.5 c 128,-1,20
 162 74 162 74 166 103.5 c 128,-1,21
 170 133 170 133 170 180 c 2,22,-1
 170 842 l 2,23,24
 170 890 170 890 166 919.5 c 128,-1,25
 162 949 162 949 147.5 966 c 128,-1,26
 133 983 133 983 104.5 989 c 128,-1,27
 76 995 76 995 27 995 c 1,28,-1
 27 1022 l 1,29,-1
 399 1022 l 2,30,31
 468 1022 468 1022 540.5 1010 c 128,-1,32
 613 998 613 998 671.5 966.5 c 128,-1,33
 730 935 730 935 767.5 880 c 128,-1,34
 805 825 805 825 805 739 c 0,0,1
633 725 m 0,35,36
 633 774 633 774 618.5 817.5 c 128,-1,37
 604 861 604 861 576.5 893 c 128,-1,38
 549 925 549 925 508.5 944 c 128,-1,39
 468 963 468 963 416 963 c 0,40,41
 391 963 391 963 365.5 958 c 128,-1,42
 340 953 340 953 315 948 c 1,43,-1
 315 516 l 1,44,45
 346 511 346 511 377 508.5 c 128,-1,46
 408 506 408 506 440 506 c 0,47,48
 485 506 485 506 520.5 524.5 c 128,-1,49
 556 543 556 543 581 573.5 c 128,-1,50
 606 604 606 604 619.5 643.5 c 128,-1,51
 633 683 633 683 633 725 c 0,35,36
EndSplineSet
Validated: 1
EndChar

StartChar: Q
Encoding: 81 81 54
Width: 1114
GlyphClass: 2
Flags: W
LayerCount: 2
Fore
SplineSet
1055 510 m 0,0,1
 1055 419 1055 419 1029 336.5 c 128,-1,2
 1003 254 1003 254 954.5 186 c 128,-1,3
 906 118 906 118 836.5 67.5 c 128,-1,4
 767 17 767 17 680 -10 c 1,5,6
 711 -63 711 -63 749 -109.5 c 128,-1,7
 787 -156 787 -156 832.5 -192 c 128,-1,8
 878 -228 878 -228 932.5 -250.5 c 128,-1,9
 987 -273 987 -273 1051 -279 c 1,10,-1
 1051 -303 l 1,11,12
 968 -299 968 -299 880 -275.5 c 128,-1,13
 792 -252 792 -252 708 -213.5 c 128,-1,14
 624 -175 624 -175 549.5 -123 c 128,-1,15
 475 -71 475 -71 420 -10 c 1,16,17
 234 55 234 55 143.5 185.5 c 128,-1,18
 53 316 53 316 53 512 c 0,19,20
 53 623 53 623 90 720 c 128,-1,21
 127 817 127 817 194.5 889 c 128,-1,22
 262 961 262 961 355.5 1002.5 c 128,-1,23
 449 1044 449 1044 563 1044 c 0,24,25
 675 1044 675 1044 766 1001 c 128,-1,26
 857 958 857 958 921 884.5 c 128,-1,27
 985 811 985 811 1020 714.5 c 128,-1,28
 1055 618 1055 618 1055 510 c 0,0,1
883 492 m 0,29,30
 883 546 883 546 877 603.5 c 128,-1,31
 871 661 871 661 856.5 716.5 c 128,-1,32
 842 772 842 772 817.5 821.5 c 128,-1,33
 793 871 793 871 756.5 908 c 128,-1,34
 720 945 720 945 669.5 967 c 128,-1,35
 619 989 619 989 553 989 c 256,36,37
 487 989 487 989 437.5 968.5 c 128,-1,38
 388 948 388 948 352 912.5 c 128,-1,39
 316 877 316 877 292 830 c 128,-1,40
 268 783 268 783 253.5 730 c 128,-1,41
 239 677 239 677 233 621 c 128,-1,42
 227 565 227 565 227 512 c 0,43,44
 227 460 227 460 233 404 c 128,-1,45
 239 348 239 348 254 294.5 c 128,-1,46
 269 241 269 241 293.5 193 c 128,-1,47
 318 145 318 145 354 108.5 c 128,-1,48
 390 72 390 72 439 50.5 c 128,-1,49
 488 29 488 29 553 29 c 0,50,51
 650 29 650 29 714 71 c 128,-1,52
 778 113 778 113 815.5 179.5 c 128,-1,53
 853 246 853 246 868 328.5 c 128,-1,54
 883 411 883 411 883 492 c 0,29,30
EndSplineSet
Validated: 1
EndChar

StartChar: R
Encoding: 82 82 55
Width: 1030
GlyphClass: 2
Flags: W
LayerCount: 2
Fore
SplineSet
770 0 m 1,0,-1
 424 477 l 1,1,2
 395 474 395 474 364 474 c 0,3,4
 351 474 351 474 339 474.5 c 128,-1,5
 327 475 327 475 315 476 c 1,6,-1
 315 180 l 2,7,8
 315 133 315 133 320.5 103.5 c 128,-1,9
 326 74 326 74 342 57.5 c 128,-1,10
 358 41 358 41 387.5 35 c 128,-1,11
 417 29 417 29 465 29 c 1,12,-1
 465 0 l 1,13,-1
 27 0 l 1,14,-1
 27 29 l 1,15,16
 76 29 76 29 105 35 c 128,-1,17
 134 41 134 41 149 57.5 c 128,-1,18
 164 74 164 74 168 103.5 c 128,-1,19
 172 133 172 133 172 180 c 2,20,-1
 172 842 l 2,21,22
 172 890 172 890 168 919.5 c 128,-1,23
 164 949 164 949 149 966 c 128,-1,24
 134 983 134 983 105 989 c 128,-1,25
 76 995 76 995 27 995 c 1,26,-1
 27 1022 l 1,27,-1
 412 1022 l 2,28,29
 456 1022 456 1022 504 1019 c 128,-1,30
 552 1016 552 1016 597.5 1006 c 128,-1,31
 643 996 643 996 684 978.5 c 128,-1,32
 725 961 725 961 756 931.5 c 128,-1,33
 787 902 787 902 805 860 c 128,-1,34
 823 818 823 818 823 760 c 0,35,36
 823 701 823 701 804 657 c 128,-1,37
 785 613 785 613 751.5 581.5 c 128,-1,38
 718 550 718 550 672 529.5 c 128,-1,39
 626 509 626 509 573 498 c 1,40,-1
 782 203 l 2,41,42
 810 164 810 164 836 134 c 128,-1,43
 862 104 862 104 892 82 c 128,-1,44
 922 60 922 60 958.5 46.5 c 128,-1,45
 995 33 995 33 1044 29 c 1,46,-1
 1044 0 l 1,47,-1
 770 0 l 1,0,-1
655 748 m 0,48,49
 655 797 655 797 639 837 c 128,-1,50
 623 877 623 877 593.5 905.5 c 128,-1,51
 564 934 564 934 523.5 949.5 c 128,-1,52
 483 965 483 965 434 965 c 0,53,54
 405 965 405 965 375.5 961 c 128,-1,55
 346 957 346 957 315 952 c 1,56,-1
 315 528 l 1,57,58
 322 527 322 527 333.5 526.5 c 128,-1,59
 345 526 345 526 358 526 c 0,60,61
 413 526 413 526 466 537 c 128,-1,62
 519 548 519 548 561 573.5 c 128,-1,63
 603 599 603 599 629 641.5 c 128,-1,64
 655 684 655 684 655 748 c 0,48,49
EndSplineSet
Validated: 1
EndChar

StartChar: S
Encoding: 83 83 56
Width: 858
GlyphClass: 2
Flags: W
LayerCount: 2
Fore
SplineSet
776 262 m 0,0,1
 776 195 776 195 749 142 c 128,-1,2
 722 89 722 89 677.5 52 c 128,-1,3
 633 15 633 15 575 -5 c 128,-1,4
 517 -25 517 -25 455 -25 c 0,5,6
 414 -25 414 -25 373 -15.5 c 128,-1,7
 332 -6 332 -6 295.5 5 c 128,-1,8
 259 16 259 16 229 25.5 c 128,-1,9
 199 35 199 35 180 35 c 0,10,11
 168 35 168 35 159.5 29.5 c 128,-1,12
 151 24 151 24 145.5 15 c 128,-1,13
 140 6 140 6 137 -4.5 c 128,-1,14
 134 -15 134 -15 133 -25 c 1,15,-1
 106 -25 l 1,16,-1
 106 328 l 1,17,-1
 133 328 l 1,18,19
 141 263 141 263 164 209 c 128,-1,20
 187 155 187 155 225 116.5 c 128,-1,21
 263 78 263 78 316.5 56.5 c 128,-1,22
 370 35 370 35 438 35 c 0,23,24
 475 35 475 35 511.5 45.5 c 128,-1,25
 548 56 548 56 576.5 77 c 128,-1,26
 605 98 605 98 623 129.5 c 128,-1,27
 641 161 641 161 641 203 c 0,28,29
 641 247 641 247 617.5 282.5 c 128,-1,30
 594 318 594 318 556 348.5 c 128,-1,31
 518 379 518 379 469 406.5 c 128,-1,32
 420 434 420 434 369.5 462 c 128,-1,33
 319 490 319 490 270 521 c 128,-1,34
 221 552 221 552 183 589.5 c 128,-1,35
 145 627 145 627 121.5 672.5 c 128,-1,36
 98 718 98 718 98 776 c 0,37,38
 98 839 98 839 122.5 888.5 c 128,-1,39
 147 938 147 938 188 972.5 c 128,-1,40
 229 1007 229 1007 282.5 1025.5 c 128,-1,41
 336 1044 336 1044 395 1044 c 0,42,43
 429 1044 429 1044 464 1035 c 128,-1,44
 499 1026 499 1026 530.5 1015.5 c 128,-1,45
 562 1005 562 1005 588 996 c 128,-1,46
 614 987 614 987 631 987 c 0,47,48
 643 987 643 987 651 993 c 128,-1,49
 659 999 659 999 665 1007.5 c 128,-1,50
 671 1016 671 1016 674.5 1026 c 128,-1,51
 678 1036 678 1036 680 1044 c 1,52,-1
 709 1044 l 1,53,-1
 709 692 l 1,54,-1
 680 692 l 1,55,56
 675 752 675 752 654 805.5 c 128,-1,57
 633 859 633 859 597.5 898.5 c 128,-1,58
 562 938 562 938 511.5 961.5 c 128,-1,59
 461 985 461 985 397 985 c 0,60,61
 363 985 363 985 331 974 c 128,-1,62
 299 963 299 963 273.5 942.5 c 128,-1,63
 248 922 248 922 232.5 893.5 c 128,-1,64
 217 865 217 865 217 829 c 0,65,66
 217 787 217 787 241 753 c 128,-1,67
 265 719 265 719 304.5 690 c 128,-1,68
 344 661 344 661 394 634.5 c 128,-1,69
 444 608 444 608 496.5 580.5 c 128,-1,70
 549 553 549 553 599 522 c 128,-1,71
 649 491 649 491 688.5 453 c 128,-1,72
 728 415 728 415 752 368.5 c 128,-1,73
 776 322 776 322 776 262 c 0,0,1
EndSplineSet
Validated: 1
EndChar

StartChar: T
Encoding: 84 84 57
Width: 940
GlyphClass: 2
Flags: W
LayerCount: 2
Fore
SplineSet
872 782 m 1,0,1
 863 869 863 869 819 913.5 c 128,-1,2
 775 958 775 958 684 958 c 2,3,-1
 541 958 l 1,4,-1
 541 178 l 2,5,6
 541 131 541 131 545 102 c 128,-1,7
 549 73 549 73 564 56.5 c 128,-1,8
 579 40 579 40 607.5 34.5 c 128,-1,9
 636 29 636 29 684 29 c 1,10,-1
 684 0 l 1,11,-1
 252 0 l 1,12,-1
 252 29 l 1,13,14
 300 29 300 29 328 35 c 128,-1,15
 356 41 356 41 371 57.5 c 128,-1,16
 386 74 386 74 390.5 103 c 128,-1,17
 395 132 395 132 395 178 c 2,18,-1
 395 958 l 1,19,-1
 272 958 l 2,20,21
 224 958 224 958 188 949.5 c 128,-1,22
 152 941 152 941 127.5 921 c 128,-1,23
 103 901 103 901 89.5 867 c 128,-1,24
 76 833 76 833 72 782 c 1,25,-1
 37 782 l 1,26,-1
 47 1022 l 1,27,-1
 895 1022 l 1,28,-1
 905 782 l 1,29,-1
 872 782 l 1,0,1
EndSplineSet
Validated: 1
EndChar

StartChar: U
Encoding: 85 85 58
Width: 1114
GlyphClass: 2
Flags: W
LayerCount: 2
Fore
SplineSet
1100 995 m 1,0,1
 1054 995 1054 995 1025 986.5 c 128,-1,2
 996 978 996 978 980 959.5 c 128,-1,3
 964 941 964 941 958 910.5 c 128,-1,4
 952 880 952 880 952 836 c 2,5,-1
 952 420 l 2,6,7
 952 315 952 315 932.5 232.5 c 128,-1,8
 913 150 913 150 867.5 93 c 128,-1,9
 822 36 822 36 746 5.5 c 128,-1,10
 670 -25 670 -25 557 -25 c 0,11,12
 432 -25 432 -25 353.5 6 c 128,-1,13
 275 37 275 37 231 96.5 c 128,-1,14
 187 156 187 156 171.5 242.5 c 128,-1,15
 156 329 156 329 156 440 c 2,16,-1
 156 842 l 2,17,18
 156 884 156 884 152 913 c 128,-1,19
 148 942 148 942 134.5 960.5 c 128,-1,20
 121 979 121 979 94.5 987 c 128,-1,21
 68 995 68 995 23 995 c 1,22,-1
 23 1022 l 1,23,-1
 434 1022 l 1,24,-1
 434 995 l 1,25,26
 390 995 390 995 364 987 c 128,-1,27
 338 979 338 979 324 960.5 c 128,-1,28
 310 942 310 942 305.5 913 c 128,-1,29
 301 884 301 884 301 842 c 2,30,-1
 301 395 l 2,31,32
 301 324 301 324 310.5 259.5 c 128,-1,33
 320 195 320 195 348.5 146.5 c 128,-1,34
 377 98 377 98 429.5 69.5 c 128,-1,35
 482 41 482 41 567 41 c 0,36,37
 636 41 636 41 699 63 c 128,-1,38
 762 85 762 85 813 133 c 0,39,40
 838 156 838 156 852 193.5 c 128,-1,41
 866 231 866 231 873 272.5 c 128,-1,42
 880 314 880 314 881.5 355 c 128,-1,43
 883 396 883 396 883 428 c 2,44,-1
 883 842 l 2,45,46
 883 890 883 890 878.5 919.5 c 128,-1,47
 874 949 874 949 858.5 966 c 128,-1,48
 843 983 843 983 814 989 c 128,-1,49
 785 995 785 995 737 995 c 1,50,-1
 737 1022 l 1,51,-1
 1100 1022 l 1,52,-1
 1100 995 l 1,0,1
EndSplineSet
Validated: 1
EndChar

StartChar: V
Encoding: 86 86 59
Width: 1114
GlyphClass: 2
Flags: W
LayerCount: 2
Fore
SplineSet
1096 995 m 1,0,1
 1064 990 1064 990 1040 977 c 128,-1,2
 1016 964 1016 964 998 945 c 128,-1,3
 980 926 980 926 967 901.5 c 128,-1,4
 954 877 954 877 942 848 c 2,5,-1
 586 -25 l 1,6,-1
 559 -25 l 1,7,-1
 176 858 l 2,8,9
 162 890 162 890 149 914 c 128,-1,10
 136 938 136 938 118.5 955 c 128,-1,11
 101 972 101 972 76 981.5 c 128,-1,12
 51 991 51 991 14 995 c 1,13,-1
 14 1022 l 1,14,-1
 430 1022 l 1,15,-1
 430 995 l 1,16,17
 414 994 414 994 394.5 991 c 128,-1,18
 375 988 375 988 357.5 980.5 c 128,-1,19
 340 973 340 973 328.5 959.5 c 128,-1,20
 317 946 317 946 317 924 c 0,21,22
 317 896 317 896 327 869 c 128,-1,23
 337 842 337 842 352 807 c 2,24,-1
 612 209 l 1,25,-1
 854 803 l 2,26,27
 858 813 858 813 864.5 828.5 c 128,-1,28
 871 844 871 844 876 860.5 c 128,-1,29
 881 877 881 877 885 892.5 c 128,-1,30
 889 908 889 908 889 920 c 0,31,32
 889 940 889 940 877.5 953 c 128,-1,33
 866 966 866 966 849.5 974.5 c 128,-1,34
 833 983 833 983 814 987.5 c 128,-1,35
 795 992 795 992 780 995 c 1,36,-1
 780 1022 l 1,37,-1
 1096 1022 l 1,38,-1
 1096 995 l 1,0,1
EndSplineSet
Validated: 1
EndChar

StartChar: W
Encoding: 87 87 60
Width: 1458
GlyphClass: 2
Flags: W
LayerCount: 2
Fore
SplineSet
1444 995 m 1,0,1
 1415 995 1415 995 1393.5 985.5 c 128,-1,2
 1372 976 1372 976 1355.5 958.5 c 128,-1,3
 1339 941 1339 941 1326 916 c 128,-1,4
 1313 891 1313 891 1303 860 c 2,5,-1
 1001 -25 l 1,6,-1
 969 -25 l 1,7,-1
 737 629 l 1,8,-1
 506 -25 l 1,9,-1
 477 -25 l 1,10,-1
 176 825 l 2,11,12
 164 858 164 858 154 889 c 128,-1,13
 144 920 144 920 128 943.5 c 128,-1,14
 112 967 112 967 87 981 c 128,-1,15
 62 995 62 995 20 995 c 1,16,-1
 20 1022 l 1,17,-1
 397 1022 l 1,18,-1
 397 995 l 1,19,20
 382 995 382 995 364.5 993 c 128,-1,21
 347 991 347 991 332.5 985 c 128,-1,22
 318 979 318 979 308.5 967 c 128,-1,23
 299 955 299 955 299 934 c 0,24,25
 299 922 299 922 302.5 906 c 128,-1,26
 306 890 306 890 311.5 873 c 128,-1,27
 317 856 317 856 322.5 840 c 128,-1,28
 328 824 328 824 332 813 c 2,29,-1
 532 238 l 1,30,-1
 702 727 l 1,31,32
 689 775 689 775 672.5 823 c 128,-1,33
 656 871 656 871 633.5 909 c 128,-1,34
 611 947 611 947 580 971 c 128,-1,35
 549 995 549 995 506 995 c 1,36,-1
 506 1022 l 1,37,-1
 905 1022 l 1,38,-1
 905 995 l 1,39,40
 886 995 886 995 866.5 994 c 128,-1,41
 847 993 847 993 831.5 986.5 c 128,-1,42
 816 980 816 980 806.5 966.5 c 128,-1,43
 797 953 797 953 797 928 c 0,44,45
 797 897 797 897 808 859.5 c 128,-1,46
 819 822 819 822 829 795 c 2,47,-1
 1026 238 l 1,48,-1
 1221 803 l 2,49,50
 1225 815 1225 815 1230.5 831 c 128,-1,51
 1236 847 1236 847 1240.5 864 c 128,-1,52
 1245 881 1245 881 1248 897.5 c 128,-1,53
 1251 914 1251 914 1251 926 c 0,54,55
 1251 948 1251 948 1240.5 961.5 c 128,-1,56
 1230 975 1230 975 1213.5 982.5 c 128,-1,57
 1197 990 1197 990 1178 992.5 c 128,-1,58
 1159 995 1159 995 1141 995 c 1,59,-1
 1141 1022 l 1,60,-1
 1444 1022 l 1,61,-1
 1444 995 l 1,0,1
EndSplineSet
Validated: 1
EndChar

StartChar: X
Encoding: 88 88 61
Width: 1114
GlyphClass: 2
Flags: W
LayerCount: 2
Fore
SplineSet
657 0 m 1,0,-1
 657 29 l 1,1,2
 671 29 671 29 689 30.5 c 128,-1,3
 707 32 707 32 722.5 38 c 128,-1,4
 738 44 738 44 749 55.5 c 128,-1,5
 760 67 760 67 760 86 c 0,6,7
 760 98 760 98 744 128.5 c 128,-1,8
 728 159 728 159 704 198.5 c 128,-1,9
 680 238 680 238 651.5 281 c 128,-1,10
 623 324 623 324 598.5 361 c 128,-1,11
 574 398 574 398 556.5 423 c 128,-1,12
 539 448 539 448 537 451 c 2,13,-1
 322 176 l 2,14,15
 316 168 316 168 308 157 c 128,-1,16
 300 146 300 146 293 134 c 128,-1,17
 286 122 286 122 281 109.5 c 128,-1,18
 276 97 276 97 276 86 c 0,19,20
 276 68 276 68 286 56.5 c 128,-1,21
 296 45 296 45 311 39 c 128,-1,22
 326 33 326 33 343 31 c 128,-1,23
 360 29 360 29 375 29 c 1,24,-1
 375 0 l 1,25,-1
 10 0 l 1,26,-1
 10 29 l 1,27,28
 40 29 40 29 71 40.5 c 128,-1,29
 102 52 102 52 132 71.5 c 128,-1,30
 162 91 162 91 189.5 116.5 c 128,-1,31
 217 142 217 142 240 170 c 2,32,-1
 506 504 l 1,33,-1
 303 799 l 2,34,35
 276 838 276 838 249.5 872.5 c 128,-1,36
 223 907 223 907 191.5 933 c 128,-1,37
 160 959 160 959 122 975.5 c 128,-1,38
 84 992 84 992 33 995 c 1,39,-1
 33 1022 l 1,40,-1
 506 1022 l 1,41,-1
 506 995 l 1,42,43
 492 994 492 994 473.5 991.5 c 128,-1,44
 455 989 455 989 438.5 983 c 128,-1,45
 422 977 422 977 410.5 965.5 c 128,-1,46
 399 954 399 954 399 936 c 0,47,48
 399 922 399 922 412 895.5 c 128,-1,49
 425 869 425 869 444.5 836.5 c 128,-1,50
 464 804 464 804 487.5 769 c 128,-1,51
 511 734 511 734 532.5 703.5 c 128,-1,52
 554 673 554 673 570.5 650.5 c 128,-1,53
 587 628 587 628 592 621 c 1,54,55
 596 626 596 626 615 648 c 128,-1,56
 634 670 634 670 659.5 701 c 128,-1,57
 685 732 685 732 713.5 768 c 128,-1,58
 742 804 742 804 766 837.5 c 128,-1,59
 790 871 790 871 805.5 898.5 c 128,-1,60
 821 926 821 926 821 940 c 0,61,62
 821 958 821 958 808.5 969 c 128,-1,63
 796 980 796 980 778 985.5 c 128,-1,64
 760 991 760 991 741.5 992.5 c 128,-1,65
 723 994 723 994 711 995 c 1,66,-1
 711 1022 l 1,67,-1
 1073 1022 l 1,68,-1
 1073 995 l 1,69,70
 1038 993 1038 993 1011 984.5 c 128,-1,71
 984 976 984 976 959 959 c 128,-1,72
 934 942 934 942 909 915.5 c 128,-1,73
 884 889 884 889 854 851 c 2,74,-1
 629 567 l 1,75,-1
 879 196 l 2,76,77
 905 157 905 157 930 126.5 c 128,-1,78
 955 96 955 96 980.5 75 c 128,-1,79
 1006 54 1006 54 1034.5 42 c 128,-1,80
 1063 30 1063 30 1096 29 c 1,81,-1
 1096 0 l 1,82,-1
 657 0 l 1,0,-1
EndSplineSet
Validated: 1
EndChar

StartChar: Y
Encoding: 89 89 62
Width: 1114
GlyphClass: 2
Flags: W
LayerCount: 2
Fore
SplineSet
1094 995 m 1,0,1
 1056 995 1056 995 1028 985 c 128,-1,2
 1000 975 1000 975 977 956.5 c 128,-1,3
 954 938 954 938 934 912 c 128,-1,4
 914 886 914 886 893 853 c 2,5,-1
 625 434 l 1,6,-1
 625 178 l 2,7,8
 625 131 625 131 630 102 c 128,-1,9
 635 73 635 73 650 56.5 c 128,-1,10
 665 40 665 40 693.5 34.5 c 128,-1,11
 722 29 722 29 770 29 c 1,12,-1
 770 0 l 1,13,-1
 336 0 l 1,14,-1
 336 29 l 1,15,16
 384 29 384 29 412 35 c 128,-1,17
 440 41 440 41 454.5 57.5 c 128,-1,18
 469 74 469 74 473 103 c 128,-1,19
 477 132 477 132 477 178 c 2,20,-1
 477 420 l 1,21,-1
 199 848 l 2,22,23
 183 873 183 873 164.5 899 c 128,-1,24
 146 925 146 925 124 946.5 c 128,-1,25
 102 968 102 968 75 981.5 c 128,-1,26
 48 995 48 995 14 995 c 1,27,-1
 14 1022 l 1,28,-1
 451 1022 l 1,29,-1
 451 995 l 1,30,31
 435 995 435 995 414.5 993 c 128,-1,32
 394 991 394 991 376 984.5 c 128,-1,33
 358 978 358 978 346 964.5 c 128,-1,34
 334 951 334 951 334 928 c 0,35,36
 334 913 334 913 352.5 876.5 c 128,-1,37
 371 840 371 840 399.5 793.5 c 128,-1,38
 428 747 428 747 461 696.5 c 128,-1,39
 494 646 494 646 522.5 603.5 c 128,-1,40
 551 561 551 561 570.5 532 c 128,-1,41
 590 503 590 503 592 500 c 2,42,-1
 795 815 l 2,43,44
 801 825 801 825 809 838 c 128,-1,45
 817 851 817 851 824 865.5 c 128,-1,46
 831 880 831 880 835.5 895 c 128,-1,47
 840 910 840 910 840 922 c 0,48,49
 840 943 840 943 830 957 c 128,-1,50
 820 971 820 971 805 979.5 c 128,-1,51
 790 988 790 988 772 991.5 c 128,-1,52
 754 995 754 995 737 995 c 1,53,-1
 737 1022 l 1,54,-1
 1094 1022 l 1,55,-1
 1094 995 l 1,0,1
EndSplineSet
Validated: 1
EndChar

StartChar: Z
Encoding: 90 90 63
Width: 942
GlyphClass: 2
Flags: W
LayerCount: 2
Fore
SplineSet
852 0 m 1,0,-1
 20 0 l 1,1,-1
 20 29 l 1,2,-1
 674 963 l 1,3,-1
 348 963 l 2,4,5
 291 963 291 963 254.5 952.5 c 128,-1,6
 218 942 218 942 195.5 919 c 128,-1,7
 173 896 173 896 160.5 858 c 128,-1,8
 148 820 148 820 139 766 c 1,9,-1
 111 766 l 1,10,-1
 133 1022 l 1,11,-1
 889 1022 l 1,12,-1
 217 61 l 1,13,-1
 635 61 l 2,14,15
 693 61 693 61 732.5 75.5 c 128,-1,16
 772 90 772 90 798.5 117.5 c 128,-1,17
 825 145 825 145 843 184.5 c 128,-1,18
 861 224 861 224 877 274 c 1,19,-1
 899 270 l 1,20,-1
 852 0 l 1,0,-1
EndSplineSet
Validated: 1
EndChar

StartChar: bracketleft
Encoding: 91 91 64
Width: 690
GlyphClass: 2
Flags: W
LayerCount: 2
Fore
SplineSet
469 -242 m 1,0,-1
 193 -201 l 1,1,-1
 193 1047 l 1,2,-1
 469 1087 l 1,3,-1
 483 1008 l 1,4,-1
 295 979 l 1,5,-1
 295 -131 l 1,6,-1
 483 -162 l 1,7,-1
 469 -242 l 1,0,-1
EndSplineSet
Validated: 1
EndChar

StartChar: backslash
Encoding: 92 92 65
Width: 430
GlyphClass: 2
Flags: W
LayerCount: 2
Fore
SplineSet
373 -23 m 1,0,-1
 2 1071 l 1,1,-1
 68 1071 l 1,2,-1
 434 -23 l 1,3,-1
 373 -23 l 1,0,-1
EndSplineSet
Validated: 1
EndChar

StartChar: bracketright
Encoding: 93 93 66
Width: 690
GlyphClass: 2
Flags: W
LayerCount: 2
Fore
SplineSet
207 -246 m 1,0,-1
 188 -168 l 1,1,-1
 381 -137 l 1,2,-1
 381 975 l 1,3,-1
 188 1006 l 1,4,-1
 207 1085 l 1,5,-1
 483 1044 l 1,6,-1
 483 -205 l 1,7,-1
 207 -246 l 1,0,-1
EndSplineSet
Validated: 1
EndChar

StartChar: asciicircum
Encoding: 94 94 67
Width: 1485
GlyphClass: 2
Flags: W
LayerCount: 2
Fore
SplineSet
1038 14 m 1,0,-1
 743 811 l 1,1,-1
 446 14 l 1,2,-1
 354 14 l 1,3,-1
 696 905 l 1,4,-1
 788 905 l 1,5,-1
 1130 14 l 1,6,-1
 1038 14 l 1,0,-1
EndSplineSet
Validated: 1
EndChar

StartChar: underscore
Encoding: 95 95 68
Width: 743
GlyphClass: 2
Flags: W
LayerCount: 2
Fore
SplineSet
0 -174 m 1,0,-1
 0 -119 l 1,1,-1
 743 -119 l 1,2,-1
 743 -174 l 1,3,-1
 0 -174 l 1,0,-1
EndSplineSet
Validated: 1
EndChar

StartChar: grave
Encoding: 96 96 69
Width: 580
GlyphClass: 2
Flags: W
LayerCount: 2
Fore
SplineSet
375 786 m 1,0,-1
 154 926 l 2,1,2
 86 968 86 968 86 993 c 0,3,4
 86 1051 86 1051 133 1051 c 0,5,6
 173 1051 173 1051 223 1001 c 2,7,-1
 438 786 l 1,8,-1
 375 786 l 1,0,-1
EndSplineSet
Validated: 1
EndChar

StartChar: a
Encoding: 97 97 70
Width: 686
GlyphClass: 2
Flags: W
LayerCount: 2
Fore
SplineSet
684 100 m 1,0,1
 670 81 670 81 652.5 60.5 c 128,-1,2
 635 40 635 40 614.5 23.5 c 128,-1,3
 594 7 594 7 570 -3.5 c 128,-1,4
 546 -14 546 -14 520 -14 c 0,5,6
 496 -14 496 -14 480.5 -4 c 128,-1,7
 465 6 465 6 456 22.5 c 128,-1,8
 447 39 447 39 443.5 59 c 128,-1,9
 440 79 440 79 440 100 c 1,10,11
 415 80 415 80 390 60 c 128,-1,12
 365 40 365 40 338 23.5 c 128,-1,13
 311 7 311 7 282 -3.5 c 128,-1,14
 253 -14 253 -14 219 -14 c 0,15,16
 180 -14 180 -14 149.5 -0.5 c 128,-1,17
 119 13 119 13 98 37 c 128,-1,18
 77 61 77 61 66 93.5 c 128,-1,19
 55 126 55 126 55 164 c 0,20,21
 55 206 55 206 74.5 241 c 128,-1,22
 94 276 94 276 126 305 c 128,-1,23
 158 334 158 334 199 357.5 c 128,-1,24
 240 381 240 381 283 399.5 c 128,-1,25
 326 418 326 418 367 432 c 128,-1,26
 408 446 408 446 440 457 c 1,27,-1
 440 485 l 2,28,29
 440 520 440 520 435.5 552.5 c 128,-1,30
 431 585 431 585 417 610.5 c 128,-1,31
 403 636 403 636 378 651 c 128,-1,32
 353 666 353 666 311 666 c 0,33,34
 276 666 276 666 256 656.5 c 128,-1,35
 236 647 236 647 225.5 629.5 c 128,-1,36
 215 612 215 612 212 588.5 c 128,-1,37
 209 565 209 565 209 537 c 0,38,39
 209 503 209 503 196 484 c 128,-1,40
 183 465 183 465 145 465 c 0,41,42
 110 465 110 465 96 485 c 128,-1,43
 82 505 82 505 82 537 c 0,44,45
 82 584 82 584 107 617 c 128,-1,46
 132 650 132 650 169.5 671 c 128,-1,47
 207 692 207 692 251 701.5 c 128,-1,48
 295 711 295 711 334 711 c 0,49,50
 399 711 399 711 443.5 698.5 c 128,-1,51
 488 686 488 686 515 657.5 c 128,-1,52
 542 629 542 629 553.5 584 c 128,-1,53
 565 539 565 539 565 475 c 2,54,-1
 565 240 l 2,55,56
 565 225 565 225 565 208 c 128,-1,57
 565 191 565 191 565.5 174.5 c 128,-1,58
 566 158 566 158 566.5 143.5 c 128,-1,59
 567 129 567 129 569 119 c 0,60,61
 571 105 571 105 578 93.5 c 128,-1,62
 585 82 585 82 602 82 c 0,63,64
 610 82 610 82 622 89.5 c 128,-1,65
 634 97 634 97 646 107 c 128,-1,66
 658 117 658 117 668.5 127 c 128,-1,67
 679 137 679 137 684 143 c 1,68,-1
 684 100 l 1,0,1
440 414 m 1,69,70
 402 400 402 400 357 380 c 128,-1,71
 312 360 312 360 273 333.5 c 128,-1,72
 234 307 234 307 208 273.5 c 128,-1,73
 182 240 182 240 182 199 c 0,74,75
 182 176 182 176 189 154 c 128,-1,76
 196 132 196 132 210 114 c 128,-1,77
 224 96 224 96 243.5 85 c 128,-1,78
 263 74 263 74 289 74 c 0,79,80
 309 74 309 74 329 81 c 128,-1,81
 349 88 349 88 368.5 99.5 c 128,-1,82
 388 111 388 111 406.5 124.5 c 128,-1,83
 425 138 425 138 440 150 c 1,84,-1
 440 414 l 1,69,70
EndSplineSet
Validated: 1
EndChar

StartChar: b
Encoding: 98 98 71
Width: 772
GlyphClass: 2
Flags: W
LayerCount: 2
Fore
SplineSet
719 373 m 0,0,1
 719 297 719 297 693.5 225.5 c 128,-1,2
 668 154 668 154 621.5 99 c 128,-1,3
 575 44 575 44 509 10.5 c 128,-1,4
 443 -23 443 -23 362 -23 c 0,5,6
 293 -23 293 -23 229.5 3 c 128,-1,7
 166 29 166 29 111 68 c 1,8,-1
 111 800 l 2,9,10
 111 844 111 844 110 876.5 c 128,-1,11
 109 909 109 909 103.5 930.5 c 128,-1,12
 98 952 98 952 87 962.5 c 128,-1,13
 76 973 76 973 57 973 c 0,14,15
 43 973 43 973 30.5 969.5 c 128,-1,16
 18 966 18 966 4 963 c 1,17,-1
 -6 989 l 1,18,-1
 203 1071 l 1,19,-1
 238 1071 l 1,20,-1
 238 571 l 1,21,22
 257 598 257 598 280.5 623 c 128,-1,23
 304 648 304 648 331 667.5 c 128,-1,24
 358 687 358 687 389 699 c 128,-1,25
 420 711 420 711 455 711 c 0,26,27
 523 711 523 711 573 680.5 c 128,-1,28
 623 650 623 650 655.5 601.5 c 128,-1,29
 688 553 688 553 703.5 493 c 128,-1,30
 719 433 719 433 719 373 c 0,0,1
588 330 m 0,31,32
 588 373 588 373 578 421.5 c 128,-1,33
 568 470 568 470 544.5 510.5 c 128,-1,34
 521 551 521 551 484 577.5 c 128,-1,35
 447 604 447 604 393 604 c 0,36,37
 371 604 371 604 349.5 597 c 128,-1,38
 328 590 328 590 308.5 578.5 c 128,-1,39
 289 567 289 567 271 553 c 128,-1,40
 253 539 253 539 238 524 c 1,41,-1
 238 111 l 1,42,43
 270 77 270 77 311.5 56 c 128,-1,44
 353 35 353 35 401 35 c 0,45,46
 454 35 454 35 490 65 c 128,-1,47
 526 95 526 95 547.5 140 c 128,-1,48
 569 185 569 185 578.5 236.5 c 128,-1,49
 588 288 588 288 588 330 c 0,31,32
EndSplineSet
Validated: 1
EndChar

StartChar: c
Encoding: 99 99 72
Width: 686
GlyphClass: 2
Flags: W
LayerCount: 2
Fore
SplineSet
635 262 m 1,0,1
 626 208 626 208 602 157 c 128,-1,2
 578 106 578 106 540.5 66 c 128,-1,3
 503 26 503 26 453.5 1.5 c 128,-1,4
 404 -23 404 -23 346 -23 c 0,5,6
 271 -23 271 -23 215.5 9.5 c 128,-1,7
 160 42 160 42 123.5 94.5 c 128,-1,8
 87 147 87 147 69 212.5 c 128,-1,9
 51 278 51 278 51 344 c 0,10,11
 51 416 51 416 74 482.5 c 128,-1,12
 97 549 97 549 140 600 c 128,-1,13
 183 651 183 651 244 681 c 128,-1,14
 305 711 305 711 381 711 c 0,15,16
 415 711 415 711 456.5 700.5 c 128,-1,17
 498 690 498 690 533 669 c 128,-1,18
 568 648 568 648 592 617 c 128,-1,19
 616 586 616 586 616 545 c 0,20,21
 616 511 616 511 596.5 496 c 128,-1,22
 577 481 577 481 545 481 c 0,23,24
 511 481 511 481 495 494.5 c 128,-1,25
 479 508 479 508 472 528 c 128,-1,26
 465 548 465 548 462 571.5 c 128,-1,27
 459 595 459 595 449.5 615 c 128,-1,28
 440 635 440 635 419 648.5 c 128,-1,29
 398 662 398 662 356 662 c 0,30,31
 306 662 306 662 271.5 638.5 c 128,-1,32
 237 615 237 615 216 578 c 128,-1,33
 195 541 195 541 185.5 496.5 c 128,-1,34
 176 452 176 452 176 410 c 0,35,36
 176 359 176 359 188 304 c 128,-1,37
 200 249 200 249 227 203 c 128,-1,38
 254 157 254 157 296.5 127.5 c 128,-1,39
 339 98 339 98 399 98 c 0,40,41
 441 98 441 98 474 112 c 128,-1,42
 507 126 507 126 532.5 150 c 128,-1,43
 558 174 558 174 577.5 205.5 c 128,-1,44
 597 237 597 237 612 272 c 1,45,-1
 635 262 l 1,0,1
EndSplineSet
Validated: 1
EndChar

StartChar: d
Encoding: 100 100 73
Width: 772
GlyphClass: 2
Flags: W
LayerCount: 2
Fore
SplineSet
569 -23 m 1,0,-1
 537 -23 l 1,1,-1
 537 78 l 1,2,3
 495 34 495 34 444.5 5.5 c 128,-1,4
 394 -23 394 -23 334 -23 c 0,5,6
 266 -23 266 -23 213.5 7 c 128,-1,7
 161 37 161 37 125 85.5 c 128,-1,8
 89 134 89 134 70 194.5 c 128,-1,9
 51 255 51 255 51 315 c 0,10,11
 51 387 51 387 74 457.5 c 128,-1,12
 97 528 97 528 140.5 584.5 c 128,-1,13
 184 641 184 641 246.5 676 c 128,-1,14
 309 711 309 711 387 711 c 0,15,16
 429 711 429 711 467.5 697.5 c 128,-1,17
 506 684 506 684 537 653 c 1,18,-1
 537 877 l 2,19,20
 537 922 537 922 524.5 947.5 c 128,-1,21
 512 973 512 973 483 973 c 0,22,23
 469 973 469 973 456.5 970.5 c 128,-1,24
 444 968 444 968 430 963 c 1,25,-1
 420 989 l 1,26,-1
 629 1071 l 1,27,-1
 662 1071 l 1,28,-1
 662 212 l 2,29,30
 662 182 662 182 663.5 157.5 c 128,-1,31
 665 133 665 133 670.5 115.5 c 128,-1,32
 676 98 676 98 687 88 c 128,-1,33
 698 78 698 78 717 78 c 0,34,35
 729 78 729 78 742.5 81.5 c 128,-1,36
 756 85 756 85 770 90 c 1,37,-1
 778 63 l 1,38,-1
 569 -23 l 1,0,-1
537 487 m 2,39,40
 537 519 537 519 525 551 c 128,-1,41
 513 583 513 583 491.5 608.5 c 128,-1,42
 470 634 470 634 440.5 650 c 128,-1,43
 411 666 411 666 377 666 c 0,44,45
 323 666 323 666 287 637 c 128,-1,46
 251 608 251 608 229.5 564.5 c 128,-1,47
 208 521 208 521 199 470.5 c 128,-1,48
 190 420 190 420 190 377 c 0,49,50
 190 329 190 329 201 274 c 128,-1,51
 212 219 212 219 236.5 171.5 c 128,-1,52
 261 124 261 124 301.5 92.5 c 128,-1,53
 342 61 342 61 401 61 c 0,54,55
 442 61 442 61 476.5 81.5 c 128,-1,56
 511 102 511 102 537 131 c 1,57,-1
 537 487 l 2,39,40
EndSplineSet
Validated: 1
EndChar

StartChar: e
Encoding: 101 101 74
Width: 686
GlyphClass: 2
Flags: W
LayerCount: 2
Fore
SplineSet
641 252 m 1,0,1
 633 198 633 198 609.5 148.5 c 128,-1,2
 586 99 586 99 549 61 c 128,-1,3
 512 23 512 23 463.5 0 c 128,-1,4
 415 -23 415 -23 358 -23 c 0,5,6
 284 -23 284 -23 227.5 8 c 128,-1,7
 171 39 171 39 133 90 c 128,-1,8
 95 141 95 141 76 205.5 c 128,-1,9
 57 270 57 270 57 338 c 0,10,11
 57 413 57 413 76.5 480.5 c 128,-1,12
 96 548 96 548 135.5 599 c 128,-1,13
 175 650 175 650 235.5 680.5 c 128,-1,14
 296 711 296 711 377 711 c 0,15,16
 439 711 439 711 488 690 c 128,-1,17
 537 669 537 669 571 631.5 c 128,-1,18
 605 594 605 594 623 542.5 c 128,-1,19
 641 491 641 491 641 430 c 1,20,-1
 164 430 l 1,21,22
 164 374 164 374 179 316 c 128,-1,23
 194 258 194 258 225 210.5 c 128,-1,24
 256 163 256 163 303.5 132.5 c 128,-1,25
 351 102 351 102 416 102 c 0,26,27
 456 102 456 102 487.5 114.5 c 128,-1,28
 519 127 519 127 543.5 149.5 c 128,-1,29
 568 172 568 172 586 202.5 c 128,-1,30
 604 233 604 233 618 268 c 1,31,-1
 641 252 l 1,0,1
483 473 m 1,32,33
 483 507 483 507 474.5 540.5 c 128,-1,34
 466 574 466 574 447.5 599.5 c 128,-1,35
 429 625 429 625 401 641 c 128,-1,36
 373 657 373 657 334 657 c 256,37,38
 295 657 295 657 265 641.5 c 128,-1,39
 235 626 235 626 213.5 600.5 c 128,-1,40
 192 575 192 575 179.5 541.5 c 128,-1,41
 167 508 167 508 164 473 c 1,42,-1
 483 473 l 1,32,33
EndSplineSet
Validated: 1
EndChar

StartChar: f
Encoding: 102 102 75
Width: 514
GlyphClass: 2
Flags: W
LayerCount: 2
Fore
SplineSet
672 942 m 0,0,1
 672 931 672 931 666.5 920 c 128,-1,2
 661 909 661 909 652.5 900.5 c 128,-1,3
 644 892 644 892 633 886.5 c 128,-1,4
 622 881 622 881 610 881 c 0,5,6
 585 881 585 881 566 902 c 128,-1,7
 547 923 547 923 527 948.5 c 128,-1,8
 507 974 507 974 482.5 995 c 128,-1,9
 458 1016 458 1016 422 1016 c 0,10,11
 385 1016 385 1016 364 995 c 128,-1,12
 343 974 343 974 332.5 939.5 c 128,-1,13
 322 905 322 905 319.5 859 c 128,-1,14
 317 813 317 813 317 764 c 2,15,-1
 317 690 l 1,16,-1
 496 690 l 1,17,-1
 496 635 l 1,18,-1
 317 635 l 1,19,-1
 317 182 l 2,20,21
 317 130 317 130 322.5 99.5 c 128,-1,22
 328 69 328 69 345 53.5 c 128,-1,23
 362 38 362 38 393.5 33.5 c 128,-1,24
 425 29 425 29 477 29 c 1,25,-1
 477 0 l 1,26,-1
 61 0 l 1,27,-1
 61 29 l 1,28,29
 106 29 106 29 132 37.5 c 128,-1,30
 158 46 158 46 171.5 64.5 c 128,-1,31
 185 83 185 83 189 112 c 128,-1,32
 193 141 193 141 193 182 c 2,33,-1
 193 635 l 1,34,-1
 57 635 l 1,35,-1
 57 690 l 1,36,-1
 193 690 l 1,37,-1
 193 737 l 2,38,39
 193 803 193 803 211 863.5 c 128,-1,40
 229 924 229 924 265 970 c 128,-1,41
 301 1016 301 1016 355 1043.5 c 128,-1,42
 409 1071 409 1071 481 1071 c 0,43,44
 506 1071 506 1071 539.5 1062.5 c 128,-1,45
 573 1054 573 1054 602 1037.5 c 128,-1,46
 631 1021 631 1021 651.5 997 c 128,-1,47
 672 973 672 973 672 942 c 0,0,1
EndSplineSet
Validated: 1
EndChar

StartChar: g
Encoding: 103 103 76
Width: 772
GlyphClass: 2
Flags: W
LayerCount: 2
Fore
SplineSet
743 629 m 0,0,1
 743 605 743 605 724 597.5 c 128,-1,2
 705 590 705 590 680 590 c 0,3,4
 660 590 660 590 640 591.5 c 128,-1,5
 620 593 620 593 606 594 c 1,6,7
 628 565 628 565 637.5 528.5 c 128,-1,8
 647 492 647 492 647 457 c 0,9,10
 647 399 647 399 624.5 355.5 c 128,-1,11
 602 312 602 312 564 282.5 c 128,-1,12
 526 253 526 253 477 238 c 128,-1,13
 428 223 428 223 375 223 c 0,14,15
 349 223 349 223 322.5 226.5 c 128,-1,16
 296 230 296 230 270 238 c 1,17,18
 250 222 250 222 231.5 201 c 128,-1,19
 213 180 213 180 213 154 c 0,20,21
 213 131 213 131 235.5 121 c 128,-1,22
 258 111 258 111 294.5 107 c 128,-1,23
 331 103 331 103 378 103 c 128,-1,24
 425 103 425 103 474 101 c 128,-1,25
 523 99 523 99 570 92 c 128,-1,26
 617 85 617 85 653.5 67.5 c 128,-1,27
 690 50 690 50 712.5 19 c 128,-1,28
 735 -12 735 -12 735 -63 c 0,29,30
 735 -109 735 -109 717 -147 c 128,-1,31
 699 -185 699 -185 669 -215.5 c 128,-1,32
 639 -246 639 -246 599.5 -268 c 128,-1,33
 560 -290 560 -290 517 -305 c 128,-1,34
 474 -320 474 -320 430 -327 c 128,-1,35
 386 -334 386 -334 348 -334 c 0,36,37
 329 -334 329 -334 298.5 -330.5 c 128,-1,38
 268 -327 268 -327 234.5 -319.5 c 128,-1,39
 201 -312 201 -312 167 -300.5 c 128,-1,40
 133 -289 133 -289 106 -273 c 128,-1,41
 79 -257 79 -257 62 -236.5 c 128,-1,42
 45 -216 45 -216 45 -190 c 0,43,44
 45 -169 45 -169 61.5 -140.5 c 128,-1,45
 78 -112 78 -112 100.5 -84.5 c 128,-1,46
 123 -57 123 -57 146.5 -32.5 c 128,-1,47
 170 -8 170 -8 184 6 c 1,48,49
 174 12 174 12 162 21 c 128,-1,50
 150 30 150 30 139 41 c 128,-1,51
 128 52 128 52 120.5 64.5 c 128,-1,52
 113 77 113 77 113 90 c 0,53,54
 113 111 113 111 126 134.5 c 128,-1,55
 139 158 139 158 158 180 c 128,-1,56
 177 202 177 202 197.5 221 c 128,-1,57
 218 240 218 240 233 252 c 1,58,59
 203 266 203 266 178.5 288 c 128,-1,60
 154 310 154 310 137 337.5 c 128,-1,61
 120 365 120 365 111 396.5 c 128,-1,62
 102 428 102 428 102 461 c 0,63,64
 102 519 102 519 124.5 565.5 c 128,-1,65
 147 612 147 612 185 644 c 128,-1,66
 223 676 223 676 272.5 693.5 c 128,-1,67
 322 711 322 711 377 711 c 0,68,69
 410 711 410 711 441.5 702.5 c 128,-1,70
 473 694 473 694 504 684 c 128,-1,71
 535 674 535 674 566 665.5 c 128,-1,72
 597 657 597 657 629 657 c 0,73,74
 649 657 649 657 669 659.5 c 128,-1,75
 689 662 689 662 709 662 c 256,76,77
 729 662 729 662 736 658 c 128,-1,78
 743 654 743 654 743 629 c 0,0,1
514 436 m 0,79,80
 514 471 514 471 507.5 512.5 c 128,-1,81
 501 554 501 554 484 590 c 128,-1,82
 467 626 467 626 438 650 c 128,-1,83
 409 674 409 674 365 674 c 0,84,85
 327 674 327 674 301.5 657.5 c 128,-1,86
 276 641 276 641 261 615.5 c 128,-1,87
 246 590 246 590 239.5 557.5 c 128,-1,88
 233 525 233 525 233 494 c 0,89,90
 233 458 233 458 239.5 417 c 128,-1,91
 246 376 246 376 263.5 341 c 128,-1,92
 281 306 281 306 310.5 283 c 128,-1,93
 340 260 340 260 385 260 c 0,94,95
 424 260 424 260 449 275 c 128,-1,96
 474 290 474 290 488.5 315 c 128,-1,97
 503 340 503 340 508.5 371.5 c 128,-1,98
 514 403 514 403 514 436 c 0,79,80
680 -92 m 0,99,100
 680 -77 680 -77 673.5 -66 c 128,-1,101
 667 -55 667 -55 656.5 -47.5 c 128,-1,102
 646 -40 646 -40 632.5 -35 c 128,-1,103
 619 -30 619 -30 606 -27 c 0,104,105
 577 -20 577 -20 527 -16 c 128,-1,106
 477 -12 477 -12 421.5 -9.5 c 128,-1,107
 366 -7 366 -7 313 -5 c 128,-1,108
 260 -3 260 -3 225 0 c 1,109,110
 214 -12 214 -12 202 -27.5 c 128,-1,111
 190 -43 190 -43 179 -60.5 c 128,-1,112
 168 -78 168 -78 161 -96.5 c 128,-1,113
 154 -115 154 -115 154 -133 c 0,114,115
 154 -156 154 -156 169 -173 c 128,-1,116
 184 -190 184 -190 207.5 -202 c 128,-1,117
 231 -214 231 -214 260.5 -222 c 128,-1,118
 290 -230 290 -230 319 -234.5 c 128,-1,119
 348 -239 348 -239 373.5 -240.5 c 128,-1,120
 399 -242 399 -242 416 -242 c 0,121,122
 450 -242 450 -242 495.5 -235.5 c 128,-1,123
 541 -229 541 -229 582 -212 c 128,-1,124
 623 -195 623 -195 651.5 -166 c 128,-1,125
 680 -137 680 -137 680 -92 c 0,99,100
EndSplineSet
Validated: 1
EndChar

StartChar: h
Encoding: 104 104 77
Width: 772
GlyphClass: 2
Flags: W
LayerCount: 2
Fore
SplineSet
424 0 m 1,0,-1
 424 29 l 1,1,2
 458 29 458 29 479.5 34 c 128,-1,3
 501 39 501 39 513.5 51.5 c 128,-1,4
 526 64 526 64 530.5 85.5 c 128,-1,5
 535 107 535 107 535 141 c 2,6,-1
 535 412 l 2,7,8
 535 451 535 451 532.5 488 c 128,-1,9
 530 525 530 525 519 554 c 128,-1,10
 508 583 508 583 486 600.5 c 128,-1,11
 464 618 464 618 424 618 c 0,12,13
 398 618 398 618 374 609.5 c 128,-1,14
 350 601 350 601 328 587.5 c 128,-1,15
 306 574 306 574 287 556 c 128,-1,16
 268 538 268 538 252 520 c 1,17,-1
 252 141 l 2,18,19
 252 106 252 106 255.5 84.5 c 128,-1,20
 259 63 259 63 271 50.5 c 128,-1,21
 283 38 283 38 304.5 33.5 c 128,-1,22
 326 29 326 29 362 29 c 1,23,-1
 362 0 l 1,24,-1
 20 0 l 1,25,-1
 20 29 l 1,26,27
 53 29 53 29 74 34.5 c 128,-1,28
 95 40 95 40 107 53.5 c 128,-1,29
 119 67 119 67 123 88 c 128,-1,30
 127 109 127 109 127 141 c 2,31,-1
 127 870 l 2,32,33
 127 918 127 918 118 946.5 c 128,-1,34
 109 975 109 975 76 975 c 0,35,36
 62 975 62 975 48 971.5 c 128,-1,37
 34 968 34 968 20 963 c 1,38,-1
 8 989 l 1,39,-1
 217 1071 l 1,40,-1
 252 1071 l 1,41,-1
 252 567 l 1,42,43
 272 597 272 597 296 623 c 128,-1,44
 320 649 320 649 348.5 668.5 c 128,-1,45
 377 688 377 688 410 699.5 c 128,-1,46
 443 711 443 711 481 711 c 0,47,48
 547 711 547 711 583.5 680.5 c 128,-1,49
 620 650 620 650 637.5 604 c 128,-1,50
 655 558 655 558 658.5 503 c 128,-1,51
 662 448 662 448 662 399 c 2,52,-1
 662 141 l 2,53,54
 662 109 662 109 665.5 88 c 128,-1,55
 669 67 669 67 680 53.5 c 128,-1,56
 691 40 691 40 711 34.5 c 128,-1,57
 731 29 731 29 764 29 c 1,58,-1
 764 0 l 1,59,-1
 424 0 l 1,0,-1
EndSplineSet
Validated: 1
EndChar

StartChar: i
Encoding: 105 105 78
Width: 430
GlyphClass: 2
Flags: W
LayerCount: 2
Fore
SplineSet
303 926 m 0,0,1
 303 894 303 894 281 871 c 128,-1,2
 259 848 259 848 227 848 c 256,3,4
 195 848 195 848 172.5 870 c 128,-1,5
 150 892 150 892 150 926 c 0,6,7
 150 958 150 958 172.5 979.5 c 128,-1,8
 195 1001 195 1001 227 1001 c 0,9,10
 258 1001 258 1001 280.5 979 c 128,-1,11
 303 957 303 957 303 926 c 0,0,1
57 0 m 1,12,-1
 57 29 l 1,13,14
 91 29 91 29 112 34 c 128,-1,15
 133 39 133 39 144.5 52 c 128,-1,16
 156 65 156 65 160 86.5 c 128,-1,17
 164 108 164 108 164 141 c 2,18,-1
 164 510 l 2,19,20
 164 527 164 527 162.5 545 c 128,-1,21
 161 563 161 563 155.5 578 c 128,-1,22
 150 593 150 593 139.5 602.5 c 128,-1,23
 129 612 129 612 111 612 c 0,24,25
 99 612 99 612 85 608.5 c 128,-1,26
 71 605 71 605 57 600 c 1,27,-1
 47 627 l 1,28,-1
 256 711 l 1,29,-1
 289 711 l 1,30,-1
 289 141 l 2,31,32
 289 108 289 108 293 86.5 c 128,-1,33
 297 65 297 65 308.5 52 c 128,-1,34
 320 39 320 39 340.5 34 c 128,-1,35
 361 29 361 29 395 29 c 1,36,-1
 395 0 l 1,37,-1
 57 0 l 1,12,-1
EndSplineSet
Validated: 1
EndChar

StartChar: j
Encoding: 106 106 79
Width: 430
GlyphClass: 2
Flags: W
LayerCount: 2
Fore
SplineSet
301 926 m 0,0,1
 301 894 301 894 278 871 c 128,-1,2
 255 848 255 848 223 848 c 256,3,4
 191 848 191 848 169 870 c 128,-1,5
 147 892 147 892 147 926 c 0,6,7
 147 957 147 957 169.5 979 c 128,-1,8
 192 1001 192 1001 223 1001 c 256,9,10
 254 1001 254 1001 277.5 979 c 128,-1,11
 301 957 301 957 301 926 c 0,0,1
289 14 m 2,12,13
 289 -53 289 -53 275 -115.5 c 128,-1,14
 261 -178 261 -178 229 -226.5 c 128,-1,15
 197 -275 197 -275 145 -304.5 c 128,-1,16
 93 -334 93 -334 16 -334 c 0,17,18
 0 -334 0 -334 -23 -330 c 128,-1,19
 -46 -326 -46 -326 -67.5 -317 c 128,-1,20
 -89 -308 -89 -308 -104 -293.5 c 128,-1,21
 -119 -279 -119 -279 -119 -258 c 0,22,23
 -119 -232 -119 -232 -101 -212.5 c 128,-1,24
 -83 -193 -83 -193 -57 -193 c 256,25,26
 -31 -193 -31 -193 -11.5 -205.5 c 128,-1,27
 8 -218 8 -218 24.5 -232.5 c 128,-1,28
 41 -247 41 -247 57.5 -259.5 c 128,-1,29
 74 -272 74 -272 94 -272 c 0,30,31
 119 -272 119 -272 133.5 -255 c 128,-1,32
 148 -238 148 -238 154.5 -211 c 128,-1,33
 161 -184 161 -184 162.5 -150 c 128,-1,34
 164 -116 164 -116 164 -82 c 2,35,-1
 164 462 l 2,36,37
 164 493 164 493 162.5 520.5 c 128,-1,38
 161 548 161 548 156 567.5 c 128,-1,39
 151 587 151 587 139.5 598.5 c 128,-1,40
 128 610 128 610 109 610 c 0,41,42
 85 610 85 610 57 600 c 1,43,-1
 47 627 l 1,44,-1
 256 711 l 1,45,-1
 289 711 l 1,46,-1
 289 14 l 2,12,13
EndSplineSet
Validated: 1
EndChar

StartChar: k
Encoding: 107 107 80
Width: 772
GlyphClass: 2
Flags: W
LayerCount: 2
Fore
SplineSet
446 0 m 1,0,-1
 446 29 l 1,1,2
 453 29 453 29 461.5 29.5 c 128,-1,3
 470 30 470 30 477 33 c 128,-1,4
 484 36 484 36 489 41 c 128,-1,5
 494 46 494 46 494 55 c 0,6,7
 494 72 494 72 484 87 c 128,-1,8
 474 102 474 102 465 115 c 2,9,-1
 254 381 l 1,10,-1
 254 156 l 2,11,12
 254 120 254 120 256.5 95.5 c 128,-1,13
 259 71 259 71 269.5 56 c 128,-1,14
 280 41 280 41 302.5 35 c 128,-1,15
 325 29 325 29 365 29 c 1,16,-1
 365 0 l 1,17,-1
 10 0 l 1,18,-1
 10 29 l 1,19,20
 49 29 49 29 71.5 34 c 128,-1,21
 94 39 94 39 106 52.5 c 128,-1,22
 118 66 118 66 121.5 90 c 128,-1,23
 125 114 125 114 125 152 c 2,24,-1
 125 857 l 2,25,26
 125 920 125 920 114.5 947.5 c 128,-1,27
 104 975 104 975 74 975 c 0,28,29
 61 975 61 975 49 971.5 c 128,-1,30
 37 968 37 968 25 963 c 1,31,-1
 10 989 l 1,32,-1
 219 1071 l 1,33,-1
 254 1071 l 1,34,-1
 254 397 l 1,35,-1
 428 545 l 2,36,37
 434 550 434 550 446 560.5 c 128,-1,38
 458 571 458 571 470 583 c 128,-1,39
 482 595 482 595 491 607.5 c 128,-1,40
 500 620 500 620 500 629 c 0,41,42
 500 639 500 639 495 646.5 c 128,-1,43
 490 654 490 654 482 658.5 c 128,-1,44
 474 663 474 663 464.5 665 c 128,-1,45
 455 667 455 667 446 668 c 1,46,-1
 446 690 l 1,47,-1
 745 690 l 1,48,-1
 745 668 l 1,49,50
 713 666 713 666 687.5 661.5 c 128,-1,51
 662 657 662 657 640 647 c 128,-1,52
 618 637 618 637 597.5 622 c 128,-1,53
 577 607 577 607 553 586 c 2,54,-1
 371 424 l 1,55,-1
 588 153 l 2,56,57
 621 112 621 112 644 87.5 c 128,-1,58
 667 63 667 63 687.5 50 c 128,-1,59
 708 37 708 37 729.5 33 c 128,-1,60
 751 29 751 29 780 29 c 1,61,-1
 780 0 l 1,62,-1
 446 0 l 1,0,-1
EndSplineSet
Validated: 1
EndChar

StartChar: l
Encoding: 108 108 81
Width: 430
GlyphClass: 2
Flags: W
LayerCount: 2
Fore
SplineSet
57 0 m 1,0,-1
 57 29 l 1,1,2
 93 29 93 29 113.5 37.5 c 128,-1,3
 134 46 134 46 144.5 62 c 128,-1,4
 155 78 155 78 157.5 101.5 c 128,-1,5
 160 125 160 125 160 156 c 2,6,-1
 160 849 l 2,7,8
 160 874 160 874 158.5 896.5 c 128,-1,9
 157 919 157 919 151 936 c 128,-1,10
 145 953 145 953 134 963 c 128,-1,11
 123 973 123 973 104 973 c 0,12,13
 92 973 92 973 81 970.5 c 128,-1,14
 70 968 70 968 57 963 c 1,15,-1
 45 989 l 1,16,-1
 252 1071 l 1,17,-1
 285 1071 l 1,18,-1
 285 156 l 2,19,20
 285 121 285 121 288.5 97 c 128,-1,21
 292 73 292 73 303.5 58 c 128,-1,22
 315 43 315 43 337 36 c 128,-1,23
 359 29 359 29 397 29 c 1,24,-1
 397 0 l 1,25,-1
 57 0 l 1,0,-1
EndSplineSet
Validated: 1
EndChar

StartChar: m
Encoding: 109 109 82
Width: 1202
GlyphClass: 2
Flags: W
LayerCount: 2
Fore
SplineSet
854 0 m 1,0,-1
 854 29 l 1,1,2
 894 29 894 29 916.5 35 c 128,-1,3
 939 41 939 41 949.5 56 c 128,-1,4
 960 71 960 71 962.5 95.5 c 128,-1,5
 965 120 965 120 965 156 c 2,6,-1
 965 455 l 2,7,8
 965 484 965 484 960.5 513.5 c 128,-1,9
 956 543 956 543 943.5 567 c 128,-1,10
 931 591 931 591 908.5 606 c 128,-1,11
 886 621 886 621 850 621 c 0,12,13
 824 621 824 621 799.5 613 c 128,-1,14
 775 605 775 605 752.5 591.5 c 128,-1,15
 730 578 730 578 710 561 c 128,-1,16
 690 544 690 544 672 526 c 1,17,-1
 672 156 l 2,18,19
 672 120 672 120 675 95.5 c 128,-1,20
 678 71 678 71 689 56 c 128,-1,21
 700 41 700 41 722.5 35 c 128,-1,22
 745 29 745 29 784 29 c 1,23,-1
 784 0 l 1,24,-1
 434 0 l 1,25,-1
 434 29 l 1,26,27
 475 29 475 29 497.5 35 c 128,-1,28
 520 41 520 41 531 55.5 c 128,-1,29
 542 70 542 70 544.5 94.5 c 128,-1,30
 547 119 547 119 547 156 c 2,31,-1
 547 455 l 2,32,33
 547 485 547 485 542 515 c 128,-1,34
 537 545 537 545 524.5 569 c 128,-1,35
 512 593 512 593 489 608 c 128,-1,36
 466 623 466 623 430 623 c 0,37,38
 403 623 403 623 378.5 614.5 c 128,-1,39
 354 606 354 606 331.5 592.5 c 128,-1,40
 309 579 309 579 289.5 561.5 c 128,-1,41
 270 544 270 544 252 526 c 1,42,-1
 252 156 l 2,43,44
 252 120 252 120 255 95.5 c 128,-1,45
 258 71 258 71 269 56 c 128,-1,46
 280 41 280 41 303 35 c 128,-1,47
 326 29 326 29 365 29 c 1,48,-1
 365 0 l 1,49,-1
 23 0 l 1,50,-1
 23 29 l 1,51,52
 60 29 60 29 80.5 36.5 c 128,-1,53
 101 44 101 44 111.5 59.5 c 128,-1,54
 122 75 122 75 124.5 99 c 128,-1,55
 127 123 127 123 127 156 c 2,56,-1
 127 486 l 2,57,58
 127 509 127 509 125.5 531.5 c 128,-1,59
 124 554 124 554 119 572 c 128,-1,60
 114 590 114 590 103 601 c 128,-1,61
 92 612 92 612 74 612 c 0,62,63
 61 612 61 612 48 608.5 c 128,-1,64
 35 605 35 605 23 600 c 1,65,-1
 10 627 l 1,66,-1
 219 711 l 1,67,-1
 252 711 l 1,68,-1
 252 565 l 1,69,70
 276 591 276 591 302 617 c 128,-1,71
 328 643 328 643 357.5 664 c 128,-1,72
 387 685 387 685 420 698 c 128,-1,73
 453 711 453 711 492 711 c 0,74,75
 566 711 566 711 608.5 672.5 c 128,-1,76
 651 634 651 634 668 565 c 1,77,78
 692 593 692 593 717.5 619 c 128,-1,79
 743 645 743 645 772 665.5 c 128,-1,80
 801 686 801 686 834.5 698.5 c 128,-1,81
 868 711 868 711 909 711 c 0,82,83
 965 711 965 711 1000.5 688.5 c 128,-1,84
 1036 666 1036 666 1056.5 630 c 128,-1,85
 1077 594 1077 594 1084.5 548 c 128,-1,86
 1092 502 1092 502 1092 455 c 2,87,-1
 1092 156 l 2,88,89
 1092 124 1092 124 1094.5 100 c 128,-1,90
 1097 76 1097 76 1107.5 60 c 128,-1,91
 1118 44 1118 44 1139 36.5 c 128,-1,92
 1160 29 1160 29 1196 29 c 1,93,-1
 1196 0 l 1,94,-1
 854 0 l 1,0,-1
EndSplineSet
Validated: 1
EndChar

StartChar: n
Encoding: 110 110 83
Width: 772
GlyphClass: 2
Flags: W
LayerCount: 2
Fore
SplineSet
424 0 m 1,0,-1
 424 29 l 1,1,2
 463 29 463 29 485.5 35 c 128,-1,3
 508 41 508 41 519.5 55.5 c 128,-1,4
 531 70 531 70 534 94.5 c 128,-1,5
 537 119 537 119 537 156 c 2,6,-1
 537 438 l 2,7,8
 537 467 537 467 534.5 499 c 128,-1,9
 532 531 532 531 521 557.5 c 128,-1,10
 510 584 510 584 488 601 c 128,-1,11
 466 618 466 618 428 618 c 0,12,13
 401 618 401 618 376 609.5 c 128,-1,14
 351 601 351 601 328.5 587.5 c 128,-1,15
 306 574 306 574 286.5 556 c 128,-1,16
 267 538 267 538 250 520 c 1,17,-1
 250 156 l 2,18,19
 250 120 250 120 253 95.5 c 128,-1,20
 256 71 256 71 267 56 c 128,-1,21
 278 41 278 41 300.5 35 c 128,-1,22
 323 29 323 29 362 29 c 1,23,-1
 362 0 l 1,24,-1
 18 0 l 1,25,-1
 18 29 l 1,26,27
 56 29 56 29 77 36.5 c 128,-1,28
 98 44 98 44 108.5 59.5 c 128,-1,29
 119 75 119 75 121 99 c 128,-1,30
 123 123 123 123 123 156 c 2,31,-1
 123 474 l 2,32,33
 123 500 123 500 121.5 524.5 c 128,-1,34
 120 549 120 549 114.5 568.5 c 128,-1,35
 109 588 109 588 98.5 600 c 128,-1,36
 88 612 88 612 70 612 c 0,37,38
 57 612 57 612 44 608.5 c 128,-1,39
 31 605 31 605 18 600 c 1,40,-1
 8 627 l 1,41,-1
 219 711 l 1,42,-1
 250 711 l 1,43,-1
 250 565 l 1,44,45
 271 590 271 590 296.5 616 c 128,-1,46
 322 642 322 642 351 663 c 128,-1,47
 380 684 380 684 413 697.5 c 128,-1,48
 446 711 446 711 481 711 c 0,49,50
 537 711 537 711 572.5 688 c 128,-1,51
 608 665 608 665 628 627.5 c 128,-1,52
 648 590 648 590 655 543.5 c 128,-1,53
 662 497 662 497 662 451 c 2,54,-1
 662 156 l 2,55,56
 662 123 662 123 665 99 c 128,-1,57
 668 75 668 75 678.5 59.5 c 128,-1,58
 689 44 689 44 710.5 36.5 c 128,-1,59
 732 29 732 29 770 29 c 1,60,-1
 770 0 l 1,61,-1
 424 0 l 1,0,-1
EndSplineSet
Validated: 1
EndChar

StartChar: o
Encoding: 111 111 84
Width: 772
GlyphClass: 2
Flags: W
LayerCount: 2
Fore
SplineSet
719 358 m 0,0,1
 719 283 719 283 695.5 214 c 128,-1,2
 672 145 672 145 628 92.5 c 128,-1,3
 584 40 584 40 521 8.5 c 128,-1,4
 458 -23 458 -23 379 -23 c 0,5,6
 304 -23 304 -23 243.5 7 c 128,-1,7
 183 37 183 37 140.5 87.5 c 128,-1,8
 98 138 98 138 74.5 203 c 128,-1,9
 51 268 51 268 51 338 c 0,10,11
 51 411 51 411 74.5 478 c 128,-1,12
 98 545 98 545 142 597 c 128,-1,13
 186 649 186 649 248 680 c 128,-1,14
 310 711 310 711 387 711 c 0,15,16
 462 711 462 711 523.5 683.5 c 128,-1,17
 585 656 585 656 628.5 608 c 128,-1,18
 672 560 672 560 695.5 495.5 c 128,-1,19
 719 431 719 431 719 358 c 0,0,1
578 299 m 0,20,21
 578 332 578 332 574 372 c 128,-1,22
 570 412 570 412 560 452.5 c 128,-1,23
 550 493 550 493 534 530.5 c 128,-1,24
 518 568 518 568 494 597.5 c 128,-1,25
 470 627 470 627 437 644.5 c 128,-1,26
 404 662 404 662 362 662 c 0,27,28
 311 662 311 662 278 636.5 c 128,-1,29
 245 611 245 611 226 572.5 c 128,-1,30
 207 534 207 534 200 488 c 128,-1,31
 193 442 193 442 193 401 c 0,32,33
 193 368 193 368 197.5 328 c 128,-1,34
 202 288 202 288 212 247 c 128,-1,35
 222 206 222 206 238.5 167.5 c 128,-1,36
 255 129 255 129 279 99 c 128,-1,37
 303 69 303 69 335.5 51 c 128,-1,38
 368 33 368 33 410 33 c 0,39,40
 464 33 464 33 497 58.5 c 128,-1,41
 530 84 530 84 548 123.5 c 128,-1,42
 566 163 566 163 572 210 c 128,-1,43
 578 257 578 257 578 299 c 0,20,21
EndSplineSet
Validated: 1
EndChar

StartChar: p
Encoding: 112 112 85
Width: 772
GlyphClass: 2
Flags: W
LayerCount: 2
Fore
SplineSet
721 371 m 0,0,1
 721 301 721 301 701 230.5 c 128,-1,2
 681 160 681 160 641 104 c 128,-1,3
 601 48 601 48 541.5 12.5 c 128,-1,4
 482 -23 482 -23 403 -23 c 0,5,6
 357 -23 357 -23 315.5 -7 c 128,-1,7
 274 9 274 9 240 41 c 1,8,-1
 240 -170 l 2,9,10
 240 -208 240 -208 243 -233 c 128,-1,11
 246 -258 246 -258 257.5 -273 c 128,-1,12
 269 -288 269 -288 292 -295 c 128,-1,13
 315 -302 315 -302 356 -303 c 1,14,-1
 356 -332 l 1,15,-1
 -8 -332 l 1,16,-1
 -8 -303 l 1,17,18
 34 -302 34 -302 58 -295.5 c 128,-1,19
 82 -289 82 -289 93.5 -274 c 128,-1,20
 105 -259 105 -259 108 -233 c 128,-1,21
 111 -207 111 -207 111 -166 c 2,22,-1
 111 487 l 2,23,24
 111 515 111 515 109.5 537.5 c 128,-1,25
 108 560 108 560 102.5 575.5 c 128,-1,26
 97 591 97 591 86 599.5 c 128,-1,27
 75 608 75 608 55 608 c 0,28,29
 28 608 28 608 4 596 c 1,30,-1
 -4 623 l 1,31,-1
 211 709 l 1,32,-1
 240 709 l 1,33,-1
 240 547 l 1,34,35
 258 578 258 578 280 607.5 c 128,-1,36
 302 637 302 637 329.5 660 c 128,-1,37
 357 683 357 683 389.5 697 c 128,-1,38
 422 711 422 711 461 711 c 0,39,40
 528 711 528 711 577.5 679.5 c 128,-1,41
 627 648 627 648 658.5 599 c 128,-1,42
 690 550 690 550 705.5 489.5 c 128,-1,43
 721 429 721 429 721 371 c 0,0,1
600 299 m 0,44,45
 600 347 600 347 591.5 402.5 c 128,-1,46
 583 458 583 458 561 506 c 128,-1,47
 539 554 539 554 500.5 586 c 128,-1,48
 462 618 462 618 401 618 c 0,49,50
 359 618 359 618 319.5 584 c 128,-1,51
 280 550 280 550 240 502 c 1,52,-1
 240 244 l 2,53,54
 240 201 240 201 245 161.5 c 128,-1,55
 250 122 250 122 267 91.5 c 128,-1,56
 284 61 284 61 315.5 43 c 128,-1,57
 347 25 347 25 401 25 c 0,58,59
 456 25 456 25 494.5 50.5 c 128,-1,60
 533 76 533 76 556 116 c 128,-1,61
 579 156 579 156 589.5 204.5 c 128,-1,62
 600 253 600 253 600 299 c 0,44,45
EndSplineSet
Validated: 1
EndChar

StartChar: q
Encoding: 113 113 86
Width: 772
GlyphClass: 2
Flags: W
LayerCount: 2
Fore
SplineSet
424 -332 m 1,0,-1
 424 -303 l 1,1,2
 461 -303 461 -303 483.5 -297 c 128,-1,3
 506 -291 506 -291 518 -276.5 c 128,-1,4
 530 -262 530 -262 533.5 -238 c 128,-1,5
 537 -214 537 -214 537 -178 c 2,6,-1
 537 121 l 1,7,8
 516 95 516 95 490.5 69.5 c 128,-1,9
 465 44 465 44 436.5 23.5 c 128,-1,10
 408 3 408 3 375.5 -10 c 128,-1,11
 343 -23 343 -23 309 -23 c 0,12,13
 244 -23 244 -23 195.5 8.5 c 128,-1,14
 147 40 147 40 115 89.5 c 128,-1,15
 83 139 83 139 67 198.5 c 128,-1,16
 51 258 51 258 51 315 c 0,17,18
 51 393 51 393 75.5 465 c 128,-1,19
 100 537 100 537 145.5 591.5 c 128,-1,20
 191 646 191 646 257.5 678.5 c 128,-1,21
 324 711 324 711 408 711 c 0,22,23
 445 711 445 711 483 701 c 128,-1,24
 521 691 521 691 549 662 c 1,25,26
 595 683 595 683 635 711 c 1,27,-1
 662 711 l 1,28,-1
 662 -178 l 2,29,30
 662 -213 662 -213 665.5 -237 c 128,-1,31
 669 -261 669 -261 680.5 -275.5 c 128,-1,32
 692 -290 692 -290 714 -296.5 c 128,-1,33
 736 -303 736 -303 774 -303 c 1,34,-1
 774 -332 l 1,35,-1
 424 -332 l 1,0,-1
537 492 m 2,36,37
 537 569 537 569 501 613 c 128,-1,38
 465 657 465 657 383 657 c 0,39,40
 324 657 324 657 285 630 c 128,-1,41
 246 603 246 603 222 561.5 c 128,-1,42
 198 520 198 520 188 469.5 c 128,-1,43
 178 419 178 419 178 371 c 0,44,45
 178 322 178 322 189 271 c 128,-1,46
 200 220 200 220 224.5 178.5 c 128,-1,47
 249 137 249 137 289 110.5 c 128,-1,48
 329 84 329 84 387 84 c 0,49,50
 432 84 432 84 470 109 c 128,-1,51
 508 134 508 134 537 166 c 1,52,-1
 537 492 l 2,36,37
EndSplineSet
Validated: 1
EndChar

StartChar: r
Encoding: 114 114 87
Width: 528
GlyphClass: 2
Flags: W
LayerCount: 2
Fore
SplineSet
526 627 m 0,0,1
 526 599 526 599 505.5 578 c 128,-1,2
 485 557 485 557 457 557 c 0,3,4
 438 557 438 557 424 565.5 c 128,-1,5
 410 574 410 574 397.5 583.5 c 128,-1,6
 385 593 385 593 374 601.5 c 128,-1,7
 363 610 363 610 350 610 c 0,8,9
 328 610 328 610 301 576 c 128,-1,10
 274 542 274 542 250 494 c 1,11,-1
 250 160 l 2,12,13
 250 94 250 94 275 61.5 c 128,-1,14
 300 29 300 29 371 29 c 1,15,-1
 371 0 l 1,16,-1
 14 0 l 1,17,-1
 14 29 l 1,18,19
 53 29 53 29 74.5 35 c 128,-1,20
 96 41 96 41 107 56 c 128,-1,21
 118 71 118 71 120.5 95.5 c 128,-1,22
 123 120 123 120 123 156 c 2,23,-1
 123 454 l 2,24,25
 123 490 123 490 121.5 518.5 c 128,-1,26
 120 547 120 547 114 567.5 c 128,-1,27
 108 588 108 588 95.5 599 c 128,-1,28
 83 610 83 610 61 610 c 256,29,30
 39 610 39 610 14 600 c 1,31,-1
 6 627 l 1,32,-1
 219 711 l 1,33,-1
 250 711 l 1,34,-1
 250 555 l 1,35,36
 263 579 263 579 281 606 c 128,-1,37
 299 633 299 633 321.5 656.5 c 128,-1,38
 344 680 344 680 370.5 695.5 c 128,-1,39
 397 711 397 711 428 711 c 0,40,41
 446 711 446 711 464 705.5 c 128,-1,42
 482 700 482 700 495.5 689 c 128,-1,43
 509 678 509 678 517.5 662.5 c 128,-1,44
 526 647 526 647 526 627 c 0,0,1
EndSplineSet
Validated: 1
EndChar

StartChar: s
Encoding: 115 115 88
Width: 602
GlyphClass: 2
Flags: W
LayerCount: 2
Fore
SplineSet
547 174 m 0,0,1
 547 129 547 129 526 93 c 128,-1,2
 505 57 505 57 472 31 c 128,-1,3
 439 5 439 5 397.5 -9 c 128,-1,4
 356 -23 356 -23 315 -23 c 0,5,6
 291 -23 291 -23 265.5 -15.5 c 128,-1,7
 240 -8 240 -8 216 1 c 128,-1,8
 192 10 192 10 170.5 17.5 c 128,-1,9
 149 25 149 25 131 25 c 0,10,11
 126 25 126 25 122 20.5 c 128,-1,12
 118 16 118 16 114.5 10.5 c 128,-1,13
 111 5 111 5 108.5 -1 c 128,-1,14
 106 -7 106 -7 104 -10 c 2,15,-1
 78 -10 l 1,16,-1
 78 236 l 1,17,-1
 104 236 l 1,18,19
 112 195 112 195 129 157 c 128,-1,20
 146 119 146 119 172.5 89.5 c 128,-1,21
 199 60 199 60 234.5 42.5 c 128,-1,22
 270 25 270 25 315 25 c 0,23,24
 338 25 338 25 359.5 31.5 c 128,-1,25
 381 38 381 38 397.5 51 c 128,-1,26
 414 64 414 64 424 83 c 128,-1,27
 434 102 434 102 434 127 c 0,28,29
 434 175 434 175 407.5 207.5 c 128,-1,30
 381 240 381 240 341 265 c 128,-1,31
 301 290 301 290 255 312.5 c 128,-1,32
 209 335 209 335 169 363.5 c 128,-1,33
 129 392 129 392 102.5 430.5 c 128,-1,34
 76 469 76 469 76 526 c 0,35,36
 76 574 76 574 95 608.5 c 128,-1,37
 114 643 114 643 145 666 c 128,-1,38
 176 689 176 689 216.5 700 c 128,-1,39
 257 711 257 711 299 711 c 0,40,41
 319 711 319 711 338 707 c 128,-1,42
 357 703 357 703 376 697.5 c 128,-1,43
 395 692 395 692 413.5 688 c 128,-1,44
 432 684 432 684 451 684 c 0,45,46
 463 684 463 684 470.5 692 c 128,-1,47
 478 700 478 700 483 711 c 1,48,-1
 510 711 l 1,49,-1
 510 475 l 1,50,-1
 483 475 l 1,51,52
 475 512 475 512 460.5 546.5 c 128,-1,53
 446 581 446 581 424 608 c 128,-1,54
 402 635 402 635 370.5 651.5 c 128,-1,55
 339 668 339 668 297 668 c 0,56,57
 275 668 275 668 251.5 664 c 128,-1,58
 228 660 228 660 208.5 650 c 128,-1,59
 189 640 189 640 176.5 621.5 c 128,-1,60
 164 603 164 603 164 575 c 0,61,62
 164 525 164 525 192.5 493.5 c 128,-1,63
 221 462 221 462 263.5 438.5 c 128,-1,64
 306 415 306 415 355.5 394 c 128,-1,65
 405 373 405 373 447.5 345.5 c 128,-1,66
 490 318 490 318 518.5 277.5 c 128,-1,67
 547 237 547 237 547 174 c 0,0,1
EndSplineSet
Validated: 1
EndChar

StartChar: t
Encoding: 116 116 89
Width: 430
GlyphClass: 2
Flags: W
LayerCount: 2
Fore
SplineSet
430 127 m 1,0,1
 422 98 422 98 406 71 c 128,-1,2
 390 44 390 44 367.5 23 c 128,-1,3
 345 2 345 2 317 -10.5 c 128,-1,4
 289 -23 289 -23 258 -23 c 0,5,6
 217 -23 217 -23 191 -7.5 c 128,-1,7
 165 8 165 8 149 33.5 c 128,-1,8
 133 59 133 59 127 92 c 128,-1,9
 121 125 121 125 121 160 c 2,10,-1
 121 639 l 1,11,-1
 12 639 l 1,12,-1
 12 662 l 1,13,14
 51 677 51 677 83.5 705 c 128,-1,15
 116 733 116 733 142.5 768.5 c 128,-1,16
 169 804 169 804 189.5 843 c 128,-1,17
 210 882 210 882 225 918 c 1,18,-1
 248 918 l 1,19,-1
 248 690 l 1,20,-1
 410 690 l 1,21,-1
 410 639 l 1,22,-1
 248 639 l 1,23,-1
 248 178 l 2,24,25
 248 161 248 161 250.5 141 c 128,-1,26
 253 121 253 121 260 103.5 c 128,-1,27
 267 86 267 86 280.5 74.5 c 128,-1,28
 294 63 294 63 315 63 c 0,29,30
 349 63 349 63 369 80.5 c 128,-1,31
 389 98 389 98 401 127 c 1,32,-1
 430 127 l 1,0,1
EndSplineSet
Validated: 1
EndChar

StartChar: u
Encoding: 117 117 90
Width: 772
GlyphClass: 2
Flags: W
LayerCount: 2
Fore
SplineSet
565 -23 m 1,0,-1
 530 -23 l 1,1,-1
 530 125 l 1,2,3
 507 100 507 100 481 74 c 128,-1,4
 455 48 455 48 425.5 26.5 c 128,-1,5
 396 5 396 5 363.5 -9 c 128,-1,6
 331 -23 331 -23 295 -23 c 0,7,8
 239 -23 239 -23 204 2 c 128,-1,9
 169 27 169 27 149.5 66 c 128,-1,10
 130 105 130 105 123.5 153 c 128,-1,11
 117 201 117 201 117 246 c 2,12,-1
 117 555 l 2,13,14
 117 589 117 589 111 610 c 128,-1,15
 105 631 105 631 91 642.5 c 128,-1,16
 77 654 77 654 54.5 658 c 128,-1,17
 32 662 32 662 0 662 c 1,18,-1
 0 690 l 1,19,-1
 244 690 l 1,20,-1
 244 229 l 2,21,22
 244 199 244 199 248.5 171 c 128,-1,23
 253 143 253 143 265.5 121 c 128,-1,24
 278 99 278 99 300.5 85.5 c 128,-1,25
 323 72 323 72 358 72 c 0,26,27
 383 72 383 72 407 81 c 128,-1,28
 431 90 431 90 453 104 c 128,-1,29
 475 118 475 118 494.5 135.5 c 128,-1,30
 514 153 514 153 530 170 c 1,31,-1
 530 561 l 2,32,33
 530 592 530 592 523.5 612 c 128,-1,34
 517 632 517 632 503.5 643 c 128,-1,35
 490 654 490 654 468.5 658 c 128,-1,36
 447 662 447 662 418 662 c 1,37,-1
 418 690 l 1,38,-1
 655 690 l 1,39,-1
 655 182 l 2,40,41
 655 171 655 171 656 153 c 128,-1,42
 657 135 657 135 661.5 118.5 c 128,-1,43
 666 102 666 102 675.5 90 c 128,-1,44
 685 78 685 78 702 78 c 0,45,46
 732 78 732 78 764 90 c 1,47,-1
 774 63 l 1,48,-1
 565 -23 l 1,0,-1
EndSplineSet
Validated: 1
EndChar

StartChar: v
Encoding: 118 118 91
Width: 772
GlyphClass: 2
Flags: W
LayerCount: 2
Fore
SplineSet
758 662 m 1,0,1
 734 661 734 661 718 654.5 c 128,-1,2
 702 648 702 648 691 636.5 c 128,-1,3
 680 625 680 625 672 608.5 c 128,-1,4
 664 592 664 592 655 571 c 2,5,-1
 412 -23 l 1,6,-1
 381 -23 l 1,7,-1
 133 563 l 2,8,9
 122 588 122 588 111.5 605 c 128,-1,10
 101 622 101 622 87.5 633 c 128,-1,11
 74 644 74 644 55.5 651 c 128,-1,12
 37 658 37 658 12 662 c 1,13,-1
 12 690 l 1,14,-1
 338 690 l 1,15,-1
 338 662 l 1,16,17
 322 662 322 662 307 661 c 128,-1,18
 292 660 292 660 281 655 c 128,-1,19
 270 650 270 650 263 639 c 128,-1,20
 256 628 256 628 256 608 c 0,21,22
 256 591 256 591 261 576 c 128,-1,23
 266 561 266 561 272 547 c 2,24,-1
 432 166 l 1,25,-1
 594 563 l 2,26,27
 600 577 600 577 605 593.5 c 128,-1,28
 610 610 610 610 610 627 c 0,29,30
 610 639 610 639 603.5 646 c 128,-1,31
 597 653 597 653 586 656.5 c 128,-1,32
 575 660 575 660 561 661 c 128,-1,33
 547 662 547 662 532 662 c 1,34,-1
 532 690 l 1,35,-1
 758 690 l 1,36,-1
 758 662 l 1,0,1
EndSplineSet
Validated: 1
EndChar

StartChar: w
Encoding: 119 119 92
Width: 1114
GlyphClass: 2
Flags: W
LayerCount: 2
Fore
SplineSet
1102 662 m 1,0,1
 1065 657 1065 657 1041.5 633.5 c 128,-1,2
 1018 610 1018 610 1004 575 c 2,3,-1
 774 -23 l 1,4,-1
 743 -23 l 1,5,-1
 569 420 l 1,6,-1
 371 -23 l 1,7,-1
 342 -23 l 1,8,-1
 119 559 l 2,9,10
 110 583 110 583 101.5 600.5 c 128,-1,11
 93 618 93 618 81 630 c 128,-1,12
 69 642 69 642 52 649.5 c 128,-1,13
 35 657 35 657 8 662 c 1,14,-1
 8 690 l 1,15,-1
 299 690 l 1,16,-1
 299 662 l 1,17,18
 274 662 274 662 255 653.5 c 128,-1,19
 236 645 236 645 236 614 c 0,20,21
 236 600 236 600 238.5 585.5 c 128,-1,22
 241 571 241 571 246 559 c 2,23,-1
 395 162 l 1,24,-1
 543 485 l 1,25,26
 530 521 530 521 521 552.5 c 128,-1,27
 512 584 512 584 497.5 608 c 128,-1,28
 483 632 483 632 460 646.5 c 128,-1,29
 437 661 437 661 395 662 c 1,30,-1
 395 690 l 1,31,-1
 725 690 l 1,32,-1
 725 662 l 1,33,34
 708 661 708 661 691.5 659 c 128,-1,35
 675 657 675 657 661.5 651.5 c 128,-1,36
 648 646 648 646 639.5 634.5 c 128,-1,37
 631 623 631 623 631 602 c 0,38,39
 631 594 631 594 641.5 563 c 128,-1,40
 652 532 652 532 668.5 489 c 128,-1,41
 685 446 685 446 705 397.5 c 128,-1,42
 725 349 725 349 743.5 304.5 c 128,-1,43
 762 260 762 260 776.5 225.5 c 128,-1,44
 791 191 791 191 797 178 c 1,45,-1
 940 559 l 2,46,47
 946 575 946 575 951 591.5 c 128,-1,48
 956 608 956 608 956 625 c 0,49,50
 956 638 956 638 948 645 c 128,-1,51
 940 652 940 652 929 656 c 128,-1,52
 918 660 918 660 905.5 661 c 128,-1,53
 893 662 893 662 883 662 c 1,54,-1
 883 690 l 1,55,-1
 1102 690 l 1,56,-1
 1102 662 l 1,0,1
EndSplineSet
Validated: 1
EndChar

StartChar: x
Encoding: 120 120 93
Width: 772
GlyphClass: 2
Flags: W
LayerCount: 2
Fore
SplineSet
428 0 m 1,0,-1
 428 29 l 1,1,2
 439 29 439 29 451 30.5 c 128,-1,3
 463 32 463 32 473 36.5 c 128,-1,4
 483 41 483 41 489.5 49.5 c 128,-1,5
 496 58 496 58 496 72 c 0,6,7
 496 79 496 79 486.5 96.5 c 128,-1,8
 477 114 477 114 462 137.5 c 128,-1,9
 447 161 447 161 429.5 187 c 128,-1,10
 412 213 412 213 395 236.5 c 128,-1,11
 378 260 378 260 365 278.5 c 128,-1,12
 352 297 352 297 346 305 c 1,13,14
 339 296 339 296 324 278 c 128,-1,15
 309 260 309 260 291 237.5 c 128,-1,16
 273 215 273 215 254 190.5 c 128,-1,17
 235 166 235 166 219.5 143 c 128,-1,18
 204 120 204 120 194 102 c 128,-1,19
 184 84 184 84 184 74 c 0,20,21
 184 60 184 60 190.5 51.5 c 128,-1,22
 197 43 197 43 207 38 c 128,-1,23
 217 33 217 33 229 31 c 128,-1,24
 241 29 241 29 252 29 c 1,25,-1
 252 0 l 1,26,-1
 27 0 l 1,27,-1
 27 29 l 1,28,29
 42 29 42 29 55.5 35.5 c 128,-1,30
 69 42 69 42 85.5 57 c 128,-1,31
 102 72 102 72 122 96.5 c 128,-1,32
 142 121 142 121 170 158 c 2,33,-1
 315 350 l 1,34,-1
 184 541 l 2,35,36
 166 568 166 568 149.5 589.5 c 128,-1,37
 133 611 133 611 114.5 627 c 128,-1,38
 96 643 96 643 73.5 652 c 128,-1,39
 51 661 51 661 20 662 c 1,40,-1
 20 690 l 1,41,-1
 346 690 l 1,42,-1
 346 662 l 1,43,-1
 338 662 l 2,44,45
 318 662 318 662 303.5 655 c 128,-1,46
 289 648 289 648 289 625 c 0,47,48
 289 616 289 616 302.5 592 c 128,-1,49
 316 568 316 568 333.5 540 c 128,-1,50
 351 512 351 512 367.5 487.5 c 128,-1,51
 384 463 384 463 391 453 c 1,52,53
 398 463 398 463 416.5 487.5 c 128,-1,54
 435 512 435 512 454 539.5 c 128,-1,55
 473 567 473 567 487.5 592 c 128,-1,56
 502 617 502 617 502 627 c 0,57,58
 502 649 502 649 483.5 655.5 c 128,-1,59
 465 662 465 662 446 662 c 1,60,-1
 446 690 l 1,61,-1
 680 690 l 1,62,-1
 680 662 l 1,63,64
 640 661 640 661 601.5 630.5 c 128,-1,65
 563 600 563 600 529.5 559 c 128,-1,66
 496 518 496 518 468 475 c 128,-1,67
 440 432 440 432 421 406 c 1,68,-1
 600 152 l 2,69,70
 627 113 627 113 646.5 89 c 128,-1,71
 666 65 666 65 683 52 c 128,-1,72
 700 39 700 39 716.5 34.5 c 128,-1,73
 733 30 733 30 754 29 c 1,74,-1
 754 0 l 1,75,-1
 428 0 l 1,0,-1
EndSplineSet
Validated: 1
EndChar

StartChar: y
Encoding: 121 121 94
Width: 772
GlyphClass: 2
Flags: W
LayerCount: 2
Fore
SplineSet
764 662 m 1,0,1
 740 660 740 660 724.5 651.5 c 128,-1,2
 709 643 709 643 698 629.5 c 128,-1,3
 687 616 687 616 679 598 c 128,-1,4
 671 580 671 580 662 559 c 2,5,-1
 381 -131 l 2,6,7
 366 -166 366 -166 343.5 -202.5 c 128,-1,8
 321 -239 321 -239 291 -268 c 128,-1,9
 261 -297 261 -297 225 -315.5 c 128,-1,10
 189 -334 189 -334 147 -334 c 0,11,12
 128 -334 128 -334 109.5 -328.5 c 128,-1,13
 91 -323 91 -323 77 -312 c 128,-1,14
 63 -301 63 -301 54 -285 c 128,-1,15
 45 -269 45 -269 45 -248 c 0,16,17
 45 -211 45 -211 66 -195.5 c 128,-1,18
 87 -180 87 -180 121 -180 c 0,19,20
 135 -180 135 -180 148.5 -184 c 128,-1,21
 162 -188 162 -188 175.5 -193.5 c 128,-1,22
 189 -199 189 -199 202 -203 c 128,-1,23
 215 -207 215 -207 227 -207 c 0,24,25
 247 -207 247 -207 265 -192.5 c 128,-1,26
 283 -178 283 -178 298.5 -155.5 c 128,-1,27
 314 -133 314 -133 327 -105.5 c 128,-1,28
 340 -78 340 -78 350.5 -52 c 128,-1,29
 361 -26 361 -26 368.5 -4 c 128,-1,30
 376 18 376 18 381 29 c 1,31,-1
 133 549 l 2,32,33
 123 569 123 569 112 588.5 c 128,-1,34
 101 608 101 608 86.5 623.5 c 128,-1,35
 72 639 72 639 52.5 649 c 128,-1,36
 33 659 33 659 8 662 c 1,37,-1
 8 690 l 1,38,-1
 332 690 l 1,39,-1
 332 662 l 1,40,41
 317 662 317 662 302 661 c 128,-1,42
 287 660 287 660 274.5 655.5 c 128,-1,43
 262 651 262 651 254 641 c 128,-1,44
 246 631 246 631 246 612 c 0,45,46
 246 591 246 591 254.5 570 c 128,-1,47
 263 549 263 549 272 530 c 2,48,-1
 440 182 l 1,49,-1
 594 565 l 2,50,51
 600 579 600 579 605 593 c 128,-1,52
 610 607 610 607 610 621 c 0,53,54
 610 636 610 636 603.5 644.5 c 128,-1,55
 597 653 597 653 586.5 657 c 128,-1,56
 576 661 576 661 563.5 661.5 c 128,-1,57
 551 662 551 662 539 662 c 1,58,-1
 539 690 l 1,59,-1
 764 690 l 1,60,-1
 764 662 l 1,0,1
EndSplineSet
Validated: 1
EndChar

StartChar: z
Encoding: 122 122 95
Width: 686
GlyphClass: 2
Flags: W
LayerCount: 2
Fore
SplineSet
197 51 m 1,0,-1
 451 51 l 2,1,2
 504 51 504 51 535 57.5 c 128,-1,3
 566 64 566 64 583.5 81.5 c 128,-1,4
 601 99 601 99 609 130 c 128,-1,5
 617 161 617 161 623 211 c 1,6,-1
 649 211 l 1,7,-1
 639 0 l 1,8,-1
 31 0 l 1,9,-1
 31 29 l 1,10,-1
 489 639 l 1,11,-1
 262 639 l 2,12,13
 219 639 219 639 191 634 c 128,-1,14
 163 629 163 629 145.5 614 c 128,-1,15
 128 599 128 599 119.5 571.5 c 128,-1,16
 111 544 111 544 106 500 c 1,17,-1
 78 500 l 1,18,-1
 82 690 l 1,19,-1
 662 690 l 1,20,-1
 662 662 l 1,21,-1
 197 51 l 1,0,-1
EndSplineSet
Validated: 1
EndChar

StartChar: braceleft
Encoding: 123 123 96
Width: 737
GlyphClass: 2
Flags: W
LayerCount: 2
Fore
SplineSet
584 -332 m 1,0,1
 529 -326 529 -326 478.5 -301.5 c 128,-1,2
 428 -277 428 -277 389 -238.5 c 128,-1,3
 350 -200 350 -200 326.5 -150 c 128,-1,4
 303 -100 303 -100 303 -43 c 0,5,6
 303 -14 303 -14 308.5 14.5 c 128,-1,7
 314 43 314 43 320.5 71.5 c 128,-1,8
 327 100 327 100 332.5 128.5 c 128,-1,9
 338 157 338 157 338 186 c 0,10,11
 338 219 338 219 322.5 247.5 c 128,-1,12
 307 276 307 276 282 297.5 c 128,-1,13
 257 319 257 319 226 332.5 c 128,-1,14
 195 346 195 346 164 350 c 1,15,-1
 164 389 l 1,16,17
 195 393 195 393 226 406.5 c 128,-1,18
 257 420 257 420 282 441 c 128,-1,19
 307 462 307 462 322.5 490 c 128,-1,20
 338 518 338 518 338 551 c 0,21,22
 338 582 338 582 332.5 612 c 128,-1,23
 327 642 327 642 320.5 672 c 128,-1,24
 314 702 314 702 308.5 732 c 128,-1,25
 303 762 303 762 303 793 c 0,26,27
 303 849 303 849 327 897.5 c 128,-1,28
 351 946 351 946 391 982.5 c 128,-1,29
 431 1019 431 1019 481 1042.5 c 128,-1,30
 531 1066 531 1066 584 1071 c 1,31,-1
 584 1044 l 1,32,33
 505 1026 505 1026 460.5 977.5 c 128,-1,34
 416 929 416 929 416 846 c 0,35,36
 416 820 416 820 421 794 c 128,-1,37
 426 768 426 768 432.5 742 c 128,-1,38
 439 716 439 716 444 690 c 128,-1,39
 449 664 449 664 449 637 c 0,40,41
 449 534 449 534 392.5 469.5 c 128,-1,42
 336 405 336 405 242 371 c 1,43,44
 337 336 337 336 393 270.5 c 128,-1,45
 449 205 449 205 449 100 c 0,46,47
 449 73 449 73 444 47.5 c 128,-1,48
 439 22 439 22 432.5 -3.5 c 128,-1,49
 426 -29 426 -29 421 -54.5 c 128,-1,50
 416 -80 416 -80 416 -106 c 0,51,52
 416 -190 416 -190 460.5 -238.5 c 128,-1,53
 505 -287 505 -287 584 -305 c 1,54,-1
 584 -332 l 1,0,1
EndSplineSet
Validated: 1
EndChar

StartChar: bar
Encoding: 124 124 97
Width: 309
GlyphClass: 2
Flags: W
LayerCount: 2
Fore
SplineSet
121 -334 m 1,0,-1
 121 1071 l 1,1,-1
 186 1071 l 1,2,-1
 186 -334 l 1,3,-1
 121 -334 l 1,0,-1
EndSplineSet
Validated: 1
EndChar

StartChar: braceright
Encoding: 125 125 98
Width: 737
GlyphClass: 2
Flags: W
LayerCount: 2
Fore
SplineSet
573 350 m 1,0,1
 543 346 543 346 512 332.5 c 128,-1,2
 481 319 481 319 456.5 297.5 c 128,-1,3
 432 276 432 276 416.5 247.5 c 128,-1,4
 401 219 401 219 401 186 c 0,5,6
 401 157 401 157 406 128.5 c 128,-1,7
 411 100 411 100 417.5 71.5 c 128,-1,8
 424 43 424 43 429 14.5 c 128,-1,9
 434 -14 434 -14 434 -43 c 0,10,11
 434 -100 434 -100 410.5 -150 c 128,-1,12
 387 -200 387 -200 348 -238.5 c 128,-1,13
 309 -277 309 -277 258.5 -301.5 c 128,-1,14
 208 -326 208 -326 154 -332 c 1,15,-1
 154 -305 l 1,16,17
 232 -287 232 -287 277 -238.5 c 128,-1,18
 322 -190 322 -190 322 -106 c 0,19,20
 322 -80 322 -80 317 -54.5 c 128,-1,21
 312 -29 312 -29 305.5 -3.5 c 128,-1,22
 299 22 299 22 294 47.5 c 128,-1,23
 289 73 289 73 289 100 c 0,24,25
 289 152 289 152 304 194.5 c 128,-1,26
 319 237 319 237 346 270.5 c 128,-1,27
 373 304 373 304 411 328.5 c 128,-1,28
 449 353 449 353 496 371 c 1,29,30
 402 405 402 405 345.5 469.5 c 128,-1,31
 289 534 289 534 289 637 c 0,32,33
 289 664 289 664 294 690 c 128,-1,34
 299 716 299 716 305.5 742 c 128,-1,35
 312 768 312 768 317 794 c 128,-1,36
 322 820 322 820 322 846 c 0,37,38
 322 929 322 929 277 977.5 c 128,-1,39
 232 1026 232 1026 154 1044 c 1,40,-1
 154 1071 l 1,41,42
 207 1066 207 1066 257.5 1042.5 c 128,-1,43
 308 1019 308 1019 347 982.5 c 128,-1,44
 386 946 386 946 410 897.5 c 128,-1,45
 434 849 434 849 434 793 c 0,46,47
 434 762 434 762 429 732 c 128,-1,48
 424 702 424 702 417.5 672 c 128,-1,49
 411 642 411 642 406 612 c 128,-1,50
 401 582 401 582 401 551 c 0,51,52
 401 518 401 518 416.5 490 c 128,-1,53
 432 462 432 462 456.5 441 c 128,-1,54
 481 420 481 420 512 406.5 c 128,-1,55
 543 393 543 393 573 389 c 1,56,-1
 573 350 l 1,0,1
EndSplineSet
Validated: 1
EndChar

StartChar: asciitilde
Encoding: 126 126 99
Width: 840
GlyphClass: 2
Flags: W
LayerCount: 2
Fore
SplineSet
811 475 m 1,0,1
 795 444 795 444 774 414.5 c 128,-1,2
 753 385 753 385 726.5 362 c 128,-1,3
 700 339 700 339 668 325 c 128,-1,4
 636 311 636 311 598 311 c 0,5,6
 551 311 551 311 506 328.5 c 128,-1,7
 461 346 461 346 416 366.5 c 128,-1,8
 371 387 371 387 326.5 404.5 c 128,-1,9
 282 422 282 422 236 422 c 0,10,11
 205 422 205 422 181 408.5 c 128,-1,12
 157 395 157 395 137.5 374 c 128,-1,13
 118 353 118 353 102 328 c 128,-1,14
 86 303 86 303 72 279 c 1,15,-1
 31 334 l 1,16,17
 48 366 48 366 67.5 398 c 128,-1,18
 87 430 87 430 112.5 455.5 c 128,-1,19
 138 481 138 481 170 496.5 c 128,-1,20
 202 512 202 512 244 512 c 0,21,22
 287 512 287 512 335 494 c 128,-1,23
 383 476 383 476 431 454.5 c 128,-1,24
 479 433 479 433 524 415 c 128,-1,25
 569 397 569 397 606 397 c 0,26,27
 635 397 635 397 659.5 409 c 128,-1,28
 684 421 684 421 704 440 c 128,-1,29
 724 459 724 459 740 483.5 c 128,-1,30
 756 508 756 508 768 532 c 1,31,-1
 811 475 l 1,0,1
EndSplineSet
Validated: 1
EndChar

StartChar: Euro
Encoding: 8364 8364 100
Width: 950
Flags: W
LayerCount: 2
Fore
SplineSet
895 199 m 1,0,1
 863 143 863 143 831.5 101.5 c 128,-1,2
 800 60 800 60 761 31.5 c 128,-1,3
 722 3 722 3 671.5 -11 c 128,-1,4
 621 -25 621 -25 553 -25 c 0,5,6
 469 -25 469 -25 396 5 c 128,-1,7
 323 35 323 35 266 88.5 c 128,-1,8
 209 142 209 142 170 216 c 128,-1,9
 131 290 131 290 115 379 c 1,10,-1
 2 379 l 1,11,-1
 33 453 l 1,12,-1
 106 453 l 1,13,14
 104 464 104 464 104 476.5 c 128,-1,15
 104 489 104 489 104 501 c 256,16,17
 104 513 104 513 104 525.5 c 128,-1,18
 104 538 104 538 106 551 c 1,19,-1
 0 551 l 1,20,-1
 31 625 l 1,21,-1
 117 625 l 1,22,23
 134 715 134 715 173.5 792 c 128,-1,24
 213 869 213 869 272.5 925 c 128,-1,25
 332 981 332 981 408.5 1012.5 c 128,-1,26
 485 1044 485 1044 575 1044 c 0,27,28
 621 1044 621 1044 655 1033 c 128,-1,29
 689 1022 689 1022 712 1009.5 c 128,-1,30
 735 997 735 997 747 986 c 128,-1,31
 759 975 759 975 762 975 c 0,32,33
 777 975 777 975 796.5 988.5 c 128,-1,34
 816 1002 816 1002 827 1044 c 1,35,-1
 854 1044 l 1,36,-1
 872 748 l 1,37,-1
 850 748 l 1,38,39
 835 797 835 797 809.5 841 c 128,-1,40
 784 885 784 885 750.5 918.5 c 128,-1,41
 717 952 717 952 676 971.5 c 128,-1,42
 635 991 635 991 588 991 c 0,43,44
 510 991 510 991 455.5 961 c 128,-1,45
 401 931 401 931 365.5 880 c 128,-1,46
 330 829 330 829 311 763 c 128,-1,47
 292 697 292 697 285 625 c 1,48,-1
 766 625 l 1,49,-1
 735 551 l 1,50,-1
 278 551 l 1,51,52
 276 539 276 539 276 526.5 c 128,-1,53
 276 514 276 514 276 502 c 256,54,55
 276 490 276 490 276 477.5 c 128,-1,56
 276 465 276 465 278 453 c 1,57,-1
 709 453 l 1,58,-1
 678 379 l 1,59,-1
 285 379 l 1,60,61
 295 307 295 307 318.5 245.5 c 128,-1,62
 342 184 342 184 381.5 139 c 128,-1,63
 421 94 421 94 477.5 68.5 c 128,-1,64
 534 43 534 43 610 43 c 0,65,66
 696 43 696 43 757.5 90 c 128,-1,67
 819 137 819 137 872 215 c 1,68,-1
 895 199 l 1,0,1
EndSplineSet
Validated: 1
EndChar

StartChar: quotesinglbase
Encoding: 8218 8218 101
Width: 514
Flags: W
LayerCount: 2
Fore
SplineSet
375 0 m 0,0,1
 375 -48 375 -48 360.5 -86.5 c 128,-1,2
 346 -125 346 -125 320.5 -154.5 c 128,-1,3
 295 -184 295 -184 259 -205 c 128,-1,4
 223 -226 223 -226 180 -240 c 1,5,-1
 180 -209 l 1,6,7
 201 -197 201 -197 223 -180.5 c 128,-1,8
 245 -164 245 -164 263.5 -144.5 c 128,-1,9
 282 -125 282 -125 293.5 -101.5 c 128,-1,10
 305 -78 305 -78 305 -51 c 0,11,12
 305 -37 305 -37 301 -21.5 c 128,-1,13
 297 -6 297 -6 279 -6 c 0,14,15
 263 -6 263 -6 249 -12 c 128,-1,16
 235 -18 235 -18 221 -18 c 0,17,18
 205 -18 205 -18 191 -11.5 c 128,-1,19
 177 -5 177 -5 167 6 c 128,-1,20
 157 17 157 17 151 31.5 c 128,-1,21
 145 46 145 46 145 61 c 0,22,23
 145 82 145 82 153.5 98.5 c 128,-1,24
 162 115 162 115 176.5 126.5 c 128,-1,25
 191 138 191 138 209 144 c 128,-1,26
 227 150 227 150 246 150 c 0,27,28
 275 150 275 150 299 136.5 c 128,-1,29
 323 123 323 123 340 102 c 128,-1,30
 357 81 357 81 366 54 c 128,-1,31
 375 27 375 27 375 0 c 0,0,1
EndSplineSet
Validated: 1
EndChar

StartChar: florin
Encoding: 402 402 102
Width: 772
Flags: W
LayerCount: 2
Fore
SplineSet
754 963 m 0,0,1
 754 937 754 937 742 920 c 128,-1,2
 730 903 730 903 702 903 c 0,3,4
 681 903 681 903 668 912.5 c 128,-1,5
 655 922 655 922 655 944 c 0,6,7
 655 957 655 957 663.5 971 c 128,-1,8
 672 985 672 985 672 991 c 0,9,10
 672 1004 672 1004 664 1008 c 128,-1,11
 656 1012 656 1012 645 1012 c 0,12,13
 620 1012 620 1012 602 990.5 c 128,-1,14
 584 969 584 969 570.5 935 c 128,-1,15
 557 901 557 901 548.5 860 c 128,-1,16
 540 819 540 819 534 780 c 128,-1,17
 528 741 528 741 524 708 c 128,-1,18
 520 675 520 675 518 659 c 1,19,-1
 651 659 l 1,20,-1
 639 610 l 1,21,-1
 508 610 l 1,22,23
 485 474 485 474 449.5 341.5 c 128,-1,24
 414 209 414 209 378 76 c 0,25,26
 369 43 369 43 356.5 1 c 128,-1,27
 344 -41 344 -41 326.5 -85.5 c 128,-1,28
 309 -130 309 -130 286.5 -173 c 128,-1,29
 264 -216 264 -216 235.5 -249.5 c 128,-1,30
 207 -283 207 -283 171 -303.5 c 128,-1,31
 135 -324 135 -324 92 -324 c 0,32,33
 57 -324 57 -324 29.5 -304 c 128,-1,34
 2 -284 2 -284 2 -246 c 0,35,36
 2 -217 2 -217 15 -198.5 c 128,-1,37
 28 -180 28 -180 59 -180 c 0,38,39
 76 -180 76 -180 92.5 -191.5 c 128,-1,40
 109 -203 109 -203 109 -221 c 0,41,42
 109 -235 109 -235 99.5 -245.5 c 128,-1,43
 90 -256 90 -256 90 -264 c 0,44,45
 90 -273 90 -273 96.5 -276 c 128,-1,46
 103 -279 103 -279 111 -279 c 0,47,48
 137 -279 137 -279 156.5 -257 c 128,-1,49
 176 -235 176 -235 190.5 -204.5 c 128,-1,50
 205 -174 205 -174 214 -142.5 c 128,-1,51
 223 -111 223 -111 228 -92 c 0,52,53
 248 -15 248 -15 262.5 64 c 128,-1,54
 277 143 277 143 293 221 c 0,55,56
 313 320 313 320 336.5 416.5 c 128,-1,57
 360 513 360 513 385 610 c 1,58,-1
 254 610 l 1,59,-1
 264 659 l 1,60,61
 275 660 275 660 291.5 661.5 c 128,-1,62
 308 663 308 663 325 666 c 128,-1,63
 342 669 342 669 357 673 c 128,-1,64
 372 677 372 677 381 684 c 0,65,66
 398 698 398 698 411 730 c 128,-1,67
 424 762 424 762 437.5 802 c 128,-1,68
 451 842 451 842 468 884.5 c 128,-1,69
 485 927 485 927 509 962.5 c 128,-1,70
 533 998 533 998 567.5 1021 c 128,-1,71
 602 1044 602 1044 651 1044 c 0,72,73
 669 1044 669 1044 687.5 1039 c 128,-1,74
 706 1034 706 1034 721 1024 c 128,-1,75
 736 1014 736 1014 745 999 c 128,-1,76
 754 984 754 984 754 963 c 0,0,1
EndSplineSet
Validated: 1
EndChar

StartChar: quotedblbase
Encoding: 8222 8222 103
Width: 684
Flags: W
LayerCount: 2
Fore
SplineSet
641 -2 m 0,0,1
 641 -50 641 -50 626.5 -88 c 128,-1,2
 612 -126 612 -126 586.5 -155 c 128,-1,3
 561 -184 561 -184 525 -205.5 c 128,-1,4
 489 -227 489 -227 446 -242 c 1,5,-1
 446 -209 l 1,6,7
 466 -197 466 -197 488 -181 c 128,-1,8
 510 -165 510 -165 528.5 -145.5 c 128,-1,9
 547 -126 547 -126 559 -103 c 128,-1,10
 571 -80 571 -80 571 -53 c 0,11,12
 571 -39 571 -39 566 -23.5 c 128,-1,13
 561 -8 561 -8 543 -8 c 0,14,15
 529 -8 529 -8 515 -13 c 128,-1,16
 501 -18 501 -18 487 -18 c 0,17,18
 455 -18 455 -18 433.5 5.5 c 128,-1,19
 412 29 412 29 412 61 c 0,20,21
 412 81 412 81 420 97.5 c 128,-1,22
 428 114 428 114 441.5 125.5 c 128,-1,23
 455 137 455 137 473 143.5 c 128,-1,24
 491 150 491 150 510 150 c 0,25,26
 540 150 540 150 564 136.5 c 128,-1,27
 588 123 588 123 605.5 101.5 c 128,-1,28
 623 80 623 80 632 53 c 128,-1,29
 641 26 641 26 641 -2 c 0,0,1
281 0 m 0,30,31
 281 -48 281 -48 266.5 -86.5 c 128,-1,32
 252 -125 252 -125 226 -154.5 c 128,-1,33
 200 -184 200 -184 164 -205 c 128,-1,34
 128 -226 128 -226 84 -240 c 1,35,-1
 84 -209 l 1,36,37
 105 -197 105 -197 127 -180.5 c 128,-1,38
 149 -164 149 -164 168 -144.5 c 128,-1,39
 187 -125 187 -125 199 -101.5 c 128,-1,40
 211 -78 211 -78 211 -51 c 0,41,42
 211 -44 211 -44 210 -36.5 c 128,-1,43
 209 -29 209 -29 206 -22 c 128,-1,44
 203 -15 203 -15 197 -10.5 c 128,-1,45
 191 -6 191 -6 182 -6 c 0,46,47
 168 -6 168 -6 154.5 -12 c 128,-1,48
 141 -18 141 -18 127 -18 c 0,49,50
 93 -18 93 -18 72 6 c 128,-1,51
 51 30 51 30 51 61 c 0,52,53
 51 103 51 103 81 126.5 c 128,-1,54
 111 150 111 150 150 150 c 0,55,56
 180 150 180 150 204 136.5 c 128,-1,57
 228 123 228 123 245 102 c 128,-1,58
 262 81 262 81 271.5 54 c 128,-1,59
 281 27 281 27 281 0 c 0,30,31
EndSplineSet
Validated: 1
EndChar

StartChar: ellipsis
Encoding: 8230 8230 104
Width: 1546
Flags: W
LayerCount: 2
Fore
SplineSet
1372 63 m 0,0,1
 1372 28 1372 28 1348.5 2.5 c 128,-1,2
 1325 -23 1325 -23 1288 -23 c 256,3,4
 1251 -23 1251 -23 1228.5 2.5 c 128,-1,5
 1206 28 1206 28 1206 63 c 0,6,7
 1206 99 1206 99 1229.5 123 c 128,-1,8
 1253 147 1253 147 1288 147 c 256,9,10
 1323 147 1323 147 1347.5 123 c 128,-1,11
 1372 99 1372 99 1372 63 c 0,0,1
856 63 m 0,12,13
 856 28 856 28 831.5 2.5 c 128,-1,14
 807 -23 807 -23 772 -23 c 0,15,16
 735 -23 735 -23 711.5 2.5 c 128,-1,17
 688 28 688 28 688 63 c 0,18,19
 688 99 688 99 712.5 123 c 128,-1,20
 737 147 737 147 772 147 c 256,21,22
 807 147 807 147 831.5 123 c 128,-1,23
 856 99 856 99 856 63 c 0,12,13
342 63 m 0,24,25
 342 28 342 28 318.5 2.5 c 128,-1,26
 295 -23 295 -23 258 -23 c 256,27,28
 221 -23 221 -23 198.5 2.5 c 128,-1,29
 176 28 176 28 176 63 c 0,30,31
 176 99 176 99 199.5 123 c 128,-1,32
 223 147 223 147 258 147 c 256,33,34
 293 147 293 147 317.5 123 c 128,-1,35
 342 99 342 99 342 63 c 0,24,25
EndSplineSet
Validated: 1
EndChar

StartChar: dagger
Encoding: 8224 8224 105
Width: 772
Flags: W
LayerCount: 2
Fore
SplineSet
696 688 m 0,0,1
 696 653 696 653 673.5 634.5 c 128,-1,2
 651 616 651 616 618 616 c 0,3,4
 589 616 589 616 562.5 624 c 128,-1,5
 536 632 536 632 509 642.5 c 128,-1,6
 482 653 482 653 454 662.5 c 128,-1,7
 426 672 426 672 395 674 c 1,8,9
 397 623 397 623 414 576.5 c 128,-1,10
 431 530 431 530 471 498 c 1,11,12
 445 398 445 398 431.5 296.5 c 128,-1,13
 418 195 418 195 410.5 93 c 128,-1,14
 403 -9 403 -9 400.5 -111 c 128,-1,15
 398 -213 398 -213 395 -315 c 1,16,-1
 369 -315 l 1,17,18
 367 -214 367 -214 364.5 -111.5 c 128,-1,19
 362 -9 362 -9 354.5 93.5 c 128,-1,20
 347 196 347 196 332 297.5 c 128,-1,21
 317 399 317 399 291 498 c 1,22,23
 314 517 314 517 327.5 536.5 c 128,-1,24
 341 556 341 556 349.5 577 c 128,-1,25
 358 598 358 598 362 621.5 c 128,-1,26
 366 645 366 645 369 674 c 1,27,28
 340 673 340 673 313 664 c 128,-1,29
 286 655 286 655 259.5 644.5 c 128,-1,30
 233 634 233 634 207 625 c 128,-1,31
 181 616 181 616 154 616 c 0,32,33
 116 616 116 616 96 633 c 128,-1,34
 76 650 76 650 76 688 c 0,35,36
 76 704 76 704 82.5 718 c 128,-1,37
 89 732 89 732 99.5 742 c 128,-1,38
 110 752 110 752 124.5 758 c 128,-1,39
 139 764 139 764 154 764 c 0,40,41
 177 764 177 764 202 754.5 c 128,-1,42
 227 745 227 745 254 734 c 128,-1,43
 281 723 281 723 309.5 713 c 128,-1,44
 338 703 338 703 369 702 c 1,45,46
 369 737 369 737 358 768.5 c 128,-1,47
 347 800 347 800 334 831 c 128,-1,48
 321 862 321 862 310 893.5 c 128,-1,49
 299 925 299 925 299 961 c 0,50,51
 299 999 299 999 320.5 1028 c 128,-1,52
 342 1057 342 1057 383 1057 c 0,53,54
 402 1057 402 1057 417.5 1048.5 c 128,-1,55
 433 1040 433 1040 443.5 1026.5 c 128,-1,56
 454 1013 454 1013 459.5 996 c 128,-1,57
 465 979 465 979 465 961 c 0,58,59
 465 928 465 928 454.5 896 c 128,-1,60
 444 864 444 864 431 832.5 c 128,-1,61
 418 801 418 801 407 768.5 c 128,-1,62
 396 736 396 736 395 702 c 1,63,64
 424 703 424 703 452.5 712.5 c 128,-1,65
 481 722 481 722 508.5 733 c 128,-1,66
 536 744 536 744 562.5 753 c 128,-1,67
 589 762 589 762 616 762 c 0,68,69
 648 762 648 762 672 741 c 128,-1,70
 696 720 696 720 696 688 c 0,0,1
EndSplineSet
Validated: 1
EndChar

StartChar: daggerdbl
Encoding: 8225 8225 106
Width: 772
Flags: W
LayerCount: 2
Fore
SplineSet
668 -10 m 0,0,1
 668 -80 668 -80 596 -80 c 0,2,3
 572 -80 572 -80 548.5 -72.5 c 128,-1,4
 525 -65 525 -65 500.5 -55.5 c 128,-1,5
 476 -46 476 -46 451 -38 c 128,-1,6
 426 -30 426 -30 399 -29 c 1,7,8
 402 -56 402 -56 412.5 -84.5 c 128,-1,9
 423 -113 423 -113 434.5 -141.5 c 128,-1,10
 446 -170 446 -170 454.5 -198 c 128,-1,11
 463 -226 463 -226 463 -252 c 0,12,13
 463 -285 463 -285 442 -309.5 c 128,-1,14
 421 -334 421 -334 387 -334 c 0,15,16
 371 -334 371 -334 357 -327 c 128,-1,17
 343 -320 343 -320 333 -308.5 c 128,-1,18
 323 -297 323 -297 317 -282 c 128,-1,19
 311 -267 311 -267 311 -252 c 0,20,21
 311 -228 311 -228 319 -200.5 c 128,-1,22
 327 -173 327 -173 337 -144 c 128,-1,23
 347 -115 347 -115 357 -85.5 c 128,-1,24
 367 -56 367 -56 371 -29 c 1,25,26
 342 -29 342 -29 316 -37 c 128,-1,27
 290 -45 290 -45 266 -54.5 c 128,-1,28
 242 -64 242 -64 219.5 -72 c 128,-1,29
 197 -80 197 -80 176 -80 c 0,30,31
 106 -80 106 -80 106 -14 c 0,32,33
 106 23 106 23 125.5 39 c 128,-1,34
 145 55 145 55 180 55 c 0,35,36
 204 55 204 55 227 47.5 c 128,-1,37
 250 40 250 40 273 30.5 c 128,-1,38
 296 21 296 21 320.5 13.5 c 128,-1,39
 345 6 345 6 371 6 c 1,40,41
 365 30 365 30 360.5 46.5 c 128,-1,42
 356 63 356 63 348.5 76 c 128,-1,43
 341 89 341 89 329 100.5 c 128,-1,44
 317 112 317 112 297 127 c 1,45,46
 335 181 335 181 353 245 c 128,-1,47
 371 309 371 309 371 375 c 0,48,49
 371 437 371 437 355.5 498.5 c 128,-1,50
 340 560 340 560 297 608 c 1,51,52
 317 622 317 622 329 635.5 c 128,-1,53
 341 649 341 649 349 664 c 128,-1,54
 357 679 357 679 361.5 696.5 c 128,-1,55
 366 714 366 714 371 737 c 1,56,57
 344 735 344 735 319.5 726.5 c 128,-1,58
 295 718 295 718 270.5 709 c 128,-1,59
 246 700 246 700 221.5 693 c 128,-1,60
 197 686 197 686 170 686 c 0,61,62
 104 686 104 686 104 752 c 0,63,64
 104 817 104 817 170 817 c 0,65,66
 195 817 195 817 219.5 809.5 c 128,-1,67
 244 802 244 802 269 792.5 c 128,-1,68
 294 783 294 783 319.5 774.5 c 128,-1,69
 345 766 345 766 371 764 c 1,70,71
 370 794 370 794 360.5 822.5 c 128,-1,72
 351 851 351 851 339.5 878.5 c 128,-1,73
 328 906 328 906 318.5 933.5 c 128,-1,74
 309 961 309 961 309 989 c 0,75,76
 309 1023 309 1023 330.5 1047 c 128,-1,77
 352 1071 352 1071 387 1071 c 0,78,79
 427 1071 427 1071 443 1047 c 128,-1,80
 459 1023 459 1023 459 985 c 0,81,82
 459 963 459 963 450.5 937 c 128,-1,83
 442 911 442 911 431.5 882.5 c 128,-1,84
 421 854 421 854 411.5 824 c 128,-1,85
 402 794 402 794 399 764 c 1,86,87
 426 766 426 766 451 774.5 c 128,-1,88
 476 783 476 783 500.5 792.5 c 128,-1,89
 525 802 525 802 549.5 809.5 c 128,-1,90
 574 817 574 817 600 817 c 0,91,92
 632 817 632 817 650 800.5 c 128,-1,93
 668 784 668 784 668 750 c 256,94,95
 668 716 668 716 648 700 c 128,-1,96
 628 684 628 684 596 684 c 0,97,98
 570 684 570 684 546 691 c 128,-1,99
 522 698 522 698 497.5 707 c 128,-1,100
 473 716 473 716 448.5 724.5 c 128,-1,101
 424 733 424 733 399 737 c 1,102,103
 402 714 402 714 406.5 696 c 128,-1,104
 411 678 411 678 419 663 c 128,-1,105
 427 648 427 648 440 635 c 128,-1,106
 453 622 453 622 471 608 c 1,107,108
 434 554 434 554 416.5 492 c 128,-1,109
 399 430 399 430 399 365 c 0,110,111
 399 302 399 302 416 241 c 128,-1,112
 433 180 433 180 471 127 c 1,113,114
 437 101 437 101 421.5 74 c 128,-1,115
 406 47 406 47 399 4 c 1,116,117
 425 5 425 5 449.5 13 c 128,-1,118
 474 21 474 21 498 30.5 c 128,-1,119
 522 40 522 40 546 47.5 c 128,-1,120
 570 55 570 55 596 55 c 0,121,122
 625 55 625 55 646.5 37 c 128,-1,123
 668 19 668 19 668 -10 c 0,0,1
EndSplineSet
Validated: 1
EndChar

StartChar: circumflex
Encoding: 710 710 107
Width: 483
Flags: W
LayerCount: 2
Fore
SplineSet
430 786 m 1,0,-1
 242 946 l 1,1,-1
 53 786 l 1,2,-1
 0 786 l 1,3,-1
 195 1044 l 1,4,-1
 291 1044 l 1,5,-1
 483 786 l 1,6,-1
 430 786 l 1,0,-1
EndSplineSet
Validated: 1
EndChar

StartChar: perthousand
Encoding: 8240 8240 108
Width: 1630
Flags: W
LayerCount: 2
Fore
SplineSet
1604 383 m 0,0,1
 1604 341 1604 341 1595 295 c 128,-1,2
 1586 249 1586 249 1568 204 c 128,-1,3
 1550 159 1550 159 1524 118 c 128,-1,4
 1498 77 1498 77 1464 45.5 c 128,-1,5
 1430 14 1430 14 1388.5 -4.5 c 128,-1,6
 1347 -23 1347 -23 1298 -23 c 0,7,8
 1195 -23 1195 -23 1149.5 33.5 c 128,-1,9
 1104 90 1104 90 1104 190 c 0,10,11
 1104 254 1104 254 1131.5 318.5 c 128,-1,12
 1159 383 1159 383 1205.5 435 c 128,-1,13
 1252 487 1252 487 1312.5 520 c 128,-1,14
 1373 553 1373 553 1440 553 c 0,15,16
 1475 553 1475 553 1505 539.5 c 128,-1,17
 1535 526 1535 526 1557 503 c 128,-1,18
 1579 480 1579 480 1591.5 449 c 128,-1,19
 1604 418 1604 418 1604 383 c 0,0,1
1049 383 m 0,20,21
 1049 321 1049 321 1028.5 249.5 c 128,-1,22
 1008 178 1008 178 968.5 117.5 c 128,-1,23
 929 57 929 57 872 17 c 128,-1,24
 815 -23 815 -23 743 -23 c 0,25,26
 640 -23 640 -23 594.5 33.5 c 128,-1,27
 549 90 549 90 549 190 c 0,28,29
 549 254 549 254 576.5 318.5 c 128,-1,30
 604 383 604 383 650 435 c 128,-1,31
 696 487 696 487 756.5 520 c 128,-1,32
 817 553 817 553 883 553 c 0,33,34
 919 553 919 553 949.5 539.5 c 128,-1,35
 980 526 980 526 1002 503 c 128,-1,36
 1024 480 1024 480 1036.5 449 c 128,-1,37
 1049 418 1049 418 1049 383 c 0,20,21
238 -25 m 1,38,-1
 164 -25 l 1,39,-1
 762 979 l 1,40,41
 724 944 724 944 677.5 925.5 c 128,-1,42
 631 907 631 907 580 907 c 0,43,44
 521 907 521 907 467 926 c 1,45,46
 470 910 470 910 471.5 896 c 128,-1,47
 473 882 473 882 473 866 c 0,48,49
 473 829 473 829 465 786.5 c 128,-1,50
 457 744 457 744 442 701.5 c 128,-1,51
 427 659 427 659 404 619.5 c 128,-1,52
 381 580 381 580 351 549.5 c 128,-1,53
 321 519 321 519 284 501 c 128,-1,54
 247 483 247 483 203 483 c 0,55,56
 155 483 155 483 121.5 501.5 c 128,-1,57
 88 520 88 520 67 551 c 128,-1,58
 46 582 46 582 36.5 622 c 128,-1,59
 27 662 27 662 27 705 c 0,60,61
 27 765 27 765 49.5 826 c 128,-1,62
 72 887 72 887 112 936.5 c 128,-1,63
 152 986 152 986 207.5 1017.5 c 128,-1,64
 263 1049 263 1049 328 1049 c 0,65,66
 349 1049 349 1049 376.5 1032.5 c 128,-1,67
 404 1016 404 1016 437 996.5 c 128,-1,68
 470 977 470 977 508 960.5 c 128,-1,69
 546 944 546 944 588 944 c 0,70,71
 625 944 625 944 651 951.5 c 128,-1,72
 677 959 677 959 698 973 c 128,-1,73
 719 987 719 987 739 1006.5 c 128,-1,74
 759 1026 759 1026 784 1051 c 1,75,-1
 877 1051 l 1,76,-1
 238 -25 l 1,38,-1
1563 375 m 0,77,78
 1563 399 1563 399 1556.5 422 c 128,-1,79
 1550 445 1550 445 1536.5 463 c 128,-1,80
 1523 481 1523 481 1503 492.5 c 128,-1,81
 1483 504 1483 504 1456 504 c 0,82,83
 1420 504 1420 504 1388.5 484.5 c 128,-1,84
 1357 465 1357 465 1331 433.5 c 128,-1,85
 1305 402 1305 402 1284.5 362 c 128,-1,86
 1264 322 1264 322 1250 280 c 128,-1,87
 1236 238 1236 238 1228.5 198.5 c 128,-1,88
 1221 159 1221 159 1221 129 c 0,89,90
 1221 86 1221 86 1246.5 55.5 c 128,-1,91
 1272 25 1272 25 1317 25 c 0,92,93
 1354 25 1354 25 1386.5 42 c 128,-1,94
 1419 59 1419 59 1446 87.5 c 128,-1,95
 1473 116 1473 116 1495 152.5 c 128,-1,96
 1517 189 1517 189 1532 228 c 128,-1,97
 1547 267 1547 267 1555 305 c 128,-1,98
 1563 343 1563 343 1563 375 c 0,77,78
1008 375 m 0,99,100
 1008 399 1008 399 1001 422 c 128,-1,101
 994 445 994 445 980.5 463 c 128,-1,102
 967 481 967 481 947 492.5 c 128,-1,103
 927 504 927 504 901 504 c 0,104,105
 866 504 866 504 835 484.5 c 128,-1,106
 804 465 804 465 777.5 433 c 128,-1,107
 751 401 751 401 730.5 361 c 128,-1,108
 710 321 710 321 695.5 279 c 128,-1,109
 681 237 681 237 673.5 198 c 128,-1,110
 666 159 666 159 666 129 c 0,111,112
 666 86 666 86 690.5 55.5 c 128,-1,113
 715 25 715 25 762 25 c 0,114,115
 799 25 799 25 831.5 42 c 128,-1,116
 864 59 864 59 891 87.5 c 128,-1,117
 918 116 918 116 940 152.5 c 128,-1,118
 962 189 962 189 977 228 c 128,-1,119
 992 267 992 267 1000 305 c 128,-1,120
 1008 343 1008 343 1008 375 c 0,99,100
434 866 m 0,121,122
 434 883 434 883 433 903 c 128,-1,123
 432 923 432 923 424 938 c 1,124,125
 398 952 398 952 374 969 c 128,-1,126
 350 986 350 986 330 1006 c 1,127,128
 285 996 285 996 250.5 956 c 128,-1,129
 216 916 216 916 192 864.5 c 128,-1,130
 168 813 168 813 155.5 758.5 c 128,-1,131
 143 704 143 704 143 664 c 0,132,133
 143 644 143 644 145.5 621 c 128,-1,134
 148 598 148 598 156 577.5 c 128,-1,135
 164 557 164 557 179.5 543.5 c 128,-1,136
 195 530 195 530 221 530 c 0,137,138
 255 530 255 530 284 547 c 128,-1,139
 313 564 313 564 337 592 c 128,-1,140
 361 620 361 620 379 656 c 128,-1,141
 397 692 397 692 409 729 c 128,-1,142
 421 766 421 766 427.5 802 c 128,-1,143
 434 838 434 838 434 866 c 0,121,122
EndSplineSet
Validated: 1
EndChar

StartChar: guilsinglleft
Encoding: 8249 8249 110
Width: 514
Flags: W
LayerCount: 2
Fore
SplineSet
381 -6 m 1,0,-1
 90 350 l 1,1,-1
 381 705 l 1,2,-1
 422 705 l 1,3,-1
 238 350 l 1,4,-1
 422 -6 l 1,5,-1
 381 -6 l 1,0,-1
EndSplineSet
Validated: 1
EndChar

StartChar: OE
Encoding: 338 338 111
Width: 1374
Flags: W
LayerCount: 2
Fore
SplineSet
1247 0 m 1,0,-1
 754 0 l 2,1,2
 695 0 695 0 636 -6 c 128,-1,3
 577 -12 577 -12 518 -12 c 0,4,5
 409 -12 409 -12 323.5 31.5 c 128,-1,6
 238 75 238 75 178.5 147 c 128,-1,7
 119 219 119 219 88 313.5 c 128,-1,8
 57 408 57 408 57 510 c 0,9,10
 57 620 57 620 89 715 c 128,-1,11
 121 810 121 810 182.5 880.5 c 128,-1,12
 244 951 244 951 333 991.5 c 128,-1,13
 422 1032 422 1032 537 1032 c 0,14,15
 576 1032 576 1032 631.5 1027 c 128,-1,16
 687 1022 687 1022 758 1022 c 2,17,-1
 1239 1022 l 1,18,-1
 1247 799 l 1,19,-1
 1223 799 l 1,20,21
 1212 853 1212 853 1201.5 886 c 128,-1,22
 1191 919 1191 919 1171.5 937 c 128,-1,23
 1152 955 1152 955 1118 961 c 128,-1,24
 1084 967 1084 967 1026 967 c 2,25,-1
 834 967 l 1,26,-1
 834 565 l 1,27,-1
 969 565 l 2,28,29
 1048 565 1048 565 1088 596.5 c 128,-1,30
 1128 628 1128 628 1128 711 c 1,31,-1
 1159 711 l 1,32,-1
 1159 354 l 1,33,-1
 1128 354 l 1,34,35
 1125 399 1125 399 1117 428 c 128,-1,36
 1109 457 1109 457 1091 474.5 c 128,-1,37
 1073 492 1073 492 1043.5 499 c 128,-1,38
 1014 506 1014 506 969 506 c 2,39,-1
 834 506 l 1,40,-1
 834 170 l 2,41,42
 834 132 834 132 838.5 109.5 c 128,-1,43
 843 87 843 87 860.5 75.5 c 128,-1,44
 878 64 878 64 911 60.5 c 128,-1,45
 944 57 944 57 1001 57 c 0,46,47
 1062 57 1062 57 1107 66.5 c 128,-1,48
 1152 76 1152 76 1186.5 99.5 c 128,-1,49
 1221 123 1221 123 1247.5 161 c 128,-1,50
 1274 199 1274 199 1298 256 c 1,51,-1
 1329 256 l 1,52,-1
 1247 0 l 1,0,-1
688 786 m 2,53,54
 688 830 688 830 684 866 c 128,-1,55
 680 902 680 902 665 928 c 128,-1,56
 650 954 650 954 620 968.5 c 128,-1,57
 590 983 590 983 537 983 c 0,58,59
 474 983 474 983 426.5 961.5 c 128,-1,60
 379 940 379 940 345 903 c 128,-1,61
 311 866 311 866 288.5 817.5 c 128,-1,62
 266 769 266 769 253 716 c 128,-1,63
 240 663 240 663 234.5 608 c 128,-1,64
 229 553 229 553 229 504 c 256,65,66
 229 455 229 455 235 402 c 128,-1,67
 241 349 241 349 254.5 297.5 c 128,-1,68
 268 246 268 246 291 199.5 c 128,-1,69
 314 153 314 153 348 118 c 128,-1,70
 382 83 382 83 428 62 c 128,-1,71
 474 41 474 41 535 41 c 0,72,73
 589 41 589 41 619.5 56 c 128,-1,74
 650 71 650 71 665 98.5 c 128,-1,75
 680 126 680 126 684 166 c 128,-1,76
 688 206 688 206 688 256 c 2,77,-1
 688 786 l 2,53,54
EndSplineSet
Validated: 1
EndChar

StartChar: caron
Encoding: 711 711 113
Width: 485
Flags: W
LayerCount: 2
Fore
SplineSet
291 786 m 1,0,-1
 194 786 l 1,1,-1
 0 1045 l 1,2,-1
 54 1045 l 1,3,-1
 242 886 l 1,4,-1
 431 1045 l 1,5,-1
 485 1045 l 1,6,-1
 291 786 l 1,0,-1
EndSplineSet
Validated: 1
EndChar

StartChar: ring
Encoding: 730 730 114
Width: 288
Flags: W
LayerCount: 2
Fore
SplineSet
288 930 m 0,0,1
 288 898 288 898 276 871.5 c 128,-1,2
 264 845 264 845 244 826 c 128,-1,3
 224 807 224 807 198.5 796.5 c 128,-1,4
 173 786 173 786 146 786 c 256,5,6
 119 786 119 786 93 796.5 c 128,-1,7
 67 807 67 807 46 826 c 128,-1,8
 25 845 25 845 12.5 871.5 c 128,-1,9
 0 898 0 898 0 930 c 256,10,11
 0 962 0 962 12 988.5 c 128,-1,12
 24 1015 24 1015 44 1034 c 128,-1,13
 64 1053 64 1053 90.5 1063.5 c 128,-1,14
 117 1074 117 1074 146 1074 c 0,15,16
 173 1074 173 1074 198.5 1064 c 128,-1,17
 224 1054 224 1054 244 1035.5 c 128,-1,18
 264 1017 264 1017 276 990 c 128,-1,19
 288 963 288 963 288 930 c 0,0,1
236 930 m 0,20,21
 236 951 236 951 228.5 968 c 128,-1,22
 221 985 221 985 208.5 997 c 128,-1,23
 196 1009 196 1009 179.5 1015.5 c 128,-1,24
 163 1022 163 1022 146 1022 c 0,25,26
 108 1022 108 1022 80 996.5 c 128,-1,27
 52 971 52 971 52 930 c 0,28,29
 52 908 52 908 60 891 c 128,-1,30
 68 874 68 874 81 862 c 128,-1,31
 94 850 94 850 111 844 c 128,-1,32
 128 838 128 838 146 838 c 0,33,34
 165 838 165 838 181.5 845.5 c 128,-1,35
 198 853 198 853 210 865.5 c 128,-1,36
 222 878 222 878 229 895 c 128,-1,37
 236 912 236 912 236 930 c 0,20,21
EndSplineSet
Validated: 1
EndChar

StartChar: quoteleft
Encoding: 8216 8216 115
Width: 514
Flags: W
LayerCount: 2
Fore
SplineSet
371 743 m 0,0,1
 371 722 371 722 362.5 706 c 128,-1,2
 354 690 354 690 340 678.5 c 128,-1,3
 326 667 326 667 307.5 661 c 128,-1,4
 289 655 289 655 270 655 c 0,5,6
 241 655 241 655 217 668 c 128,-1,7
 193 681 193 681 175.5 702 c 128,-1,8
 158 723 158 723 148.5 750 c 128,-1,9
 139 777 139 777 139 805 c 0,10,11
 139 853 139 853 153.5 891.5 c 128,-1,12
 168 930 168 930 194 959.5 c 128,-1,13
 220 989 220 989 256 1009.5 c 128,-1,14
 292 1030 292 1030 336 1044 c 1,15,-1
 336 1012 l 1,16,17
 315 1000 315 1000 293 984.5 c 128,-1,18
 271 969 271 969 252 949.5 c 128,-1,19
 233 930 233 930 221 906.5 c 128,-1,20
 209 883 209 883 209 856 c 0,21,22
 209 849 209 849 210 841 c 128,-1,23
 211 833 211 833 214 826.5 c 128,-1,24
 217 820 217 820 223 815.5 c 128,-1,25
 229 811 229 811 238 811 c 0,26,27
 252 811 252 811 265.5 817 c 128,-1,28
 279 823 279 823 295 823 c 256,29,30
 311 823 311 823 325 816.5 c 128,-1,31
 339 810 339 810 349 798.5 c 128,-1,32
 359 787 359 787 365 772.5 c 128,-1,33
 371 758 371 758 371 743 c 0,0,1
EndSplineSet
Validated: 1
EndChar

StartChar: quoteright
Encoding: 8217 8217 116
Width: 514
Flags: W
LayerCount: 2
Fore
SplineSet
375 895 m 0,0,1
 375 847 375 847 360.5 808.5 c 128,-1,2
 346 770 346 770 320 741 c 128,-1,3
 294 712 294 712 258 691 c 128,-1,4
 222 670 222 670 178 655 c 1,5,-1
 178 688 l 1,6,7
 199 700 199 700 221 716 c 128,-1,8
 243 732 243 732 262 751.5 c 128,-1,9
 281 771 281 771 293 794 c 128,-1,10
 305 817 305 817 305 844 c 0,11,12
 305 851 305 851 304 858.5 c 128,-1,13
 303 866 303 866 300 873 c 128,-1,14
 297 880 297 880 291 884.5 c 128,-1,15
 285 889 285 889 276 889 c 0,16,17
 262 889 262 889 248.5 883 c 128,-1,18
 235 877 235 877 219 877 c 0,19,20
 187 877 187 877 165 901.5 c 128,-1,21
 143 926 143 926 143 958 c 0,22,23
 143 978 143 978 151.5 994 c 128,-1,24
 160 1010 160 1010 174.5 1021 c 128,-1,25
 189 1032 189 1032 207 1038 c 128,-1,26
 225 1044 225 1044 244 1044 c 0,27,28
 273 1044 273 1044 297 1031 c 128,-1,29
 321 1018 321 1018 338.5 997 c 128,-1,30
 356 976 356 976 365.5 949.5 c 128,-1,31
 375 923 375 923 375 895 c 0,0,1
EndSplineSet
Validated: 1
EndChar

StartChar: quotedblleft
Encoding: 8220 8220 117
Width: 786
Flags: W
LayerCount: 2
Fore
SplineSet
641 743 m 0,0,1
 641 723 641 723 632.5 707 c 128,-1,2
 624 691 624 691 610.5 679.5 c 128,-1,3
 597 668 597 668 579 661.5 c 128,-1,4
 561 655 561 655 543 655 c 0,5,6
 513 655 513 655 489 668.5 c 128,-1,7
 465 682 465 682 447.5 703.5 c 128,-1,8
 430 725 430 725 421 752 c 128,-1,9
 412 779 412 779 412 807 c 0,10,11
 412 855 412 855 426.5 893 c 128,-1,12
 441 931 441 931 466.5 960 c 128,-1,13
 492 989 492 989 528 1010.5 c 128,-1,14
 564 1032 564 1032 608 1047 c 1,15,-1
 608 1014 l 1,16,17
 587 1002 587 1002 565 986 c 128,-1,18
 543 970 543 970 524 950.5 c 128,-1,19
 505 931 505 931 493 908 c 128,-1,20
 481 885 481 885 481 858 c 0,21,22
 481 851 481 851 482 843 c 128,-1,23
 483 835 483 835 486 828.5 c 128,-1,24
 489 822 489 822 495 817.5 c 128,-1,25
 501 813 501 813 510 813 c 0,26,27
 524 813 524 813 537.5 818 c 128,-1,28
 551 823 551 823 565 823 c 0,29,30
 597 823 597 823 619 799 c 128,-1,31
 641 775 641 775 641 743 c 0,0,1
281 745 m 0,32,33
 281 725 281 725 272.5 709 c 128,-1,34
 264 693 264 693 249.5 681.5 c 128,-1,35
 235 670 235 670 217 663.5 c 128,-1,36
 199 657 199 657 180 657 c 0,37,38
 151 657 151 657 127 670.5 c 128,-1,39
 103 684 103 684 86 705 c 128,-1,40
 69 726 69 726 60 753 c 128,-1,41
 51 780 51 780 51 807 c 0,42,43
 51 855 51 855 65.5 893.5 c 128,-1,44
 80 932 80 932 105.5 961.5 c 128,-1,45
 131 991 131 991 167 1012.5 c 128,-1,46
 203 1034 203 1034 246 1049 c 1,47,-1
 246 1016 l 1,48,49
 225 1004 225 1004 203 988 c 128,-1,50
 181 972 181 972 162.5 952.5 c 128,-1,51
 144 933 144 933 132.5 910 c 128,-1,52
 121 887 121 887 121 860 c 0,53,54
 121 845 121 845 125.5 829 c 128,-1,55
 130 813 130 813 150 813 c 0,56,57
 164 813 164 813 177.5 819 c 128,-1,58
 191 825 191 825 205 825 c 0,59,60
 221 825 221 825 235 818.5 c 128,-1,61
 249 812 249 812 259 800.5 c 128,-1,62
 269 789 269 789 275 774.5 c 128,-1,63
 281 760 281 760 281 745 c 0,32,33
EndSplineSet
Validated: 1
EndChar

StartChar: quotedblright
Encoding: 8221 8221 118
Width: 786
Flags: W
LayerCount: 2
Fore
SplineSet
735 893 m 0,0,1
 735 845 735 845 720.5 807 c 128,-1,2
 706 769 706 769 680.5 740 c 128,-1,3
 655 711 655 711 618.5 689.5 c 128,-1,4
 582 668 582 668 539 653 c 1,5,-1
 539 686 l 1,6,7
 560 698 560 698 582 714 c 128,-1,8
 604 730 604 730 623 749.5 c 128,-1,9
 642 769 642 769 654 792 c 128,-1,10
 666 815 666 815 666 842 c 0,11,12
 666 849 666 849 665 857 c 128,-1,13
 664 865 664 865 661 872 c 128,-1,14
 658 879 658 879 652 884 c 128,-1,15
 646 889 646 889 637 889 c 0,16,17
 623 889 623 889 609 883 c 128,-1,18
 595 877 595 877 580 877 c 0,19,20
 548 877 548 877 527 900.5 c 128,-1,21
 506 924 506 924 506 956 c 0,22,23
 506 977 506 977 514 993.5 c 128,-1,24
 522 1010 522 1010 535.5 1021 c 128,-1,25
 549 1032 549 1032 567 1038 c 128,-1,26
 585 1044 585 1044 604 1044 c 0,27,28
 633 1044 633 1044 657 1031 c 128,-1,29
 681 1018 681 1018 698.5 996.5 c 128,-1,30
 716 975 716 975 725.5 948 c 128,-1,31
 735 921 735 921 735 893 c 0,0,1
375 895 m 0,32,33
 375 847 375 847 360.5 808.5 c 128,-1,34
 346 770 346 770 320 741 c 128,-1,35
 294 712 294 712 258 691 c 128,-1,36
 222 670 222 670 178 655 c 1,37,-1
 178 688 l 1,38,39
 199 700 199 700 221 716 c 128,-1,40
 243 732 243 732 262 751.5 c 128,-1,41
 281 771 281 771 293 794 c 128,-1,42
 305 817 305 817 305 844 c 0,43,44
 305 851 305 851 304 858.5 c 128,-1,45
 303 866 303 866 300 873 c 128,-1,46
 297 880 297 880 291 884.5 c 128,-1,47
 285 889 285 889 276 889 c 0,48,49
 262 889 262 889 248.5 883 c 128,-1,50
 235 877 235 877 219 877 c 0,51,52
 187 877 187 877 165 901.5 c 128,-1,53
 143 926 143 926 143 958 c 0,54,55
 143 978 143 978 151.5 994 c 128,-1,56
 160 1010 160 1010 174.5 1021 c 128,-1,57
 189 1032 189 1032 207 1038 c 128,-1,58
 225 1044 225 1044 244 1044 c 0,59,60
 273 1044 273 1044 297 1031 c 128,-1,61
 321 1018 321 1018 338.5 997 c 128,-1,62
 356 976 356 976 365.5 949.5 c 128,-1,63
 375 923 375 923 375 895 c 0,32,33
EndSplineSet
Validated: 1
EndChar

StartChar: bullet
Encoding: 8226 8226 119
Width: 446
Flags: W
LayerCount: 2
Fore
SplineSet
393 506 m 0,0,1
 393 470 393 470 379.5 438.5 c 128,-1,2
 366 407 366 407 343 384 c 128,-1,3
 320 361 320 361 289 347.5 c 128,-1,4
 258 334 258 334 223 334 c 0,5,6
 187 334 187 334 155.5 347.5 c 128,-1,7
 124 361 124 361 101 384 c 128,-1,8
 78 407 78 407 64.5 438.5 c 128,-1,9
 51 470 51 470 51 506 c 0,10,11
 51 541 51 541 64.5 572 c 128,-1,12
 78 603 78 603 101 626 c 128,-1,13
 124 649 124 649 155.5 662.5 c 128,-1,14
 187 676 187 676 223 676 c 0,15,16
 258 676 258 676 289 662.5 c 128,-1,17
 320 649 320 649 343 626 c 128,-1,18
 366 603 366 603 379.5 572 c 128,-1,19
 393 541 393 541 393 506 c 0,0,1
EndSplineSet
Validated: 1
EndChar

StartChar: endash
Encoding: 8211 8211 120
Width: 743
Flags: W
LayerCount: 2
Fore
SplineSet
-33 340 m 1,0,-1
 -33 397 l 1,1,-1
 764 397 l 1,2,-1
 764 340 l 1,3,-1
 -33 340 l 1,0,-1
EndSplineSet
Validated: 1
EndChar

StartChar: emdash
Encoding: 8212 8212 121
Width: 1485
Flags: W
LayerCount: 2
Fore
SplineSet
0 340 m 1,0,-1
 0 397 l 1,1,-1
 1485 397 l 1,2,-1
 1485 340 l 1,3,-1
 0 340 l 1,0,-1
EndSplineSet
Validated: 1
EndChar

StartChar: tilde
Encoding: 732 732 122
Width: 514
Flags: W
LayerCount: 2
Fore
SplineSet
514 1013 m 1,0,1
 511 982 511 982 497 952.5 c 128,-1,2
 483 923 483 923 461 899.5 c 128,-1,3
 439 876 439 876 411 862 c 128,-1,4
 383 848 383 848 350 848 c 0,5,6
 308 848 308 848 282 859 c 128,-1,7
 256 870 256 870 234 883.5 c 128,-1,8
 212 897 212 897 188.5 908.5 c 128,-1,9
 165 920 165 920 128 920 c 0,10,11
 112 920 112 920 97 913.5 c 128,-1,12
 82 907 82 907 70 897 c 128,-1,13
 58 887 58 887 49.5 874 c 128,-1,14
 41 861 41 861 40 848 c 1,15,-1
 0 848 l 1,16,17
 8 881 8 881 22 910 c 128,-1,18
 36 939 36 939 57 960 c 128,-1,19
 78 981 78 981 106.5 993 c 128,-1,20
 135 1005 135 1005 171 1005 c 0,21,22
 201 1005 201 1005 224 994.5 c 128,-1,23
 247 984 247 984 269 971 c 128,-1,24
 291 958 291 958 314 947.5 c 128,-1,25
 337 937 337 937 367 937 c 0,26,27
 404 937 404 937 434.5 956.5 c 128,-1,28
 465 976 465 976 474 1013 c 1,29,-1
 514 1013 l 1,0,1
EndSplineSet
Validated: 1
EndChar

StartChar: trademark
Encoding: 8482 8482 123
Width: 1513
Flags: W
LayerCount: 2
Fore
SplineSet
1188 414 m 1,0,-1
 1188 440 l 1,1,2
 1217 440 1217 440 1235 445 c 128,-1,3
 1253 450 1253 450 1262.5 461.5 c 128,-1,4
 1272 473 1272 473 1275 492 c 128,-1,5
 1278 511 1278 511 1278 539 c 2,6,-1
 1278 911 l 1,7,-1
 1044 414 l 1,8,-1
 1022 414 l 1,9,-1
 788 903 l 1,10,-1
 788 541 l 2,11,12
 788 509 788 509 791.5 489 c 128,-1,13
 795 469 795 469 805.5 458 c 128,-1,14
 816 447 816 447 835.5 443.5 c 128,-1,15
 855 440 855 440 887 440 c 1,16,-1
 887 414 l 1,17,-1
 655 414 l 1,18,-1
 655 440 l 1,19,20
 685 440 685 440 702 444 c 128,-1,21
 719 448 719 448 728 459 c 128,-1,22
 737 470 737 470 739 489.5 c 128,-1,23
 741 509 741 509 741 541 c 2,24,-1
 741 899 l 2,25,26
 741 926 741 926 739 944.5 c 128,-1,27
 737 963 737 963 728.5 974 c 128,-1,28
 720 985 720 985 703 990 c 128,-1,29
 686 995 686 995 655 995 c 1,30,-1
 655 1022 l 1,31,-1
 872 1022 l 1,32,-1
 1077 592 l 1,33,-1
 1278 1022 l 1,34,-1
 1487 1022 l 1,35,-1
 1487 995 l 1,36,37
 1460 995 1460 995 1443.5 989.5 c 128,-1,38
 1427 984 1427 984 1418 971.5 c 128,-1,39
 1409 959 1409 959 1406 939.5 c 128,-1,40
 1403 920 1403 920 1403 893 c 2,41,-1
 1403 541 l 2,42,43
 1403 514 1403 514 1406 495 c 128,-1,44
 1409 476 1409 476 1418 463.5 c 128,-1,45
 1427 451 1427 451 1443.5 445.5 c 128,-1,46
 1460 440 1460 440 1487 440 c 1,47,-1
 1487 414 l 1,48,-1
 1188 414 l 1,0,-1
578 872 m 1,49,50
 574 910 574 910 556.5 931 c 128,-1,51
 539 952 539 952 512 962.5 c 128,-1,52
 485 973 485 973 450 975 c 128,-1,53
 415 977 415 977 375 977 c 1,54,-1
 375 541 l 2,55,56
 375 512 375 512 378 492.5 c 128,-1,57
 381 473 381 473 390 461.5 c 128,-1,58
 399 450 399 450 415 445 c 128,-1,59
 431 440 431 440 457 440 c 1,60,-1
 457 414 l 1,61,-1
 172 414 l 1,62,-1
 172 440 l 1,63,64
 195 440 195 440 209.5 445 c 128,-1,65
 224 450 224 450 232.5 461.5 c 128,-1,66
 241 473 241 473 244.5 492.5 c 128,-1,67
 248 512 248 512 248 541 c 2,68,-1
 248 977 l 1,69,-1
 193 977 l 2,70,71
 160 977 160 977 136 972.5 c 128,-1,72
 112 968 112 968 95 956.5 c 128,-1,73
 78 945 78 945 66.5 924.5 c 128,-1,74
 55 904 55 904 47 872 c 1,75,-1
 25 872 l 1,76,-1
 35 1022 l 1,77,-1
 592 1022 l 1,78,-1
 604 872 l 1,79,-1
 578 872 l 1,49,50
EndSplineSet
Validated: 1
EndChar

StartChar: guilsinglright
Encoding: 8250 8250 125
Width: 514
Flags: W
LayerCount: 2
Fore
SplineSet
133 -6 m 1,0,-1
 92 -6 l 1,1,-1
 276 348 l 1,2,-1
 92 705 l 1,3,-1
 133 705 l 1,4,-1
 424 348 l 1,5,-1
 133 -6 l 1,0,-1
EndSplineSet
Validated: 1
EndChar

StartChar: oe
Encoding: 339 339 126
Width: 1114
Flags: W
LayerCount: 2
Fore
SplineSet
1065 256 m 1,0,1
 1055 204 1055 204 1036 154 c 128,-1,2
 1017 104 1017 104 986.5 64.5 c 128,-1,3
 956 25 956 25 912 1 c 128,-1,4
 868 -23 868 -23 807 -23 c 0,5,6
 742 -23 742 -23 688 9.5 c 128,-1,7
 634 42 634 42 606 100 c 1,8,9
 561 42 561 42 500 9.5 c 128,-1,10
 439 -23 439 -23 365 -23 c 0,11,12
 288 -23 288 -23 229.5 6 c 128,-1,13
 171 35 171 35 131 84.5 c 128,-1,14
 91 134 91 134 71 198.5 c 128,-1,15
 51 263 51 263 51 334 c 0,16,17
 51 407 51 407 71 475 c 128,-1,18
 91 543 91 543 131 595.5 c 128,-1,19
 171 648 171 648 231 679.5 c 128,-1,20
 291 711 291 711 371 711 c 0,21,22
 443 711 443 711 503 681.5 c 128,-1,23
 563 652 563 652 606 592 c 1,24,25
 643 649 643 649 695.5 680 c 128,-1,26
 748 711 748 711 817 711 c 0,27,28
 878 711 878 711 924.5 692 c 128,-1,29
 971 673 971 673 1002.5 639 c 128,-1,30
 1034 605 1034 605 1049.5 557 c 128,-1,31
 1065 509 1065 509 1065 452 c 2,32,-1
 1065 432 l 1,33,-1
 651 432 l 1,34,-1
 651 399 l 2,35,36
 651 351 651 351 661.5 298.5 c 128,-1,37
 672 246 672 246 696 203 c 128,-1,38
 720 160 720 160 759.5 132 c 128,-1,39
 799 104 799 104 858 104 c 0,40,41
 895 104 895 104 923.5 117.5 c 128,-1,42
 952 131 952 131 974.5 153.5 c 128,-1,43
 997 176 997 176 1013 206 c 128,-1,44
 1029 236 1029 236 1040 268 c 1,45,-1
 1065 256 l 1,0,1
915 481 m 1,46,47
 915 513 915 513 908.5 545.5 c 128,-1,48
 902 578 902 578 886.5 604 c 128,-1,49
 871 630 871 630 845.5 646 c 128,-1,50
 820 662 820 662 782 662 c 0,51,52
 747 662 747 662 722.5 644.5 c 128,-1,53
 698 627 698 627 682.5 600 c 128,-1,54
 667 573 667 573 659.5 541 c 128,-1,55
 652 509 652 509 651 481 c 1,56,-1
 915 481 l 1,46,47
539 285 m 0,57,58
 539 317 539 317 536.5 358 c 128,-1,59
 534 399 534 399 527 441.5 c 128,-1,60
 520 484 520 484 506.5 525 c 128,-1,61
 493 566 493 566 471 597.5 c 128,-1,62
 449 629 449 629 417.5 648.5 c 128,-1,63
 386 668 386 668 342 668 c 0,64,65
 291 668 291 668 261.5 641.5 c 128,-1,66
 232 615 232 615 217 575.5 c 128,-1,67
 202 536 202 536 197.5 490.5 c 128,-1,68
 193 445 193 445 193 408 c 0,69,70
 193 379 193 379 196 339.5 c 128,-1,71
 199 300 199 300 207 258.5 c 128,-1,72
 215 217 215 217 229 176.5 c 128,-1,73
 243 136 243 136 264 104 c 128,-1,74
 285 72 285 72 315 52.5 c 128,-1,75
 345 33 345 33 385 33 c 0,76,77
 436 33 436 33 466 57.5 c 128,-1,78
 496 82 496 82 512.5 119.5 c 128,-1,79
 529 157 529 157 534 201.5 c 128,-1,80
 539 246 539 246 539 285 c 0,57,58
EndSplineSet
Validated: 1
EndChar

StartChar: exclamdown
Encoding: 161 161 130
Width: 514
Flags: W
LayerCount: 2
Fore
SplineSet
342 649 m 0,0,1
 342 629 342 629 334 614 c 128,-1,2
 326 599 326 599 314 588.5 c 128,-1,3
 302 578 302 578 287 572.5 c 128,-1,4
 272 567 272 567 257 567 c 256,5,6
 242 567 242 567 227.5 572.5 c 128,-1,7
 213 578 213 578 201 588.5 c 128,-1,8
 189 599 189 599 181.5 614.5 c 128,-1,9
 174 630 174 630 174 649 c 0,10,11
 174 667 174 667 181 683 c 128,-1,12
 188 699 188 699 199 710.5 c 128,-1,13
 210 722 210 722 225 729 c 128,-1,14
 240 736 240 736 257 736 c 0,15,16
 270 736 270 736 284.5 731 c 128,-1,17
 299 726 299 726 312 715.5 c 128,-1,18
 325 705 325 705 333.5 688.5 c 128,-1,19
 342 672 342 672 342 649 c 0,0,1
343 -227 m 0,20,21
 343 -278 343 -278 318 -305.5 c 128,-1,22
 293 -333 293 -333 255 -333 c 0,23,24
 241 -333 241 -333 226 -327 c 128,-1,25
 211 -321 211 -321 199 -307.5 c 128,-1,26
 187 -294 187 -294 179 -272.5 c 128,-1,27
 171 -251 171 -251 171 -220 c 0,28,29
 171 -211 171 -211 171.5 -198 c 128,-1,30
 172 -185 172 -185 174 -169 c 2,31,-1
 242 442 l 1,32,-1
 272 442 l 1,33,-1
 337 -169 l 2,34,35
 341 -196 341 -196 342 -207 c 128,-1,36
 343 -218 343 -218 343 -227 c 0,20,21
EndSplineSet
Validated: 1
EndChar

StartChar: cent
Encoding: 162 162 131
Width: 772
Flags: W
LayerCount: 2
Fore
SplineSet
678 262 m 1,0,1
 669 208 669 208 645 157 c 128,-1,2
 621 106 621 106 583.5 66 c 128,-1,3
 546 26 546 26 496.5 1.5 c 128,-1,4
 447 -23 447 -23 389 -23 c 0,5,6
 361 -23 361 -23 335 -17 c 128,-1,7
 309 -11 309 -11 283 0 c 1,8,-1
 180 -285 l 1,9,-1
 127 -285 l 1,10,-1
 240 25 l 1,11,12
 200 52 200 52 172 87.5 c 128,-1,13
 144 123 144 123 127 164 c 128,-1,14
 110 205 110 205 102 250.5 c 128,-1,15
 94 296 94 296 94 344 c 0,16,17
 94 416 94 416 117 482.5 c 128,-1,18
 140 549 140 549 183 600 c 128,-1,19
 226 651 226 651 287 681 c 128,-1,20
 348 711 348 711 424 711 c 0,21,22
 457 711 457 711 487 705 c 1,23,-1
 594 999 l 1,24,-1
 647 999 l 1,25,-1
 537 690 l 1,26,27
 557 682 557 682 578.5 667 c 128,-1,28
 600 652 600 652 618 633 c 128,-1,29
 636 614 636 614 647.5 591.5 c 128,-1,30
 659 569 659 569 659 545 c 0,31,32
 659 511 659 511 639.5 496 c 128,-1,33
 620 481 620 481 588 481 c 256,34,35
 556 481 556 481 541 491 c 128,-1,36
 526 501 526 501 519 517 c 128,-1,37
 512 533 512 533 509.5 553 c 128,-1,38
 507 573 507 573 500 594 c 1,39,-1
 332 133 l 1,40,41
 357 116 357 116 385 107 c 128,-1,42
 413 98 413 98 442 98 c 0,43,44
 484 98 484 98 517 112 c 128,-1,45
 550 126 550 126 575.5 150 c 128,-1,46
 601 174 601 174 620.5 205.5 c 128,-1,47
 640 237 640 237 655 272 c 1,48,-1
 678 262 l 1,0,1
465 645 m 1,49,50
 435 662 435 662 399 662 c 0,51,52
 349 662 349 662 314.5 638.5 c 128,-1,53
 280 615 280 615 259 578 c 128,-1,54
 238 541 238 541 228.5 496.5 c 128,-1,55
 219 452 219 452 219 410 c 0,56,57
 219 347 219 347 234.5 284 c 128,-1,58
 250 221 250 221 293 170 c 1,59,-1
 465 645 l 1,49,50
EndSplineSet
Validated: 1
EndChar

StartChar: sterling
Encoding: 163 163 132
Width: 772
Flags: W
LayerCount: 2
Fore
SplineSet
737 229 m 1,0,1
 732 185 732 185 715.5 141 c 128,-1,2
 699 97 699 97 672 62 c 128,-1,3
 645 27 645 27 607 4.5 c 128,-1,4
 569 -18 569 -18 520 -18 c 0,5,6
 483 -18 483 -18 451 -6.5 c 128,-1,7
 419 5 419 5 389 22.5 c 128,-1,8
 359 40 359 40 330.5 61.5 c 128,-1,9
 302 83 302 83 274 104 c 1,10,11
 264 83 264 83 250.5 61 c 128,-1,12
 237 39 237 39 220 21.5 c 128,-1,13
 203 4 203 4 181 -7 c 128,-1,14
 159 -18 159 -18 133 -18 c 0,15,16
 87 -18 87 -18 66 8 c 128,-1,17
 45 34 45 34 45 78 c 0,18,19
 45 134 45 134 80.5 165.5 c 128,-1,20
 116 197 116 197 170 197 c 0,21,22
 185 197 185 197 201.5 195.5 c 128,-1,23
 218 194 218 194 233 190 c 1,24,25
 235 203 235 203 235.5 215 c 128,-1,26
 236 227 236 227 236 240 c 0,27,28
 236 305 236 305 230.5 369 c 128,-1,29
 225 433 225 433 219 498 c 1,30,-1
 74 498 l 1,31,-1
 74 569 l 1,32,-1
 219 569 l 1,33,34
 217 606 217 606 213 643.5 c 128,-1,35
 209 681 209 681 209 719 c 0,36,37
 209 781 209 781 227.5 839.5 c 128,-1,38
 246 898 246 898 281.5 943.5 c 128,-1,39
 317 989 317 989 369 1016.5 c 128,-1,40
 421 1044 421 1044 489 1044 c 0,41,42
 523 1044 523 1044 557 1034 c 128,-1,43
 591 1024 591 1024 618.5 1004 c 128,-1,44
 646 984 646 984 663 955 c 128,-1,45
 680 926 680 926 680 889 c 0,46,47
 680 867 680 867 663 847 c 128,-1,48
 646 827 646 827 623 827 c 0,49,50
 595 827 595 827 584 840 c 128,-1,51
 573 853 573 853 569 872 c 128,-1,52
 565 891 565 891 564 914 c 128,-1,53
 563 937 563 937 555 956 c 128,-1,54
 547 975 547 975 528.5 988 c 128,-1,55
 510 1001 510 1001 471 1001 c 0,56,57
 427 1001 427 1001 400 981 c 128,-1,58
 373 961 373 961 358.5 930.5 c 128,-1,59
 344 900 344 900 339 862.5 c 128,-1,60
 334 825 334 825 334 791 c 0,61,62
 334 735 334 735 339.5 679 c 128,-1,63
 345 623 345 623 350 569 c 1,64,-1
 545 569 l 1,65,-1
 545 498 l 1,66,-1
 350 498 l 1,67,68
 350 455 350 455 348.5 414.5 c 128,-1,69
 347 374 347 374 342.5 334.5 c 128,-1,70
 338 295 338 295 329 256 c 128,-1,71
 320 217 320 217 305 176 c 1,72,73
 326 169 326 169 358.5 158.5 c 128,-1,74
 391 148 391 148 426 138.5 c 128,-1,75
 461 129 461 129 494.5 122 c 128,-1,76
 528 115 528 115 549 115 c 0,77,78
 674 115 674 115 709 236 c 1,79,-1
 737 229 l 1,0,1
225 129 m 1,80,81
 198 150 198 150 160 150 c 0,82,83
 128 150 128 150 109 134.5 c 128,-1,84
 90 119 90 119 90 84 c 0,85,86
 90 59 90 59 100.5 43 c 128,-1,87
 111 27 111 27 139 27 c 0,88,89
 159 27 159 27 173.5 37 c 128,-1,90
 188 47 188 47 198.5 62.5 c 128,-1,91
 209 78 209 78 215 96 c 128,-1,92
 221 114 221 114 225 129 c 1,80,81
EndSplineSet
Validated: 1
EndChar

StartChar: currency
Encoding: 164 164 133
Width: 891
Flags: W
LayerCount: 2
Fore
SplineSet
793 238 m 1,0,-1
 639 391 l 1,1,2
 599 356 599 356 551 339 c 128,-1,3
 503 322 503 322 449 322 c 0,4,5
 393 322 393 322 343.5 338 c 128,-1,6
 294 354 294 354 252 391 c 1,7,-1
 98 238 l 1,8,-1
 45 291 l 1,9,-1
 197 444 l 1,10,11
 165 485 165 485 149 533.5 c 128,-1,12
 133 582 133 582 133 635 c 256,13,14
 133 688 133 688 148.5 738.5 c 128,-1,15
 164 789 164 789 201 829 c 1,16,-1
 45 985 l 1,17,-1
 98 1040 l 1,18,-1
 254 883 l 1,19,20
 296 917 296 917 346 932.5 c 128,-1,21
 396 948 396 948 449 948 c 0,22,23
 501 948 501 948 548 932.5 c 128,-1,24
 595 917 595 917 635 883 c 1,25,-1
 793 1040 l 1,26,-1
 846 985 l 1,27,-1
 692 831 l 1,28,29
 726 789 726 789 742 739 c 128,-1,30
 758 689 758 689 758 635 c 0,31,32
 758 582 758 582 742 533.5 c 128,-1,33
 726 485 726 485 694 444 c 1,34,-1
 846 291 l 1,35,-1
 793 238 l 1,0,-1
674 635 m 256,36,37
 674 682 674 682 656.5 723.5 c 128,-1,38
 639 765 639 765 608 796.5 c 128,-1,39
 577 828 577 828 536 846 c 128,-1,40
 495 864 495 864 449 864 c 0,41,42
 400 864 400 864 358 846.5 c 128,-1,43
 316 829 316 829 284.5 798 c 128,-1,44
 253 767 253 767 235 725 c 128,-1,45
 217 683 217 683 217 635 c 256,46,47
 217 587 217 587 235 545 c 128,-1,48
 253 503 253 503 284.5 472 c 128,-1,49
 316 441 316 441 358 423.5 c 128,-1,50
 400 406 400 406 449 406 c 0,51,52
 496 406 496 406 537 424 c 128,-1,53
 578 442 578 442 608.5 473.5 c 128,-1,54
 639 505 639 505 656.5 546.5 c 128,-1,55
 674 588 674 588 674 635 c 256,36,37
EndSplineSet
Validated: 1
EndChar

StartChar: yen
Encoding: 165 165 134
Width: 772
Flags: W
LayerCount: 2
Fore
SplineSet
451 266 m 1,0,-1
 451 184 l 2,1,2
 451 140 451 140 453.5 111 c 128,-1,3
 456 82 456 82 468 64 c 128,-1,4
 480 46 480 46 506 38.5 c 128,-1,5
 532 31 532 31 580 31 c 1,6,-1
 580 0 l 1,7,-1
 190 0 l 1,8,-1
 190 31 l 1,9,10
 239 31 239 31 266 38 c 128,-1,11
 293 45 293 45 305.5 62 c 128,-1,12
 318 79 318 79 320 109 c 128,-1,13
 322 139 322 139 322 184 c 2,14,-1
 322 266 l 1,15,-1
 14 266 l 1,16,-1
 14 322 l 1,17,-1
 322 322 l 1,18,-1
 322 430 l 1,19,-1
 311 457 l 1,20,-1
 14 457 l 1,21,-1
 14 510 l 1,22,-1
 285 510 l 1,23,-1
 125 885 l 2,24,25
 114 909 114 909 104.5 928.5 c 128,-1,26
 95 948 95 948 81.5 961.5 c 128,-1,27
 68 975 68 975 49 983.5 c 128,-1,28
 30 992 30 992 2 995 c 1,29,-1
 2 1022 l 1,30,-1
 336 1022 l 1,31,-1
 336 995 l 1,32,33
 326 994 326 994 310 991.5 c 128,-1,34
 294 989 294 989 279 984 c 128,-1,35
 264 979 264 979 253 970 c 128,-1,36
 242 961 242 961 242 948 c 0,37,38
 242 944 242 944 254 912.5 c 128,-1,39
 266 881 266 881 285 835 c 128,-1,40
 304 789 304 789 325.5 735.5 c 128,-1,41
 347 682 347 682 367 634.5 c 128,-1,42
 387 587 387 587 401 552.5 c 128,-1,43
 415 518 415 518 418 510 c 1,44,-1
 580 891 l 2,45,46
 585 904 585 904 589.5 918.5 c 128,-1,47
 594 933 594 933 594 948 c 256,48,49
 594 963 594 963 585.5 972 c 128,-1,50
 577 981 577 981 564.5 986 c 128,-1,51
 552 991 552 991 537 992.5 c 128,-1,52
 522 994 522 994 510 995 c 1,53,-1
 510 1022 l 1,54,-1
 772 1022 l 1,55,-1
 772 995 l 1,56,57
 743 995 743 995 723.5 985.5 c 128,-1,58
 704 976 704 976 689 959.5 c 128,-1,59
 674 943 674 943 663 922 c 128,-1,60
 652 901 652 901 641 877 c 2,61,-1
 477 510 l 1,62,-1
 758 510 l 1,63,-1
 758 457 l 1,64,-1
 457 457 l 1,65,-1
 451 442 l 1,66,-1
 451 322 l 1,67,-1
 758 322 l 1,68,-1
 758 266 l 1,69,-1
 451 266 l 1,0,-1
EndSplineSet
Validated: 1
EndChar

StartChar: brokenbar
Encoding: 166 166 135
Width: 467
Flags: W
LayerCount: 2
Fore
SplineSet
197 500 m 1,0,-1
 197 1094 l 1,1,-1
 272 1094 l 1,2,-1
 272 500 l 1,3,-1
 197 500 l 1,0,-1
197 -295 m 1,4,-1
 197 299 l 1,5,-1
 272 299 l 1,6,-1
 272 -295 l 1,7,-1
 197 -295 l 1,4,-1
EndSplineSet
Validated: 1
EndChar

StartChar: section
Encoding: 167 167 136
Width: 772
Flags: W
LayerCount: 2
Fore
SplineSet
655 362 m 0,0,1
 655 318 655 318 642.5 281 c 128,-1,2
 630 244 630 244 607.5 212 c 128,-1,3
 585 180 585 180 555 153 c 128,-1,4
 525 126 525 126 489 104 c 1,5,6
 525 66 525 66 552.5 18 c 128,-1,7
 580 -30 580 -30 580 -86 c 0,8,9
 580 -132 580 -132 564 -171.5 c 128,-1,10
 548 -211 548 -211 519 -239.5 c 128,-1,11
 490 -268 490 -268 450.5 -284.5 c 128,-1,12
 411 -301 411 -301 365 -301 c 0,13,14
 329 -301 329 -301 295 -289 c 128,-1,15
 261 -277 261 -277 235 -254.5 c 128,-1,16
 209 -232 209 -232 193.5 -201.5 c 128,-1,17
 178 -171 178 -171 178 -133 c 0,18,19
 178 -107 178 -107 193 -86.5 c 128,-1,20
 208 -66 208 -66 236 -66 c 0,21,22
 263 -66 263 -66 279 -86 c 128,-1,23
 295 -106 295 -106 295 -131 c 0,24,25
 295 -151 295 -151 288 -172 c 128,-1,26
 281 -193 281 -193 281 -213 c 0,27,28
 281 -229 281 -229 290.5 -240.5 c 128,-1,29
 300 -252 300 -252 313.5 -259 c 128,-1,30
 327 -266 327 -266 343 -269 c 128,-1,31
 359 -272 359 -272 371 -272 c 0,32,33
 395 -272 395 -272 418.5 -262 c 128,-1,34
 442 -252 442 -252 461 -235 c 128,-1,35
 480 -218 480 -218 492 -196 c 128,-1,36
 504 -174 504 -174 504 -150 c 0,37,38
 504 -101 504 -101 475.5 -60.5 c 128,-1,39
 447 -20 447 -20 404 18 c 128,-1,40
 361 56 361 56 310.5 94 c 128,-1,41
 260 132 260 132 217 174.5 c 128,-1,42
 174 217 174 217 145.5 267.5 c 128,-1,43
 117 318 117 318 117 381 c 0,44,45
 117 424 117 424 129.5 461 c 128,-1,46
 142 498 142 498 164.5 529.5 c 128,-1,47
 187 561 187 561 217 587.5 c 128,-1,48
 247 614 247 614 283 635 c 1,49,50
 267 655 267 655 250.5 678 c 128,-1,51
 234 701 234 701 220.5 726 c 128,-1,52
 207 751 207 751 198.5 777.5 c 128,-1,53
 190 804 190 804 190 831 c 0,54,55
 190 875 190 875 207 913.5 c 128,-1,56
 224 952 224 952 253 981 c 128,-1,57
 282 1010 282 1010 320.5 1027 c 128,-1,58
 359 1044 359 1044 403 1044 c 0,59,60
 440 1044 440 1044 475 1033 c 128,-1,61
 510 1022 510 1022 537 1000.5 c 128,-1,62
 564 979 564 979 580 948 c 128,-1,63
 596 917 596 917 596 877 c 0,64,65
 596 848 596 848 582.5 828.5 c 128,-1,66
 569 809 569 809 537 809 c 0,67,68
 514 809 514 809 495.5 826 c 128,-1,69
 477 843 477 843 477 866 c 0,70,71
 477 885 477 885 482 903 c 128,-1,72
 487 921 487 921 487 940 c 0,73,74
 487 980 487 980 464 996 c 128,-1,75
 441 1012 441 1012 403 1012 c 0,76,77
 375 1012 375 1012 351 1002 c 128,-1,78
 327 992 327 992 309.5 974.5 c 128,-1,79
 292 957 292 957 282 933 c 128,-1,80
 272 909 272 909 272 881 c 0,81,82
 272 832 272 832 300.5 792.5 c 128,-1,83
 329 753 329 753 371.5 716.5 c 128,-1,84
 414 680 414 680 463.5 644 c 128,-1,85
 513 608 513 608 555.5 566.5 c 128,-1,86
 598 525 598 525 626.5 475 c 128,-1,87
 655 425 655 425 655 362 c 0,0,1
309 612 m 1,88,89
 285 598 285 598 264 581 c 128,-1,90
 243 564 243 564 227.5 543 c 128,-1,91
 212 522 212 522 202.5 497 c 128,-1,92
 193 472 193 472 193 444 c 0,93,94
 193 405 193 405 207 373.5 c 128,-1,95
 221 342 221 342 244 315 c 128,-1,96
 267 288 267 288 296.5 264.5 c 128,-1,97
 326 241 326 241 356 218.5 c 128,-1,98
 386 196 386 196 414 173.5 c 128,-1,99
 442 151 442 151 463 127 c 1,100,101
 485 141 485 141 506 158 c 128,-1,102
 527 175 527 175 543 196 c 128,-1,103
 559 217 559 217 568.5 241.5 c 128,-1,104
 578 266 578 266 578 295 c 0,105,106
 578 344 578 344 548.5 389 c 128,-1,107
 519 434 519 434 477 474.5 c 128,-1,108
 435 515 435 515 389 549.5 c 128,-1,109
 343 584 343 584 309 612 c 1,88,89
EndSplineSet
Validated: 1
EndChar

StartChar: dieresis
Encoding: 168 168 137
Width: 461
Flags: W
LayerCount: 2
Fore
SplineSet
461 926 m 0,0,1
 461 910 461 910 455 895.5 c 128,-1,2
 449 881 449 881 438.5 870.5 c 128,-1,3
 428 860 428 860 414 854 c 128,-1,4
 400 848 400 848 385 848 c 0,5,6
 354 848 354 848 330.5 871.5 c 128,-1,7
 307 895 307 895 307 926 c 0,8,9
 307 941 307 941 313.5 954.5 c 128,-1,10
 320 968 320 968 331 978.5 c 128,-1,11
 342 989 342 989 356 995 c 128,-1,12
 370 1001 370 1001 385 1001 c 0,13,14
 416 1001 416 1001 438.5 979 c 128,-1,15
 461 957 461 957 461 926 c 0,0,1
154 926 m 0,16,17
 154 910 154 910 147.5 895.5 c 128,-1,18
 141 881 141 881 130.5 870.5 c 128,-1,19
 120 860 120 860 105.5 854 c 128,-1,20
 91 848 91 848 76 848 c 0,21,22
 45 848 45 848 22.5 871.5 c 128,-1,23
 0 895 0 895 0 926 c 0,24,25
 0 941 0 941 6.5 954.5 c 128,-1,26
 13 968 13 968 23.5 978.5 c 128,-1,27
 34 989 34 989 47.5 995 c 128,-1,28
 61 1001 61 1001 76 1001 c 0,29,30
 107 1001 107 1001 130.5 979 c 128,-1,31
 154 957 154 957 154 926 c 0,16,17
EndSplineSet
Validated: 1
EndChar

StartChar: copyright
Encoding: 169 169 138
Width: 1174
Flags: W
LayerCount: 2
Fore
SplineSet
1122 510 m 0,0,1
 1122 398 1122 398 1080.5 300.5 c 128,-1,2
 1039 203 1039 203 967 130.5 c 128,-1,3
 895 58 895 58 797 16.5 c 128,-1,4
 699 -25 699 -25 586 -25 c 256,5,6
 473 -25 473 -25 375.5 16.5 c 128,-1,7
 278 58 278 58 206 130 c 128,-1,8
 134 202 134 202 92.5 299.5 c 128,-1,9
 51 397 51 397 51 510 c 0,10,11
 51 624 51 624 92.5 721.5 c 128,-1,12
 134 819 134 819 206 890.5 c 128,-1,13
 278 962 278 962 375.5 1003 c 128,-1,14
 473 1044 473 1044 586 1044 c 0,15,16
 700 1044 700 1044 798 1003 c 128,-1,17
 896 962 896 962 968 890.5 c 128,-1,18
 1040 819 1040 819 1081 721.5 c 128,-1,19
 1122 624 1122 624 1122 510 c 0,0,1
1075 510 m 0,20,21
 1075 613 1075 613 1037 702 c 128,-1,22
 999 791 999 791 933 857 c 128,-1,23
 867 923 867 923 778 961 c 128,-1,24
 689 999 689 999 586 999 c 0,25,26
 484 999 484 999 395 961 c 128,-1,27
 306 923 306 923 240.5 856.5 c 128,-1,28
 175 790 175 790 137.5 701 c 128,-1,29
 100 612 100 612 100 510 c 256,30,31
 100 408 100 408 137.5 319.5 c 128,-1,32
 175 231 175 231 240.5 165.5 c 128,-1,33
 306 100 306 100 395 62.5 c 128,-1,34
 484 25 484 25 586 25 c 0,35,36
 689 25 689 25 778 62.5 c 128,-1,37
 867 100 867 100 933 165.5 c 128,-1,38
 999 231 999 231 1037 319.5 c 128,-1,39
 1075 408 1075 408 1075 510 c 0,20,21
879 324 m 1,40,41
 826 248 826 248 753.5 209 c 128,-1,42
 681 170 681 170 590 170 c 0,43,44
 518 170 518 170 454 195 c 128,-1,45
 390 220 390 220 342.5 264.5 c 128,-1,46
 295 309 295 309 267.5 370.5 c 128,-1,47
 240 432 240 432 240 506 c 0,48,49
 240 587 240 587 270 652 c 128,-1,50
 300 717 300 717 351 762.5 c 128,-1,51
 402 808 402 808 470.5 832 c 128,-1,52
 539 856 539 856 616 856 c 0,53,54
 640 856 640 856 664.5 850.5 c 128,-1,55
 689 845 689 845 711.5 838.5 c 128,-1,56
 734 832 734 832 753 826.5 c 128,-1,57
 772 821 772 821 784 821 c 0,58,59
 798 821 798 821 807 832.5 c 128,-1,60
 816 844 816 844 821 856 c 1,61,-1
 850 856 l 1,62,-1
 866 645 l 1,63,-1
 838 645 l 1,64,65
 810 727 810 727 754.5 774 c 128,-1,66
 699 821 699 821 608 821 c 0,67,68
 543 821 543 821 497 797 c 128,-1,69
 451 773 451 773 422 732.5 c 128,-1,70
 393 692 393 692 379 639 c 128,-1,71
 365 586 365 586 365 528 c 0,72,73
 365 468 365 468 378.5 412 c 128,-1,74
 392 356 392 356 421.5 313 c 128,-1,75
 451 270 451 270 499 244.5 c 128,-1,76
 547 219 547 219 616 219 c 0,77,78
 767 219 767 219 850 340 c 1,79,-1
 879 324 l 1,40,41
EndSplineSet
Validated: 1
EndChar

StartChar: ordfeminine
Encoding: 170 170 139
Width: 492
Flags: W
LayerCount: 2
Fore
SplineSet
490 667 m 1,0,1
 430 600 430 600 373 600 c 0,2,3
 350 600 350 600 332.5 614 c 128,-1,4
 315 628 315 628 315 667 c 1,5,6
 282 646 282 646 260.5 633 c 128,-1,7
 239 620 239 620 222.5 612.5 c 128,-1,8
 206 605 206 605 191.5 602.5 c 128,-1,9
 177 600 177 600 157 600 c 0,10,11
 103 600 103 600 70.5 629 c 128,-1,12
 38 658 38 658 38 706 c 0,13,14
 38 729 38 729 48 749.5 c 128,-1,15
 58 770 58 770 88 791 c 128,-1,16
 118 812 118 812 172 834.5 c 128,-1,17
 226 857 226 857 315 883 c 1,18,-1
 315 899 l 2,19,20
 315 959 315 959 292 983.5 c 128,-1,21
 269 1008 269 1008 221 1008 c 0,22,23
 188 1008 188 1008 168.5 993 c 128,-1,24
 149 978 149 978 147 957 c 0,25,26
 148 951 148 951 148.5 942.5 c 128,-1,27
 149 934 149 934 149 929 c 0,28,29
 149 908 149 908 136.5 897.5 c 128,-1,30
 124 887 124 887 104 887 c 0,31,32
 58 887 58 887 58 930 c 0,33,34
 58 954 58 954 73 973.5 c 128,-1,35
 88 993 88 993 113 1006.5 c 128,-1,36
 138 1020 138 1020 170.5 1027 c 128,-1,37
 203 1034 203 1034 239 1034 c 0,38,39
 293 1034 293 1034 325.5 1024 c 128,-1,40
 358 1014 358 1014 376 995.5 c 128,-1,41
 394 977 394 977 399.5 951 c 128,-1,42
 405 925 405 925 405 893 c 2,43,-1
 405 752 l 2,44,45
 405 692 405 692 408 679 c 256,46,47
 411 666 411 666 416 661 c 128,-1,48
 421 656 421 656 432 656 c 0,49,50
 436 656 436 656 440.5 657 c 128,-1,51
 445 658 445 658 451 661.5 c 128,-1,52
 457 665 457 665 466.5 672.5 c 128,-1,53
 476 680 476 680 490 693 c 1,54,-1
 490 667 l 1,0,1
44 493 m 1,55,-1
 44 526 l 1,56,-1
 482 526 l 1,57,-1
 482 493 l 1,58,-1
 44 493 l 1,55,-1
315 856 m 1,59,60
 252 835 252 835 215.5 818 c 128,-1,61
 179 801 179 801 160 785.5 c 128,-1,62
 141 770 141 770 136 755.5 c 128,-1,63
 131 741 131 741 131 726 c 0,64,65
 131 695 131 695 153.5 673 c 128,-1,66
 176 651 176 651 207 651 c 0,67,68
 248 651 248 651 315 697 c 1,69,-1
 315 856 l 1,59,60
EndSplineSet
Validated: 1
EndChar

StartChar: guillemotleft
Encoding: 171 171 140
Width: 772
Flags: W
LayerCount: 2
Fore
SplineSet
680 -6 m 1,0,-1
 383 350 l 1,1,-1
 680 705 l 1,2,-1
 723 705 l 1,3,-1
 539 350 l 1,4,-1
 723 -6 l 1,5,-1
 680 -6 l 1,0,-1
340 -6 m 1,6,-1
 47 350 l 1,7,-1
 340 705 l 1,8,-1
 381 705 l 1,9,-1
 197 350 l 1,10,-1
 381 -6 l 1,11,-1
 340 -6 l 1,6,-1
EndSplineSet
Validated: 1
EndChar

